<svg height="188.97067mm" viewBox="0 0 1422.3139 669.58112" width="401.4086mm" xmlns="http://www.w3.org/2000/svg"><g transform="translate(296.93982 20.586676)"><path d="m-296.93982-20.586676h1422.3129v669.58112h-1422.3129z" fill="#fafafa"/><path d="m802.73164 89.639559-49.5134 380.625981 59.5743 178.72688h312.58156v-236.71031z" fill="#eee" fill-rule="evenodd"/><path d="m228.22393 66.941184-114.87953 71.115906-51.425637-48.142531-30.63117 87.527261 1.09156 359.95418-234.133753 18.60295 92.9935 92.99347h1228.2967l-128.03736-130.76204-202.6945 4.64545-37.9082-198.05329 48.7391-235.182981-100.9559 36.380841-62.36232-57.987655-96.28083 87.527265-39.79513-48.51486-192.15127 6.94279z" fill="#eee" fill-rule="evenodd"/><path d="m-201.44876 518.2323h1192.947v37.134537h-1192.947z" fill="#795548"/><path d="m-201.44998 518.23038v30.33499l5.09392 6.80318h150.951543l-27.80498-37.13817zm276.716983 0 27.804957 37.13817h79.18833l-27.80498-37.13817zm178.172637 0 27.80498 37.13817h183.11846l-27.80495-37.13817zm324.16988 0 27.80498 37.13817h76.71327l-27.80497-37.13817zm108.88452 0 27.8049 37.13817h44.5421l-27.8049-37.13817zm113.8302 0 27.805 37.13817h136.1013l-27.8007-37.13817z" fill="#5d4037"/><path d="m-15.776067 97.939758h83.746124v420.67935h-83.746124z" fill="#4db6ac"/><rect fill="#4db6ac" height="384.2352" ry="10.745246" width="83.746124" x="-15.776067" y="85.769669"/><path d="m-15.776077 126.84487v34.05044h83.74492v-34.05044z" fill="#00796b"/><rect fill="#00796b" height="209.99524" ry="23.209656" width="44.262203" x="3.943447" y="191.57759"/><path d="m-15.776077 437.77815v58.39061h83.74492v-58.39061z" fill="#00796b"/><rect fill="#4db6ac" height="185.65508" ry="20.519466" width="28.015844" x="12.066646" y="203.74768"/><path d="m67.776634 117.48874h83.746124v401.13037h-83.746124z" fill="#81c784"/><rect fill="#81c784" height="366.37979" ry="10.245914" width="83.746124" x="67.776634" y="105.88419"/><path d="m67.776633 145.05063v32.46813h83.744917v-32.46813z" fill="#43a047"/><rect fill="#43a047" height="200.23676" ry="22.131102" width="44.262203" x="87.496147" y="219.15337"/><path d="m67.776633 451.34941v15.22819h83.744917v-15.22819z" fill="#43a047"/><path d="m149.78207 76.886986h83.746124v441.73212h-83.746124z" fill="#ffeb3b"/><rect fill="#ffeb3b" height="403.46417" ry="11.282988" width="83.746124" x="149.78207" y="64.107849"/><path d="m149.78206 90.218639v55.995121h83.74492v-55.995121z" fill="#f9a825"/><path d="m149.78206 407.42884v87.57085h83.74492v-87.57085z" fill="#f9a825"/><path d="m67.776633 483.65718v33.79546h82.100937v-33.79546z" fill="#43a047"/><circle cx="189.9288" cy="117.2066" fill="#ffeb3b" r="19.146519"/><path d="m149.78206 370.94073v26.30199h83.74492v-26.30199z" fill="#f9a825"/><path d="m233.33481 144.07185h55.895218v374.54724h-55.895218z" fill="#42a5f5"/><rect fill="#42a5f5" height="342.09958" ry="5.23271" width="55.895218" x="233.33481" y="133.23633"/><path d="m233.33477 155.10814v16.391h55.89441v-16.391z" fill="#1976d2"/><path d="m233.33477 455.80741v14.21901h55.89441v-14.21901z" fill="#1976d2"/><path d="m233.33477 485.97412v32.78668h55.75448v-32.78668z" fill="#1976d2"/><path d="m265.05325 324.20487-31.71848 45.99327v73.76017l49.90013-95.77071z" fill="#64b5f6" fill-rule="evenodd"/><path d="m283.62232 246.68771-50.28755 72.91401v31.01191l16.24636 19.85527 39.64703-68.72549v-35.42891z" fill="#90caf9" fill-rule="evenodd"/><path d="m289.22816 203.19657-41.96976 60.85193 27.85152 34.04122 14.11824-24.47109z" fill="#64b5f6" fill-rule="evenodd"/><path d="m239.32985 180.37377-5.99508 10.39091v72.72362l33.84658-49.07332z" fill="#90caf9" fill-rule="evenodd"/><path d="m289.13321 116.42509h71.212433v402.18353h-71.212433z" fill="#42a5f5"/><rect fill="#ffd54f" height="367.34171" ry="5.618811" width="71.212433" x="289.13321" y="104.79012"/><g fill="#ffb300"><path d="m289.1332 114.05257v76.13409h71.21141v-76.13409z"/><path d="m289.1332 401.64962v15.26818h71.21141v-15.26818z"/><path d="m289.1332 427.85312v90.90768h71.03313v-90.90768z"/><path d="m334.84564-122.52151h43.260021v43.260021h-43.260021z" transform="matrix(.70710678 .70710678 -.70710678 .70710678 0 0)"/><path d="m386.38898-72.861809h29.310413v29.310413h-29.310413z" transform="matrix(.70710678 .70710678 -.70710678 .70710678 0 0)"/><path d="m415.92938-43.321495h29.310413v29.310413h-29.310413z" transform="matrix(.70710678 .70710678 -.70710678 .70710678 0 0)"/><path d="m445.46967-13.781121h29.310413v29.310413h-29.310413z" transform="matrix(.70710678 .70710678 -.70710678 .70710678 0 0)"/><path d="m474.59979 15.348945h29.310413v29.310413h-29.310413z" transform="matrix(.70710678 .70710678 -.70710678 .70710678 0 0)"/></g><path d="m-806.59283 97.939758h83.746124v420.67935h-83.746124z" fill="#4db6ac" transform="scale(-1 1)"/><rect fill="#4db6ac" height="384.2352" ry="10.745246" transform="scale(-1 1)" width="83.746124" x="-806.59283" y="85.769669"/><path d="m806.59284 126.84487v34.05044h-83.7449v-34.05044z" fill="#00796b"/><rect fill="#00796b" height="209.99524" ry="23.209656" transform="scale(-1 1)" width="44.262203" x="-786.87323" y="191.57759"/><path d="m806.59284 437.77815v58.39061h-83.7449v-58.39061z" fill="#00796b"/><rect fill="#4db6ac" height="185.65508" ry="20.519466" transform="scale(-1 1)" width="28.015844" x="-778.75006" y="203.74768"/><path d="m-723.0401 117.48874h83.746124v401.13037h-83.746124z" fill="#81c784" transform="scale(-1 1)"/><rect fill="#81c784" height="366.37979" ry="10.245914" transform="scale(-1 1)" width="83.746124" x="-723.0401" y="105.88419"/><path d="m723.04014 145.05063v32.46813h-83.7449v-32.46813z" fill="#43a047"/><rect fill="#43a047" height="200.23676" ry="22.131102" transform="scale(-1 1)" width="44.262203" x="-703.32062" y="219.15337"/><path d="m723.04014 451.34941v15.22819h-83.7449v-15.22819z" fill="#43a047"/><path d="m-641.03467 76.886986h83.746124v441.73212h-83.746124z" fill="#ffeb3b" transform="scale(-1 1)"/><rect fill="#ffeb3b" height="403.46417" ry="11.282988" transform="scale(-1 1)" width="83.746124" x="-641.03467" y="64.107849"/><path d="m641.03473 90.218639v55.995121h-83.74492v-55.995121z" fill="#f9a825"/><path d="m641.03473 407.42884v87.57085h-83.74492v-87.57085z" fill="#f9a825"/><path d="m723.04014 483.65718v33.79546h-82.10092v-33.79546z" fill="#43a047"/><circle cx="-600.88794" cy="117.2066" fill="#ffeb3b" r="19.146519" transform="scale(-1 1)"/><path d="m641.03473 370.94073v26.30199h-83.74492v-26.30199z" fill="#f9a825"/><path d="m-557.48199 144.07185h55.895218v374.54724h-55.895218z" fill="#42a5f5" transform="scale(-1 1)"/><rect fill="#42a5f5" height="342.09958" ry="5.23271" transform="scale(-1 1)" width="55.895218" x="-557.48199" y="133.23633"/><path d="m557.48202 155.10814v16.391h-55.89441v-16.391z" fill="#1976d2"/><path d="m557.48202 455.80741v14.21901h-55.89441v-14.21901z" fill="#1976d2"/><path d="m557.48202 485.97412v32.78668h-55.75448v-32.78668z" fill="#1976d2"/><path d="m525.76353 324.20487 31.71849 45.99327v73.76017l-49.90014-95.77071z" fill="#64b5f6" fill-rule="evenodd"/><path d="m507.19446 246.68771 50.28756 72.91401v31.01191l-16.24636 19.85527-39.64704-68.72549v-35.42891z" fill="#90caf9" fill-rule="evenodd"/><path d="m501.58862 203.19657 41.96977 60.85193-27.85153 34.04122-14.11824-24.47109z" fill="#64b5f6" fill-rule="evenodd"/><path d="m551.48694 180.37377 5.99508 10.39091v72.72362l-33.84659-49.07332z" fill="#90caf9" fill-rule="evenodd"/><path d="m-501.68362 116.42509h71.212433v402.18353h-71.212433z" fill="#42a5f5" transform="scale(-1 1)"/><rect fill="#ffd54f" height="367.34171" ry="5.618811" transform="scale(-1 1)" width="71.212433" x="-501.68362" y="104.79012"/><path d="m501.68359 114.05257v76.13409h-71.21141v-76.13409z" fill="#ffb300"/><path d="m501.68359 401.64962v15.26818h-71.21141v-15.26818z" fill="#ffb300"/><path d="m501.68359 427.85312v90.90768h-71.03314v-90.90768z" fill="#ffb300"/><path d="m-224.34625 436.67047h43.260021v43.260021h-43.260021z" fill="#ffb300" transform="matrix(-.70710678 .70710678 .70710678 .70710678 0 0)"/><path d="m-172.80286 486.33014h29.310413v29.310413h-29.310413z" fill="#ffb300" transform="matrix(-.70710678 .70710678 .70710678 .70710678 0 0)"/><path d="m-143.26251 515.87042h29.310413v29.310413h-29.310413z" fill="#ffb300" transform="matrix(-.70710678 .70710678 .70710678 .70710678 0 0)"/><path d="m-113.72219 545.41083h29.310413v29.310413h-29.310413z" fill="#ffb300" transform="matrix(-.70710678 .70710678 .70710678 .70710678 0 0)"/><path d="m-84.592094 574.54083h29.310413v29.310413h-29.310413z" fill="#ffb300" transform="matrix(-.70710678 .70710678 .70710678 .70710678 0 0)"/><path d="m359.39651 116.42509h71.212433v402.18353h-71.212433z" fill="#42a5f5"/><rect fill="#f44336" height="367.34171" ry="5.618811" width="71.212433" x="359.39651" y="104.79012"/><path d="m359.39652 123.35232v66.83434h71.21141v-66.83434z" fill="#d32f2f"/><path d="m359.39652 427.85312v90.90768h71.03313v-90.90768z" fill="#d32f2f"/><path d="m-52.395058-611.45038h43.260021v43.260021h-43.260021z" fill="#d32f2f" transform="matrix(.70710678 -.70710678 -.70710678 -.70710678 0 0)"/><path d="m448.10754-110.51055h29.310413v29.310413h-29.310413z" fill="#d32f2f" transform="matrix(.70710678 .70710678 -.70710678 .70710678 0 0)"/><path d="m477.64795-80.970207h29.310413v29.310413h-29.310413z" fill="#d32f2f" transform="matrix(.70710678 .70710678 -.70710678 .70710678 0 0)"/><path d="m506.77795-51.840111h29.310413v29.310413h-29.310413z" fill="#d32f2f" transform="matrix(.70710678 .70710678 -.70710678 .70710678 0 0)"/><path d="m-55.434578-614.05273h29.310413v29.310413h-29.310413z" fill="#f44336" transform="matrix(.70710678 -.70710678 -.70710678 -.70710678 0 0)"/><path d="m385.29004-173.76523h43.260021v43.260021h-43.260021z" fill="#d32f2f" transform="matrix(.70710678 .70710678 -.70710678 .70710678 0 0)"/><path d="m382.25055-176.36765h29.310413v29.310413h-29.310413z" fill="#f44336" transform="matrix(.70710678 .70710678 -.70710678 .70710678 0 0)"/></g></svg>