<svg id="Layer_1" data-name="Layer 1" xmlns="http://www.w3.org/2000/svg" viewBox="0 0 343.4 136.1"><path d="M202.48,54.56a11,11,0,0,1-1.68,5.53,10.3,10.3,0,0,1-4.33,3.71,14.86,14.86,0,0,1-6.37,1.31,11.76,11.76,0,0,1-9.29-3.84q-3.39-3.84-3.39-10.86V48.93a18.15,18.15,0,0,1,1.53-7.7,11.6,11.6,0,0,1,4.41-5.1,12.3,12.3,0,0,1,6.66-1.8,12.93,12.93,0,0,1,8.76,2.87,11.31,11.31,0,0,1,3.76,7.91h-7.19A5.39,5.39,0,0,0,194,41.18,5.66,5.66,0,0,0,190,40a4.32,4.32,0,0,0-4,2q-1.24,2-1.31,6.44v2.12q0,4.78,1.2,6.84a4.4,4.4,0,0,0,4.14,2.06,5.57,5.57,0,0,0,3.81-1.17,5,5,0,0,0,1.4-3.73Z" style="fill:#221f1f"/><path d="M203.65,53.37a13.16,13.16,0,0,1,1.29-5.93,9.32,9.32,0,0,1,3.73-4,11.19,11.19,0,0,1,5.69-1.4,10.22,10.22,0,0,1,7.88,3.1q2.88,3.09,2.88,8.42v.24a11.56,11.56,0,0,1-2.89,8.26,10.26,10.26,0,0,1-7.83,3,10.42,10.42,0,0,1-7.63-2.84,11.2,11.2,0,0,1-3.1-7.73Zm6.93.43a8.24,8.24,0,0,0,1,4.53,3.2,3.2,0,0,0,2.85,1.44q3.71,0,3.79-5.7v-.7q0-6-3.83-6c-2.31,0-3.57,1.72-3.76,5.16Z" style="fill:#221f1f"/><path d="M233.67,42.45l.22,2.61a7.68,7.68,0,0,1,6.36-3q4.22,0,5.69,3.35A7.42,7.42,0,0,1,252.48,42q6.77,0,7,8.19V64.7h-7v-14a4.28,4.28,0,0,0-.57-2.49,2.47,2.47,0,0,0-2.1-.78,3.3,3.3,0,0,0-3.07,1.83l0,.29V64.7h-7v-14a4.45,4.45,0,0,0-.55-2.53,2.45,2.45,0,0,0-2.12-.78,3.32,3.32,0,0,0-3,1.83V64.7h-6.93V42.45Z" style="fill:#221f1f"/><path d="M268.89,42.45l.22,2.61a7.68,7.68,0,0,1,6.36-3c2.81,0,4.7,1.12,5.69,3.35A7.42,7.42,0,0,1,287.7,42q6.76,0,6.95,8.19V64.7H287.7v-14a4.19,4.19,0,0,0-.58-2.49,2.44,2.44,0,0,0-2.09-.78A3.3,3.3,0,0,0,282,49.22l0,.29V64.7h-7v-14a4.45,4.45,0,0,0-.55-2.53,2.45,2.45,0,0,0-2.12-.78,3.32,3.32,0,0,0-3,1.83V64.7h-6.93V42.45Z" style="fill:#221f1f"/><path d="M296.68,53.37a13,13,0,0,1,1.3-5.93,9.24,9.24,0,0,1,3.72-4,11.25,11.25,0,0,1,5.7-1.4,10.2,10.2,0,0,1,7.87,3.1q2.88,3.09,2.88,8.42v.24a11.52,11.52,0,0,1-2.89,8.26,10.24,10.24,0,0,1-7.82,3,10.4,10.4,0,0,1-7.63-2.84,11.16,11.16,0,0,1-3.11-7.73Zm6.93.43a8.24,8.24,0,0,0,1,4.53,3.22,3.22,0,0,0,2.86,1.44c2.46,0,3.73-1.9,3.78-5.7v-.7q0-6-3.82-6-3.48,0-3.77,5.16Z" style="fill:#221f1f"/><path d="M326.51,42.45l.23,2.61a7.56,7.56,0,0,1,6.35-3,6.35,6.35,0,0,1,5.2,2.08c1.14,1.38,1.73,3.47,1.77,6.25V64.7h-6.94v-14a3.77,3.77,0,0,0-.68-2.48,3.15,3.15,0,0,0-2.47-.79,3.28,3.28,0,0,0-3,1.6V64.7H320V42.45Z" style="fill:#221f1f"/><path d="M196,94.77H183.46l-2.82,7.83h-4.07L188,72.66h3.45l11.45,29.94h-4Zm-11.35-3.23h10.18l-5.1-14Z" style="fill:#221f1f"/><path d="M204.39,91.29q0-5.21,2.41-8.27a8.28,8.28,0,0,1,12.72-.2l.19-2.47h3.47v21.72a9,9,0,0,1-2.56,6.8,9.43,9.43,0,0,1-6.87,2.49,11.34,11.34,0,0,1-4.71-1,8.06,8.06,0,0,1-3.52-2.81l2-2.29a7.45,7.45,0,0,0,6,3,5.85,5.85,0,0,0,4.33-1.57,6,6,0,0,0,1.55-4.4v-1.91a7.8,7.8,0,0,1-6.23,2.63,7.6,7.6,0,0,1-6.32-3.14C205.19,97.77,204.39,94.91,204.39,91.29Zm3.82.43a10,10,0,0,0,1.55,5.92,5,5,0,0,0,4.31,2.14,5.58,5.58,0,0,0,5.29-3.27V86.36a5.63,5.63,0,0,0-5.24-3.19,5.06,5.06,0,0,0-4.34,2.16Q208.21,87.49,208.21,91.72Z" style="fill:#221f1f"/><path d="M237.1,103a9.71,9.71,0,0,1-7.36-3,11,11,0,0,1-2.84-8v-.7a13.29,13.29,0,0,1,1.27-5.91,9.88,9.88,0,0,1,3.53-4.07,8.92,8.92,0,0,1,4.93-1.47,8.31,8.31,0,0,1,6.74,2.86c1.61,1.91,2.41,4.63,2.41,8.18v1.59H230.71a7.86,7.86,0,0,0,1.92,5.31,6,6,0,0,0,4.68,2,6.6,6.6,0,0,0,3.41-.83,8.54,8.54,0,0,0,2.45-2.17l2.32,1.8A9.33,9.33,0,0,1,237.1,103Zm-.47-19.94a5.09,5.09,0,0,0-3.87,1.67,8.21,8.21,0,0,0-1.93,4.7H242v-.29a7.25,7.25,0,0,0-1.56-4.49A4.77,4.77,0,0,0,236.63,83.07Z" style="fill:#221f1f"/><path d="M252.72,80.35l.13,2.8a8.1,8.1,0,0,1,6.66-3.21q7,0,7.11,8v14.7h-3.8V87.88a5.1,5.1,0,0,0-1.1-3.56,4.4,4.4,0,0,0-3.36-1.15,5.46,5.46,0,0,0-3.25,1,6.65,6.65,0,0,0-2.18,2.59V102.6h-3.8V80.35Z" style="fill:#221f1f"/><path d="M270.38,91.29a13,13,0,0,1,2.43-8.23,8.25,8.25,0,0,1,12.54-.45V71h3.81V102.6h-3.5l-.18-2.38a7.77,7.77,0,0,1-6.36,2.79,7.58,7.58,0,0,1-6.3-3.16,13.24,13.24,0,0,1-2.44-8.27Zm3.81.43a9.9,9.9,0,0,0,1.56,5.93,5.06,5.06,0,0,0,4.32,2.13,5.55,5.55,0,0,0,5.28-3.24V86.32a5.59,5.59,0,0,0-5.24-3.15,5.07,5.07,0,0,0-4.36,2.16Q274.19,87.49,274.19,91.72Z" style="fill:#221f1f"/><path d="M307.74,102.6a7.78,7.78,0,0,1-.53-2.34,8.51,8.51,0,0,1-6.34,2.75,7.88,7.88,0,0,1-5.4-1.86,6,6,0,0,1-2.1-4.72A6.31,6.31,0,0,1,296,91q2.64-1.92,7.43-1.92h3.7V87.36A4.24,4.24,0,0,0,306,84.19,4.78,4.78,0,0,0,302.44,83,5.6,5.6,0,0,0,299,84a3,3,0,0,0-1.38,2.49h-3.82A5.25,5.25,0,0,1,295,83.3a8.09,8.09,0,0,1,3.21-2.45,10.67,10.67,0,0,1,4.45-.91,8.84,8.84,0,0,1,6,1.92,7,7,0,0,1,2.26,5.3V97.4a12.51,12.51,0,0,0,.78,4.87v.33Zm-6.31-2.9a6.75,6.75,0,0,0,3.39-.92,5.59,5.59,0,0,0,2.32-2.41V91.81h-3q-7,0-7,4.09a3.46,3.46,0,0,0,1.19,2.79A4.56,4.56,0,0,0,301.43,99.7Z" style="fill:#221f1f"/><path d="M45.14,68.76A118,118,0,0,0,61.62,78a100.18,100.18,0,0,1,22.95-9.25,99.55,99.55,0,0,1-22.95-9.25A116,116,0,0,0,45.14,68.76Z" style="fill:none"/><path d="M110.36,48.88h0a77.1,77.1,0,0,1-25.07-4.17A122.17,122.17,0,0,0,62,52c2.5,1.5,5.08,2.9,7.72,4.18A116.46,116.46,0,0,1,110.36,48.88Z" style="fill:#fbb04c"/><path d="M61.62,59.51c-2.34-1.3-4.63-2.69-6.85-4.17A123.58,123.58,0,0,0,39.34,64.6q2.83,2.16,5.8,4.16A116,116,0,0,1,61.62,59.51Z" style="fill:#fbb04c"/><path d="M3.44,103.47l5.62,3.7A118.19,118.19,0,0,1,39.33,72.93c-1.91-1.34-3.77-2.72-5.6-4.16A124.82,124.82,0,0,0,3.44,103.47Z" style="fill:#fbb04c"/><path d="M42.33,129.09,48,132.81a70.8,70.8,0,0,1,62.4-37.44h0A123.92,123.92,0,0,1,85.3,92.82,77.9,77.9,0,0,0,42.33,129.09Z" style="fill:#fbb04c"/><path d="M85.3,92.82a123.92,123.92,0,0,0,25.06,2.55h38.5v8.19L162.61,92,148.86,80.45v8.19h-38.5a116.44,116.44,0,0,1-40.61-7.27C67.1,82.65,64.52,84,62,85.54A123,123,0,0,0,85.3,92.82Z" style="fill:#009edb"/><path d="M45.14,68.76q-3-2-5.8-4.16A118.19,118.19,0,0,1,7.76,28.08L2.13,31.79a125,125,0,0,0,31.6,37c1.83,1.44,3.69,2.82,5.6,4.16a124.48,124.48,0,0,0,15.45,9.25Q58.11,80,61.62,78A118,118,0,0,1,45.14,68.76Z" style="fill:#009edb"/><path d="M84.57,68.76a100.64,100.64,0,0,1,25.79-3.36h0a93.42,93.42,0,0,1-40.62-9.24C67.1,54.88,64.52,53.48,62,52A94.72,94.72,0,0,1,27.24,15.24L21.6,19A101.41,101.41,0,0,0,54.77,55.34c2.22,1.48,4.51,2.87,6.85,4.17A99.55,99.55,0,0,0,84.57,68.76Z" style="fill:#009edb"/><path d="M110.36,48.88h38.5v8.19l13.75-11.55L148.86,34v8.19h-38.5A70.84,70.84,0,0,1,46.76,2.38L41.11,6.1A77.86,77.86,0,0,0,85.29,44.71a77.1,77.1,0,0,0,25.07,4.17Z" style="fill:#009edb"/><path d="M162.61,68.76,148.86,57.21V65.4h-38.5A100.34,100.34,0,0,0,61.62,78q-3.51,2-6.84,4.17a101.5,101.5,0,0,0-31.91,34.09L28.5,120A94.68,94.68,0,0,1,62,85.54c2.5-1.51,5.08-2.89,7.73-4.17a93.38,93.38,0,0,1,40.61-9.24h38.5v8.19Z" style="fill:#fbb04c"/></svg>