<?xml version="1.0" encoding="utf-8"?>
<svg viewBox="0 0 426.21819 294.00001" xmlns="http://www.w3.org/2000/svg" xmlns:xlink="http://www.w3.org/1999/xlink">
  <defs>
    <linearGradient y1="36.501" x2="0" y2="22.958" gradientUnits="userSpaceOnUse" id="0">
      <stop id="stop130469" stop-color="#61bc2e"/>
      <stop id="stop130471" stop-color="#1e8d3e" offset="0.322"/>
      <stop id="stop130473" stop-color="#1e8d3e" offset="1"/>
    </linearGradient>
    <linearGradient y1="36.501" x2="0" y2="22.776" gradientUnits="userSpaceOnUse" id="1" xlink:href="#0"/>
    <linearGradient y1="36.32" x2="0" y2="22.958" gradientUnits="userSpaceOnUse" id="2" xlink:href="#0"/>
    <linearGradient y1="36.32" x2="0" y2="22.776" gradientUnits="userSpaceOnUse" id="3" xlink:href="#0"/>
    <radialGradient cx="0" cy="0" r="1" gradientUnits="userSpaceOnUse" gradientTransform="matrix(52.92607 14.33297 13.0987-53.169 56.05 108.31)" id="4">
      <stop id="stop130483" stop-color="#fab20b"/>
      <stop id="stop130485" stop-color="#fab20b" offset="0.18"/>
      <stop id="stop130487" stop-color="#5db82e" offset="0.467"/>
      <stop id="stop130489" stop-color="#5db82e" offset="0.476"/>
      <stop id="stop130491" stop-color="#177d35" offset="1"/>
    </radialGradient>
    <radialGradient cx="0" cy="0" r="1" gradientUnits="userSpaceOnUse" gradientTransform="matrix(52.92591 14.33293 13.0987-53.1689 56.05 108.31)" id="5" xlink:href="#4"/>
    <radialGradient cx="0" cy="0" r="1" gradientUnits="userSpaceOnUse" gradientTransform="matrix(.0047.00127.00116-.00472 43.979 67.65)" id="6" xlink:href="#4"/>
    <radialGradient cx="0" cy="0" r="1" gradientUnits="userSpaceOnUse" gradientTransform="matrix(.00473.00128.00117-.00475 43.731 67.64)" id="7" xlink:href="#4"/>
    <radialGradient cx="0" cy="0" r="1" gradientUnits="userSpaceOnUse" gradientTransform="matrix(.00471.00128.00117-.00473 43.484 67.62)" id="8" xlink:href="#4"/>
    <radialGradient cx="0" cy="0" r="1" gradientUnits="userSpaceOnUse" gradientTransform="matrix(.00475.00129.00118-.00478 43.24 67.61)" id="9" xlink:href="#4"/>
    <radialGradient cx="0" cy="0" r="1" gradientUnits="userSpaceOnUse" gradientTransform="matrix(52.92599 14.33295 13.0987-53.1689 56.05 108.31)" id="A" xlink:href="#4"/>
    <radialGradient cx="0" cy="0" r="1" gradientUnits="userSpaceOnUse" gradientTransform="matrix(52.92604 14.33296 13.0987-53.169 56.05 108.31)" id="B" xlink:href="#4"/>
    <radialGradient cx="0" cy="0" r="1" gradientUnits="userSpaceOnUse" gradientTransform="matrix(52.92605 14.33297 13.0987-53.169 56.05 108.31)" id="C" xlink:href="#4"/>
    <radialGradient cx="0" cy="0" r="1" gradientUnits="userSpaceOnUse" gradientTransform="matrix(52.92197 14.33186 13.0977-53.1649 56.05 108.31)" id="D" xlink:href="#4"/>
    <radialGradient cx="0" cy="0" r="1" gradientUnits="userSpaceOnUse" gradientTransform="matrix(52.92614 14.33299 13.0987-53.1691 56.05 108.31)" id="E" xlink:href="#4"/>
    <radialGradient cx="0" cy="0" r="1" gradientUnits="userSpaceOnUse" gradientTransform="matrix(.00365.00099.0009-.00367 45.582 57.11)" id="F" xlink:href="#4"/>
    <radialGradient cx="0" cy="0" r="1" gradientUnits="userSpaceOnUse" gradientTransform="matrix(52.93329 14.30627 13.0719-53.1756 56.05 108.31)" id="G">
      <stop id="stop130497" stop-color="#f9a70d"/>
      <stop id="stop130499" stop-color="#f9a70d" offset="0.15"/>
      <stop id="stop130501" stop-color="#5cb82f" offset="0.466"/>
      <stop id="stop130503" stop-color="#5cb82f" offset="0.476"/>
      <stop id="stop130505" stop-color="#177d35" offset="1"/>
    </radialGradient>
  </defs>
  <g id="g130508" transform="matrix(0.7407299876213074, 0, 0, 0.7407299876213074, 524.2454833984374, -444.27420043945307)">
    <g id="g130510" fill="#394863" transform="matrix(1, 0, 0, 1, 292.639191, -242.974579)">
      <path id="path130512" d="m-592.55 1128.77c.919 0 1.698.32 2.349.972.654.651.971 1.429.971 2.352 0 .919-.317 1.698-.971 2.362-.651.651-1.429.985-2.349.985-.922 0-1.701-.333-2.352-.985-.651-.664-.971-1.442-.971-2.362 0-.922.321-1.701.971-2.352.651-.651 1.429-.972 2.352-.972"/>
      <path id="path130514" d="m-721.74 1115.25l-1.495 3.794c-1.407-1.033-3.644-1.557-6.683-1.557-2.849 0-5.139 1.227-6.863 3.68-1.711 2.453-2.581 5.61-2.581 9.479 0 3.693.88 6.682 2.643 8.982 1.776 2.3 4.053 3.451 6.836 3.451 3.055 0 5.394-1.073 7.03-3.232l2.44 3.385c-2.568 2.555-5.891 3.834-9.927 3.834-4.242 0-7.579-1.534-10.02-4.589-2.44-3.052-3.654-7.091-3.654-12.1 0-4.841 1.302-8.868 3.896-12.06 2.607-3.209 5.97-4.818 10.08-4.818 3.529 0 6.287.589 8.295 1.75"/>
      <path id="path130516" d="m-707.69 1130.01c0 3.719.743 6.823 2.211 9.325 1.469 2.492 3.539 3.745 6.212 3.745 3.03 0 5.342-1.151 6.925-3.438 1.583-2.287 2.375-5.496 2.375-9.633 0-8.358-3.091-12.534-9.299-12.534-2.748 0-4.831 1.125-6.274 3.359-1.433 2.251-2.149 5.302-2.149 9.175m-4.648 0c0-4.704 1.174-8.626 3.539-11.782 2.349-3.167 5.531-4.753 9.532-4.753 4.511 0 7.958 1.456 10.363 4.37 2.401 2.915 3.588 6.964 3.588 12.165 0 5.328-1.2 9.506-3.601 12.521-2.417 3.03-5.865 4.537-10.349 4.537-4.089 0-7.298-1.599-9.61-4.792-2.3-3.183-3.461-7.272-3.461-12.266"/>
      <path id="path130518" d="m-671.24 1118.05v11.985c1.878.142 2.862.213 2.964.213 5.495 0 8.243-2.159 8.243-6.489 0-3.961-2.928-5.944-8.792-5.944-.586 0-1.39.079-2.414.233m0 15.969v12.498h-4.432v-32.455c3.359-.153 5.378-.23 6.068-.23 9.43 0 14.13 3.153 14.13 9.466 0 7.297-4.151 10.938-12.482 10.938-.51 0-1.596-.079-3.284-.219"/>
      <path id="path130520" d="m-648.26 1146.52v-.896l10.173-15.573c2.133-3.261 3.192-6.03 3.192-8.308 0-3-1.698-4.498-5.07-4.498-1.204 0-2.326.32-3.376.949-1.047.625-1.812 1.416-2.273 2.375l-2.862-2.339c.497-1.456 1.482-2.607 2.964-3.461 1.472-.858 3.245-1.279 5.315-1.279 3.117 0 5.561.716 7.311 2.159 1.763 1.433 2.643 3.464 2.643 6.094 0 2.443-1.174 5.508-3.5 9.214l-7.285 11.576h12.714v3.988h-19.947"/>
      <path id="path130522" d="m-613.41 1146.52v-24.879l-6.607 4.115v-4.141c1.675-.84 3.451-2.01 5.328-3.474 1.878-1.482 3.336-2.888 4.37-4.216h1.341v32.596h-4.432"/>
      <path id="path130524" d="m-555.18 1115.25l-1.495 3.794c-1.403-1.033-3.641-1.557-6.683-1.557-2.849 0-5.135 1.227-6.859 3.68-1.714 2.453-2.581 5.61-2.581 9.479 0 3.693.88 6.682 2.643 8.982 1.776 2.3 4.053 3.451 6.836 3.451 3.055 0 5.394-1.073 7.03-3.232l2.44 3.385c-2.568 2.555-5.878 3.834-9.927 3.834-4.242 0-7.579-1.534-10.02-4.589-2.427-3.052-3.654-7.091-3.654-12.1 0-4.841 1.302-8.868 3.896-12.06 2.607-3.209 5.97-4.818 10.08-4.818 3.526 0 6.287.589 8.292 1.75"/>
      <path id="path130526" d="m-519.78 1146.52l-3.86-20.853-7.092 21.287h-1.099l-7.294-21.287-3.758 20.853h-4.216l6.071-32.455h2.02l7.729 23.676 7.144-23.676h1.979l6.581 32.455h-4.203"/>
      <path id="path130528" d="m-503.06 1118.05v11.985c1.864.142 2.862.213 2.964.213 5.495 0 8.243-2.159 8.243-6.489 0-3.961-2.928-5.944-8.792-5.944-.599 0-1.39.079-2.414.233m0 15.969v12.498h-4.432v-32.455c3.346-.153 5.378-.23 6.068-.23 9.417 0 14.13 3.153 14.13 9.466 0 7.297-4.164 10.938-12.495 10.938-.497 0-1.596-.079-3.271-.219"/>
      <path id="path130530" d="m-471.65 1146.52v-24.879l-6.607 4.115v-4.141c1.675-.84 3.451-2.01 5.328-3.474 1.878-1.482 3.346-2.888 4.383-4.216h1.328v32.596h-4.432"/>
      <path id="path130532" d="m-448.45 1146.52v-24.879l-6.591 4.115v-4.141c1.662-.84 3.438-2.01 5.328-3.474 1.878-1.482 3.333-2.888 4.37-4.216h1.328v32.596h-4.435"/>
      <path id="path130534" d="m-738.07 1033.8v16.07c2.519.189 3.847.294 3.987.294 7.36 0 11.05-2.902 11.05-8.701 0-5.315-3.935-7.962-11.792-7.962-.795 0-1.881.09-3.248.295m0 21.415v16.764h-5.94v-43.534c4.498-.194 7.206-.294 8.138-.294 12.639 0 18.962 4.229 18.962 12.688 0 9.787-5.584 14.681-16.764 14.681-.664 0-2.133-.101-4.396-.304"/>
      <path id="path130536" d="m-695.18 1039.27l-6.748 19.16h12.93l-6.182-19.16m10.873 32.71l-3-9.188h-16.188l-3.209 9.188h-6.657l17.683-44.12h1.573l16.394 44.12h-6.594"/>
      <path id="path130538" d="m-661.55 1033.8v14.14c1.42.194 2.81.294 4.151.294 3.565 0 6.159-.576 7.782-1.727 1.635-1.148 2.44-3.193 2.44-6.143 0-2.444-.867-4.194-2.604-5.266-1.753-1.06-4.498-1.597-8.269-1.597-.586 0-1.763.09-3.5.295m17.915 38.18l-11.615-18.694c-1.331 0-3.425-.101-6.3-.294v18.988h-5.94v-43.534c.216 0 1.75-.077 4.612-.213 2.862-.153 4.942-.233 6.261-.233 10.451 0 15.691 4.167 15.691 12.486 0 2.735-.844 5.201-2.532 7.386-1.685 2.185-3.693 3.549-6.01 4.089l12.626 20.02h-6.797z"/>
      <path id="path130540" d="m-626.29 1028.44h5.94v43.534h-5.94v-43.534"/>
      <path id="path130542" d="m-607.82 1069.98l2.159-5.469c1.112.818 2.493 1.495 4.151 2.031 1.649.549 3.13.818 4.435.818 2.326 0 4.19-.625 5.597-1.904 1.407-1.263 2.107-2.872 2.107-4.828 0-1.469-.396-2.836-1.174-4.089-.779-1.266-2.748-2.633-5.904-4.115l-3.5-1.636c-2.977-1.393-5.05-3.03-6.221-4.932-1.178-1.904-1.776-4.19-1.776-6.859 0-3.258 1.148-5.944 3.448-8.089 2.3-2.133 5.253-3.209 8.855-3.209 4.818 0 8.164.782 10.05 2.352l-1.75 5.162c-.795-.572-2.01-1.122-3.631-1.659-1.622-.54-3.13-.808-4.511-.808-2.02 0-3.614.589-4.766 1.727-1.161 1.148-1.75 2.63-1.75 4.432 0 1.112.216 2.123.625 3.03.422.906.998 1.675 1.74 2.286.739.615 2.26 1.469 4.56 2.581l3.565 1.701c2.977 1.406 5.06 3.078 6.261 5.03 1.2 1.956 1.789 4.432 1.789 7.435 0 3.271-1.302 6.04-3.935 8.331-2.62 2.276-6.133 3.412-10.529 3.412-3.86 0-7.154-.906-9.888-2.735"/>
    </g>
    <path id="path130544" transform="matrix(3.2709999084472656, 0, 0, -3.2709999084472656, -451.3708192929249, 904.0953703874475)" fill="url(#0)" d="m52.828 35.973c-.601-.352-1.01-.824-1.215-1.414l1.172-.965c.195.395.508.719.938.977.429.257.89.386 1.379.386 1.386 0 2.082-.613 2.082-1.843 0-.934-.438-2.071-1.309-3.407l-4.168-6.386v-.364h8.176v1.637h-5.215l2.988 4.738c.957 1.524 1.434 2.782 1.434 3.782 0 1.078-.36 1.91-1.082 2.5-.719.593-1.719.886-2.996.886-.856 0-1.582-.175-2.184-.527"/>
    <path id="path130546" transform="matrix(3.2709999084472656, 0, 0, -3.2709999084472656, -451.3708192929249, 904.0953703874475)" fill="url(#1)" d="m63.793 34.696c-.773-1.207-1.164-2.766-1.164-4.68 0-2.828.367-4.742 1.098-5.742.726-.996 1.796-1.496 3.211-1.496 1.41 0 2.48.617 3.214 1.855.731 1.238 1.098 2.938 1.098 5.094 0 2.504-.352 4.262-1.051 5.266-.695 1.01-1.742 1.507-3.136 1.507-1.407 0-2.493-.601-3.27-1.804m.652-4.844c0 3.402.86 5.105 2.575 5.105.554 0 1.015-.172 1.378-.507.364-.34.625-.84.79-1.5.164-.661.246-1.696.246-3.106 0-2.047-.211-3.48-.637-4.297-.422-.816-1.086-1.226-1.988-1.226-1.575 0-2.364 1.843-2.364 5.531"/>
    <path id="path130548" transform="matrix(3.2709999084472656, 0, 0, -3.2709999084472656, -451.3708192929249, 904.0953703874475)" fill="url(#2)" d="m78.75 36.32c-.426-.547-1.024-1.121-1.793-1.727-.773-.605-1.504-1.082-2.188-1.426v-1.699l2.707 1.688v-10.2h1.817v13.364h-.543"/>
    <path id="path130550" transform="matrix(3.2709999084472656, 0, 0, -3.2709999084472656, -451.3708192929249, 904.0953703874475)" fill="url(#3)" d="m84.48 36.32v-6.442l.617-.426c.648.696 1.375 1.043 2.187 1.043 1.684 0 2.528-.992 2.528-2.98 0-2.129-.856-3.195-2.563-3.195-.762 0-1.555.336-2.379 1.01l-.699-1.515c.816-.692 1.848-1.035 3.086-1.035 2.976 0 4.461 1.668 4.461 5 0 1.363-.324 2.414-.977 3.152-.652.738-1.593 1.105-2.828 1.105-.691 0-1.262-.164-1.711-.496v3.231h4.899v1.547h-6.621"/>
    <g id="g130552" fill="#394863" transform="matrix(0.9999999999999999, 0, 0, 0.9999999999999999, 292.6391904727001, -242.97457590161522)">
      <path id="path130554" d="m-744.01 1087.16h1.622v8.141c0 .726.229 1.328.69 1.799.461.461 1.073.704 1.828.704.805 0 1.429-.227 1.891-.69.471-.445.69-1.073.69-1.852v-8.102h1.635v8.282c0 1.201-.383 2.133-1.138 2.81-.743.677-1.763 1.01-3.065 1.01-1.331 0-2.352-.331-3.068-.981-.729-.664-1.086-1.609-1.086-2.849v-8.269"/>
      <path id="path130556" d="m-723.87 1099.22l-6.146-8.701v8.534h-1.544v-11.897h.651l5.992 8.23v-8.23h1.534v12.06h-.487"/>
      <path id="path130558" d="m-705.01 1087.59l-.536 1.393c-.523-.382-1.341-.563-2.453-.563-1.047 0-1.891.448-2.519 1.341-.638.896-.945 2.057-.945 3.477 0 1.354.321 2.453.971 3.294.638.844 1.482 1.266 2.506 1.266 1.112 0 1.966-.396 2.568-1.188l.893 1.24c-.945.932-2.159 1.403-3.641 1.403-1.547 0-2.774-.559-3.667-1.671-.893-1.125-1.341-2.607-1.341-4.448 0-1.776.471-3.245 1.429-4.419.958-1.178 2.185-1.763 3.693-1.763 1.305 0 2.313.216 3.042.638"/>
      <path id="path130560" d="m-700.99 1099.05v-11.897h1.622v10.441h5.368v1.455h-6.99"/>
      <path id="path130562" d="m-690.63 1087.16h1.622v11.897h-1.622v-11.897"/>
      <path id="path130564" d="m-675.66 1099.05l-1.407-7.641-2.607 7.808h-.396l-2.682-7.808-1.38 7.641h-1.534l2.224-11.897h.739l2.823 8.691 2.62-8.691h.729l2.414 11.897h-1.544"/>
      <path id="path130566" d="m-667.37 1090.11l-1.842 5.237h3.526l-1.685-5.237m2.977 8.943l-.818-2.505h-4.435l-.867 2.505h-1.828l4.844-12.06h.422l4.485 12.06h-1.802"/>
      <path id="path130568" d="m-656.96 1088.62v10.438h-1.622v-10.438h-3.781v-1.459h9.365v1.459h-3.961"/>
      <path id="path130570" d="m-648.35 1088.62v3.307h3.922v1.38h-3.922v4.295h5.394v1.455h-7.02v-11.897h7.105v1.459h-5.482"/>
      <path id="path130572" d="m-625.13 1087.59l-.55 1.393c-.51-.382-1.328-.563-2.453-.563-1.05 0-1.878.448-2.519 1.341-.625.896-.945 2.057-.945 3.477 0 1.354.334 2.453.971 3.294.651.844 1.482 1.266 2.519 1.266 1.109 0 1.966-.396 2.568-1.188l.893 1.24c-.945.932-2.159 1.403-3.641 1.403-1.547 0-2.774-.559-3.667-1.671-.896-1.125-1.341-2.607-1.341-4.448 0-1.776.471-3.245 1.429-4.419.945-1.178 2.185-1.763 3.693-1.763 1.292 0 2.313.216 3.042.638"/>
      <path id="path130574" d="m-614.3 1099.05v-5.751h-5.201v5.751h-1.622v-11.897h1.622v4.766h5.201v-4.766h1.622v11.897h-1.622"/>
      <path id="path130576" d="m-604.79 1090.11l-1.842 5.237h3.539l-1.698-5.237m2.977 8.943l-.818-2.505h-4.435l-.867 2.505h-1.828l4.841-12.06h.422l4.485 12.06h-1.799"/>
      <path id="path130578" d="m-589.4 1099.22l-6.146-8.701v8.534h-1.547v-11.897h.651l5.992 8.23v-8.23h1.534v12.06h-.484"/>
      <path id="path130580" d="m-576.58 1087.99l-.667 1.341c-.818-.611-1.622-.919-2.401-.919-1.253 0-2.237.448-2.95 1.315-.716.883-1.086 2.044-1.086 3.49 0 1.38.357 2.479 1.06 3.32.703.844 1.675 1.266 2.888 1.266.867 0 1.57-.268 2.107-.778v-2.8h-1.649v-1.377h3.271v5.185c-.435.373-1.034.667-1.812.896-.782.216-1.521.331-2.264.331-1.636 0-2.924-.559-3.883-1.671-.945-1.112-1.42-2.594-1.42-4.436 0-1.838.51-3.333 1.56-4.471 1.047-1.148 2.453-1.724 4.216-1.724 1.24 0 2.247.343 3.03 1.033"/>
      <path id="path130582" d="m-570.28 1088.62v3.307h3.935v1.38h-3.935v4.295h5.394v1.455h-7.02v-11.897h7.105v1.459h-5.482"/>
      <path id="path130584" d="m-547.06 1087.59l-.55 1.393c-.51-.382-1.328-.563-2.453-.563-1.047 0-1.878.448-2.506 1.341-.638.896-.945 2.057-.945 3.477 0 1.354.321 2.453.971 3.294.638.844 1.482 1.266 2.506 1.266 1.112 0 1.966-.396 2.568-1.188l.893 1.24c-.945.932-2.159 1.403-3.641 1.403-1.547 0-2.774-.559-3.667-1.671-.893-1.125-1.341-2.607-1.341-4.448 0-1.776.471-3.245 1.429-4.419.958-1.178 2.185-1.763 3.693-1.763 1.292 0 2.313.216 3.042.638"/>
      <path id="path130586" d="m-541.91 1093.01c0 1.354.268 2.492.818 3.411.536.922 1.292 1.381 2.273 1.381 1.112 0 1.956-.422 2.545-1.266.576-.841.867-2.02.867-3.526 0-3.065-1.135-4.599-3.412-4.599-1.01 0-1.773.409-2.3 1.227-.523.831-.792 1.956-.792 3.372m-1.698 0c0-1.724.432-3.167 1.289-4.331.87-1.148 2.031-1.737 3.5-1.737 1.649 0 2.914.536 3.798 1.609.88 1.06 1.315 2.541 1.315 4.458 0 1.943-.435 3.49-1.315 4.589-.883 1.112-2.149 1.658-3.798 1.658-1.495 0-2.669-.585-3.526-1.75-.841-1.174-1.263-2.669-1.263-4.497"/>
      <path id="path130588" d="m-522.48 1099.22l-6.159-8.701v8.534h-1.534v-11.897h.651l5.979 8.23v-8.23h1.547v12.06h-.484"/>
      <path id="path130590" d="m-516.27 1088.62v3.307h4.177v1.38h-4.177v5.751h-1.622v-11.897h7.347v1.459h-5.724"/>
      <path id="path130592" d="m-505.88 1088.62v3.307h3.935v1.38h-3.935v4.295h5.391v1.455h-7.01v-11.897h7.105v1.459h-5.482"/>
      <path id="path130594" d="m-495.22 1088.62v3.87c.396.052.765.079 1.135.079.971 0 1.688-.153 2.136-.474.432-.308.664-.87.664-1.675 0-.664-.242-1.148-.716-1.443-.484-.294-1.227-.435-2.26-.435-.167 0-.474.027-.958.079m4.893 10.438l-3.17-5.112c-.357 0-.932-.027-1.724-.077v5.188h-1.622v-11.897c.062 0 .484-.027 1.263-.063.782-.038 1.354-.066 1.714-.066 2.849 0 4.278 1.139 4.278 3.412 0 .755-.229 1.419-.69 2.02-.458.602-1.01.972-1.635 1.125l3.451 5.469h-1.864z"/>
      <path id="path130596" d="m-483.95 1088.62v3.307h3.922v1.38h-3.922v4.295h5.391v1.455h-7.03v-11.897h7.118v1.459h-5.482"/>
      <path id="path130598" d="m-467.32 1099.22l-6.146-8.701v8.534h-1.547v-11.897h.654l5.979 8.23v-8.23h1.544v12.06h-.484"/>
      <path id="path130600" d="m-455.14 1087.59l-.54 1.393c-.523-.382-1.341-.563-2.453-.563-1.047 0-1.891.448-2.515 1.341-.625.896-.945 2.057-.945 3.477 0 1.354.321 2.453.971 3.294.651.844 1.482 1.266 2.502 1.266 1.112 0 1.969-.396 2.581-1.188l.883 1.24c-.932.932-2.146 1.403-3.628 1.403-1.56 0-2.787-.559-3.68-1.671-.896-1.125-1.331-2.607-1.331-4.448 0-1.776.474-3.245 1.42-4.419.958-1.178 2.185-1.763 3.693-1.763 1.302 0 2.313.216 3.042.638"/>
      <path id="path130602" d="m-449.49 1088.62v3.307h3.935v1.38h-3.935v4.295h5.394v1.455h-7.02v-11.897h7.105v1.459h-5.482"/>
    </g>
    <g id="g130604" fill="url(#4)">
      <path id="path130606" transform="matrix(3.271 0 0-3.271-744.01 1147.07)" d="m45.32 67.821c.135-.228.17.232 0 0"/>
      <path id="path130608" transform="matrix(3.271 0 0-3.271-744.01 1147.07)" d="m45.39 68.12c.071-.211.058.023 0 0"/>
      <path id="path130610" transform="matrix(3.271 0 0-3.271-744.01 1147.07)" d="m45.28 69.45c.149-.982.853.38 0 0"/>
      <path id="path130612" transform="matrix(3.271 0 0-3.271-744.01 1147.07)" d="m45.47 67.961c.131-.221.153.22 0 0"/>
      <path id="path130614" transform="matrix(3.271 0 0-3.271-744.01 1147.07)" d="m45.641 68.13c-.13-.173.219.008 0 0"/>
      <path id="path130616" transform="matrix(3.271 0 0-3.271-744.01 1147.07)" d="m45.566 67.832c.131-.221.155.22 0 0"/>
      <path id="path130618" transform="matrix(3.271 0 0-3.271-744.01 1147.07)" d="m45.23 68.25c.769-.185.154.823 0 0"/>
      <path id="path130620" transform="matrix(3.271 0 0-3.271-744.01 1147.07)" d="m45.11 68.39c.535.622-.272 1.35 0 0"/>
      <path id="path130622" transform="matrix(3.271 0 0-3.271-744.01 1147.07)" d="m45.578 68.852c.352-1.3.395 1.319 0 0"/>
      <path id="path130624" transform="matrix(3.271 0 0-3.271-744.01 1147.07)" d="m45.22 67.946c.151-.221.156.241 0 0"/>
      <path id="path130626" transform="matrix(3.271 0 0-3.271-744.01 1147.07)" d="m45.15 68.1c-.137-.249.294.077 0 0"/>
      <path id="path130628" transform="matrix(3.271 0 0-3.271-744.01 1147.07)" d="m45.47 67.73c.092-.051.011.075 0 0"/>
      <path id="path130630" transform="matrix(3.271 0 0-3.271-744.01 1147.07)" d="m45.22 67.72c.093-.017.008.042 0 0"/>
      <path id="path130632" transform="matrix(3.271 0 0-3.271-744.01 1147.07)" d="m45.29 67.51c.581-.904.783.242 0 0"/>
      <path id="path130634" transform="matrix(3.271 0 0-3.271-744.01 1147.07)" d="m45.22 63.57c1.026-.237.613 1.137 0 0"/>
      <path id="path130636" transform="matrix(3.271 0 0-3.271-744.01 1147.07)" d="m45.31 65.785c.755-.146.512.867 0 0"/>
      <path id="path130638" transform="matrix(3.271 0 0-3.271-744.01 1147.07)" d="m45.715 67.75c.055-.034.013.064 0 0"/>
      <path id="path130640" transform="matrix(3.271 0 0-3.271-744.01 1147.07)" d="m45.09 67.825c.006-.279.237.157 0 0"/>
      <path id="path130642" transform="matrix(3.271 0 0-3.271-744.01 1147.07)" d="m45.961 65.5c-.518-1.628 1.638.604.116.007l-.113-.007h-.003"/>
      <path id="path130644" transform="matrix(3.271 0 0-3.271-744.01 1147.07)" d="m46.18 66.69c.906-1.547.869 1.51.049.05l-.049-.05"/>
      <path id="path130646" transform="matrix(3.271 0 0-3.271-744.01 1147.07)" d="m46.05 63.62c1.823-.447-.737 1.542 0 0"/>
      <path id="path130648" transform="matrix(3.271 0 0-3.271-744.01 1147.07)" d="m46.15 71.782c.971-1.291.979 1.398.104.088l-.086-.073-.018-.015"/>
      <path id="path130650" transform="matrix(3.271 0 0-3.271-744.01 1147.07)" d="m45.05 65.918c1.214.343-.119 2.025.014.649l-.007-.325-.007-.319"/>
      <path id="path130652" transform="matrix(3.271 0 0-3.271-744.01 1147.07)" d="m45.29 71.06c.556.082 2.053-.093.885.459-.276.357-.618-.368-.885-.459"/>
      <path id="path130654" transform="matrix(3.271 0 0-3.271-744.01 1147.07)" d="m45.22 63.25c.937-1.089.988.307 0 0"/>
      <path id="path130656" transform="matrix(3.271 0 0-3.271-744.01 1147.07)" d="m45.41 72.59c.697.04 1.806-.091.794.661-.177.362-.603-.581-.794-.661"/>
      <path id="path130658" transform="matrix(3.271 0 0-3.271-744.01 1147.07)" d="m45.18 76.73c.436.251-.043.929 0 0"/>
      <path id="path130660" transform="matrix(3.271 0 0-3.271-744.01 1147.07)" d="m45.25 72.66c.597.519.892 1.033.105 1.532-.037-.51-.073-1.021-.105-1.532"/>
      <path id="path130662" transform="matrix(3.271 0 0-3.271-744.01 1147.07)" d="m45.26 72.38c.323-.87 1.802.001 1.098.063-.366-.021-.732-.042-1.098-.063"/>
      <path id="path130664" transform="matrix(3.271 0 0-3.271-744.01 1147.07)" d="m45.707 67.969c.054-.187.086.173 0 0"/>
      <path id="path130666" transform="matrix(3.271 0 0-3.271-744.01 1147.07)" d="m45.23 65.46c.674-.949.95.164 0 0"/>
    </g>
    <path id="path130668" transform="matrix(3.2709999084472656, 0, 0, -3.2709999084472656, -451.3708192929249, 904.0953703874475)" fill="url(#5)" d="m45.03 63.77c.665.479.929.957.044 1.36-.077-.272-.034-.944-.044-1.36"/>
    <g id="g130670" fill="url(#4)">
      <path id="path130672" transform="matrix(3.271 0 0-3.271-744.01 1147.07)" d="m45.18 71.18c1.431.574-.474 1.687 0 0"/>
      <path id="path130674" transform="matrix(3.271 0 0-3.271-744.01 1147.07)" d="m44.844 74.64c.607-.054-.106 1.147.012.079l-.012-.079"/>
      <path id="path130676" transform="matrix(3.271 0 0-3.271-744.01 1147.07)" d="m44.809 74.43c-.549-1.326.8.263 0 0"/>
      <path id="path130678" transform="matrix(3.271 0 0-3.271-744.01 1147.07)" d="m46.13 68.16c.119-.174-.022-.005 0 0"/>
      <path id="path130680" transform="matrix(3.271 0 0-3.271-744.01 1147.07)" d="m44.75 71.02c.235-.097-.07.208 0 0"/>
      <path id="path130682" transform="matrix(3.271 0 0-3.271-744.01 1147.07)" d="m44.969 72.37c-.032-.073.068.021 0 0"/>
      <path id="path130684" transform="matrix(3.271 0 0-3.271-744.01 1147.07)" d="m44.5 72.54c.779.096-.157 1.236 0 0"/>
      <path id="path130686" transform="matrix(3.271 0 0-3.271-744.01 1147.07)" d="m45.13 60.727c-.079-.272.419-.024 0 0"/>
      <path id="path130688" transform="matrix(3.271 0 0-3.271-744.01 1147.07)" d="m44.934 72.15c-.31-1.04.17-1.523 0 0"/>
      <path id="path130690" transform="matrix(3.271 0 0-3.271-744.01 1147.07)" d="m44.672 73.58c.163-1.435.618 1.054.194.257-.065-.086-.129-.171-.194-.257"/>
      <path id="path130692" transform="matrix(3.271 0 0-3.271-744.01 1147.07)" d="m45.15 76.53c-.461-1.255.494.048 0 0"/>
      <path id="path130694" transform="matrix(3.271 0 0-3.271-744.01 1147.07)" d="m45.01 75.64c.155-1.685.545 1.274 0 0"/>
      <path id="path130696" transform="matrix(3.271 0 0-3.271-744.01 1147.07)" d="m46.5 68.907c.384-1.45.45 1.336.006.011l-.006-.011"/>
      <path id="path130698" transform="matrix(3.271 0 0-3.271-744.01 1147.07)" d="m45.855 83.9c-.768-3.056.745.942 0 0"/>
      <path id="path130700" transform="matrix(3.271 0 0-3.271-744.01 1147.07)" d="m45.867 85.42c.065-.222.106.251 0 0"/>
      <path id="path130702" transform="matrix(3.271 0 0-3.271-744.01 1147.07)" d="m45.926 84.34c-.253-.512.397.197 0 0"/>
      <path id="path130704" transform="matrix(3.271 0 0-3.271-744.01 1147.07)" d="m45.648 82.63c.48.012-.104.716 0 0"/>
      <path id="path130706" transform="matrix(3.271 0 0-3.271-744.01 1147.07)" d="m45.563 82.1c-.232-.879-.12-1.8.113-.222.326.756.035.354-.113.222"/>
      <path id="path130708" transform="matrix(3.271 0 0-3.271-744.01 1147.07)" d="m45.23 61.35c1.353-.273.84 1.332 0 0"/>
      <path id="path130710" transform="matrix(3.271 0 0-3.271-744.01 1147.07)" d="m45.535 83.57c.09-.337.166.374 0 0"/>
      <path id="path130712" transform="matrix(3.271 0 0-3.271-744.01 1147.07)" d="m46.617 68.19c-.127-.135.158-.108 0 0"/>
      <path id="path130714" transform="matrix(3.271 0 0-3.271-744.01 1147.07)" d="m45.613 82.43l-.011-.078.082.078h-.071"/>
      <path id="path130716" transform="matrix(3.271 0 0-3.271-744.01 1147.07)" d="m46.68 68.02c.031-.424.208.307 0 0"/>
      <path id="path130718" transform="matrix(3.271 0 0-3.271-744.01 1147.07)" d="m46.16 68.3c.768-.184.156.816 0 0"/>
      <path id="path130720" transform="matrix(3.271 0 0-3.271-744.01 1147.07)" d="m45.992 68.36c.594.765-.186 1.396 0 0"/>
      <path id="path130722" transform="matrix(3.271 0 0-3.271-744.01 1147.07)" d="m46.37 68.17c-.156-.246.307.072 0 0"/>
      <path id="path130724" transform="matrix(3.271 0 0-3.271-744.01 1147.07)" d="m46.21 69.5c.141-.992.836.382 0 0"/>
      <path id="path130726" transform="matrix(3.271 0 0-3.271-744.01 1147.07)" d="m46.547 67.887c.151-.261.146.231 0 0"/>
      <path id="path130728" transform="matrix(3.271 0 0-3.271-744.01 1147.07)" d="m45.996 68.03c-.085-.183.177.027 0 0"/>
      <path id="path130730" transform="matrix(3.271 0 0-3.271-744.01 1147.07)" d="m45.969 67.782c.018-.084.047.033 0 0"/>
      <path id="path130732" transform="matrix(3.271 0 0-3.271-744.01 1147.07)" d="m46.3 67.875c.146-.236.152.249 0 0"/>
      <path id="path130734" transform="matrix(3.271 0 0-3.271-744.01 1147.07)" d="m45.949 66.43c-.249-1.01 1.291-.734 0 0"/>
      <path id="path130736" transform="matrix(3.271 0 0-3.271-744.01 1147.07)" d="m46.45 67.789c.088-.054.018.082 0 0"/>
      <path id="path130738" transform="matrix(3.271 0 0-3.271-744.01 1147.07)" d="m46.45 68.02c.13-.229.147.232 0 0"/>
      <path id="path130740" transform="matrix(3.271 0 0-3.271-744.01 1147.07)" d="m46.05 67.86c.139-.231.166.243 0 0"/>
      <path id="path130742" transform="matrix(3.271 0 0-3.271-744.01 1147.07)" d="m45.961 67.55c-.528-1.512 1.416.569 0-.004v.004"/>
      <path id="path130744" transform="matrix(3.271 0 0-3.271-744.01 1147.07)" d="m46.2 68c.136-.224.167.232 0 0"/>
      <path id="path130746" transform="matrix(3.271 0 0-3.271-744.01 1147.07)" d="m45.36 77.83c-.073-1.077.331.629 0 0"/>
      <path id="path130748" transform="matrix(3.271 0 0-3.271-744.01 1147.07)" d="m46.2 67.778c.094-.022.005.051 0 0"/>
      <path id="path130750" transform="matrix(3.271 0 0-3.271-744.01 1147.07)" d="m44.06 69.39c.243-.87 1.427.423 0 0"/>
      <path id="path130752" transform="matrix(3.271 0 0-3.271-744.01 1147.07)" d="m44.48 68.86c.555-1.302.678 1.248 0 0"/>
      <path id="path130754" transform="matrix(3.271 0 0-3.271-744.01 1147.07)" d="m44.805 67.789c.094-.272.102.253 0 0"/>
      <path id="path130756" transform="matrix(3.271 0 0-3.271-744.01 1147.07)" d="m44.586 57.05c.421-1.203.759 1.264.084.082l-.081-.079-.003-.003"/>
      <path id="path130758" transform="matrix(3.271 0 0-3.271-744.01 1147.07)" d="m44.875 68.09c-.051-.006.035-.068 0 0"/>
      <path id="path130760" transform="matrix(3.271 0 0-3.271-744.01 1147.07)" d="m44.656 57.645c-.457-.889.797.351 0 0"/>
      <path id="path130762" transform="matrix(3.271 0 0-3.271-744.01 1147.07)" d="m45.3 61.03c.98-.869 1.1.316 0 0"/>
      <path id="path130764" transform="matrix(3.271 0 0-3.271-744.01 1147.07)" d="m45.727 60.4c-.608-1.193.884-.025 0 0"/>
      <path id="path130766" transform="matrix(3.271 0 0-3.271-744.01 1147.07)" d="m45.711 59.52c1-.224.678.944 0 0"/>
      <path id="path130768" transform="matrix(3.271 0 0-3.271-744.01 1147.07)" d="m45.09 61.59c.787.494.852.949-.036 1.352-.001-.411.017-.906.032-1.352"/>
      <path id="path130770" transform="matrix(3.271 0 0-3.271-744.01 1147.07)" d="m45.16 60.37c-.343-2.258.971.339 0 0"/>
      <path id="path130772" transform="matrix(3.271 0 0-3.271-744.01 1147.07)" d="m44.07 67.743c.132-.217.161.239 0 0"/>
      <path id="path130774" transform="matrix(3.271 0 0-3.271-744.01 1147.07)" d="m44.15 68.04c-.089-.237.257.049 0 0"/>
      <path id="path130776" transform="matrix(3.271 0 0-3.271-744.01 1147.07)" d="m44.629 68.07c-.116-.236.284.083 0 0"/>
      <path id="path130778" transform="matrix(3.271 0 0-3.271-744.01 1147.07)" d="m43.898 68.03c-.141-.236.283.036 0 0"/>
      <path id="path130780" transform="matrix(3.271 0 0-3.271-744.01 1147.07)" d="m44.22 67.883c.134-.209.149.238 0 0"/>
      <path id="path130782" transform="matrix(3.271 0 0-3.271-744.01 1147.07)" d="m44.21 67.66c.094-.003.006.025 0 0"/>
      <path id="path130784" transform="matrix(3.271 0 0-3.271-744.01 1147.07)" d="m44.559 67.778c.117-.245.191.24 0 0"/>
      <path id="path130786" transform="matrix(3.271 0 0-3.271-744.01 1147.07)" d="m44.39 68.06c-.112-.228.26.047 0 0"/>
      <path id="path130788" transform="matrix(3.271 0 0-3.271-744.01 1147.07)" d="m44.31 67.762c.131-.229.163.243 0 0"/>
      <path id="path130790" transform="matrix(3.271 0 0-3.271-744.01 1147.07)" d="m46.508 59.653c.574-.411-.231 1.026 0 0"/>
      <path id="path130792" transform="matrix(3.271 0 0-3.271-744.01 1147.07)" d="m47.16 56.37c-.02-.405.358.073 0 0"/>
      <path id="path130794" transform="matrix(3.271 0 0-3.271-744.01 1147.07)" d="m46.547 55.43c1.01-.848 1.019.233 0 0"/>
      <path id="path130796" transform="matrix(3.271 0 0-3.271-744.01 1147.07)" d="m46.4 55.805c.411-.269.364.383 0 0"/>
      <path id="path130798" transform="matrix(3.271 0 0-3.271-744.01 1147.07)" d="m46.4 56.672c.809.658-.072 1.489 0 0"/>
      <path id="path130800" transform="matrix(3.271 0 0-3.271-744.01 1147.07)" d="m46.871 59.58c.936-.5-.154.606 0 0"/>
      <path id="path130802" transform="matrix(3.271 0 0-3.271-744.01 1147.07)" d="m46.3 61.09c.14-.972 1.367.51 0 .004v-.004"/>
      <path id="path130804" transform="matrix(3.271 0 0-3.271-744.01 1147.07)" d="m46.26 61.41c1.823-.43-.768 1.435 0 0"/>
      <path id="path130806" transform="matrix(3.271 0 0-3.271-744.01 1147.07)" d="m43.809 67.72c.124-.227.17.235 0 0"/>
      <path id="path130808" transform="matrix(3.271 0 0-3.271-744.01 1147.07)" d="m47.07 56.762c.479-.573.012.544 0 0"/>
      <path id="path130810" transform="matrix(3.271 0 0-3.271-744.01 1147.07)" d="m46.598 56.34c-.485-.378.636-.073 0 0"/>
      <path id="path130812" transform="matrix(3.271 0 0-3.271-744.01 1147.07)" d="m46.06 56.31c-.497-.417.635-.039 0 0"/>
      <path id="path130814" transform="matrix(3.271 0 0-3.271-744.01 1147.07)" d="m46.762 60.46c-.533-.432.456-.102 0 0"/>
      <path id="path130816" transform="matrix(3.271 0 0-3.271-744.01 1147.07)" d="m46.07 63.3c-.397-1.556 1.726.629.081.005l-.081-.005"/>
      <path id="path130818" transform="matrix(3.271 0 0-3.271-744.01 1147.07)" d="m45.855 57.13c.368-1.305.743.969.273.267-.091-.089-.182-.178-.273-.267"/>
      <path id="path130820" transform="matrix(3.271 0 0-3.271-744.01 1147.07)" d="m46.16 56.01c.349-.39.435.434 0 0"/>
      <path id="path130822" transform="matrix(3.271 0 0-3.271-744.01 1147.07)" d="m46.855 57.77c-.068-.814.5.181 0 0"/>
      <path id="path130824" transform="matrix(3.271 0 0-3.271-744.01 1147.07)" d="m46.578 56.61c.494-.115.266.478 0 0"/>
      <path id="path130826" transform="matrix(3.271 0 0-3.271-744.01 1147.07)" d="m46.938 55.844c.21-.269.142.246 0 0"/>
      <path id="path130828" transform="matrix(3.271 0 0-3.271-744.01 1147.07)" d="m45.949 57.719c-.315-.777.656.344 0 0"/>
      <path id="path130830" transform="matrix(3.271 0 0-3.271-744.01 1147.07)" d="m44.36 74.61c.664.146.334 1.017 0 0"/>
      <path id="path130832" transform="matrix(3.271 0 0-3.271-744.01 1147.07)" d="m44.08 73c.739.535.003 1.522.043.266-.014-.089-.031-.177-.043-.266"/>
      <path id="path130834" transform="matrix(3.271 0 0-3.271-744.01 1147.07)" d="m44.31 74.41c-.246-1.738.759.303 0 0"/>
      <path id="path130836" transform="matrix(3.271 0 0-3.271-744.01 1147.07)" d="m45.47 79.75c.092.097.047.534 0 0"/>
      <path id="path130838" transform="matrix(3.271 0 0-3.271-744.01 1147.07)" d="m43.652 68.02c-.208-.277.268.025 0 0"/>
      <path id="path130840" transform="matrix(3.271 0 0-3.271-744.01 1147.07)" d="m44.47 72.34c-.519-1.039.865.214 0 0"/>
      <path id="path130842" transform="matrix(3.271 0 0-3.271-744.01 1147.07)" d="m44.867 76.942c.041-.877.454 1.102 0 0"/>
      <path id="path130844" transform="matrix(3.271 0 0-3.271-744.01 1147.07)" d="m45.961 84.54c.614-.092-.129.675 0 0"/>
      <path id="path130846" transform="matrix(3.271 0 0-3.271-744.01 1147.07)" d="m44.25 70.996c.835-.129-.103 1.15 0 0"/>
      <path id="path130848" transform="matrix(3.271 0 0-3.271-744.01 1147.07)" d="m44.37 71.7c.396-.714.504.795 0 0"/>
      <path id="path130850" transform="matrix(3.271 0 0-3.271-744.01 1147.07)" d="m44.77 76.51c-.075-1.129.473.083 0 0"/>
      <path id="path130852" transform="matrix(3.271 0 0-3.271-744.01 1147.07)" d="m45.711 79.965c-.037-.141-.029-.449 0 0"/>
      <path id="path130854" transform="matrix(3.271 0 0-3.271-744.01 1147.07)" d="m45.47 78.5c-.205-.541.206-.081 0 0"/>
      <path id="path130856" transform="matrix(3.271 0 0-3.271-744.01 1147.07)" d="m45.45 75.31c-.45-1.212 1.324.535.284.883-.204.49-.207-.8-.284-.883"/>
      <path id="path130858" transform="matrix(3.271 0 0-3.271-744.01 1147.07)" d="m45.508 78.71c.193.747.057.544 0 0"/>
      <path id="path130860" transform="matrix(3.271 0 0-3.271-744.01 1147.07)" d="m45.36 79.23c-.321-1.593.247.516 0 0"/>
      <path id="path130862" transform="matrix(3.271 0 0-3.271-744.01 1147.07)" d="m44.621 79.56c.247-1.405.684 1.111.095.098l-.079-.081-.016-.017"/>
      <path id="path130864" transform="matrix(3.271 0 0-3.271-744.01 1147.07)" d="m44.961 77.36c.352.455.032.855 0 0"/>
      <path id="path130866" transform="matrix(3.271 0 0-3.271-744.01 1147.07)" d="m45.2 78.49c-.209-.75.257-.163 0-.008v.008"/>
      <path id="path130868" transform="matrix(3.271 0 0-3.271-744.01 1147.07)" d="m43.813 68.16c1.077-.395.882.88.208.214-.069-.071-.139-.143-.208-.214"/>
      <path id="path130870" transform="matrix(3.271 0 0-3.271-744.01 1147.07)" d="m42.57 67.66c.144-.233.161.248 0 0"/>
      <path id="path130872" transform="matrix(3.271 0 0-3.271-744.01 1147.07)" d="m42.887 67.973c-.037-.231.236.055 0 0"/>
      <path id="path130874" transform="matrix(3.271 0 0-3.271-744.01 1147.07)" d="m43.06 67.69c.125-.223.159.219 0 0"/>
      <path id="path130876" transform="matrix(3.271 0 0-3.271-744.01 1147.07)" d="m42.617 67.957c-.015-.231.26.082 0 0"/>
      <path id="path130878" transform="matrix(3.271 0 0-3.271-744.01 1147.07)" d="m43.832 68.43c.824.495-.126 1.168 0 0"/>
      <path id="path130880" transform="matrix(3.271 0 0-3.271-744.01 1147.07)" d="m43.38 68c-.145-.238.283.044 0 0"/>
      <path id="path130882" transform="matrix(3.271 0 0-3.271-744.01 1147.07)" d="m43.559 67.7c.136-.229.167.242 0 0"/>
      <path id="path130884" transform="matrix(3.271 0 0-3.271-744.01 1147.07)" d="m43.13 67.989c-.078-.247.253.088 0 0"/>
      <path id="path130886" transform="matrix(3.271 0 0-3.271-744.01 1147.07)" d="m43.31 67.69c.138-.232.168.244 0 0"/>
      <path id="path130888" transform="matrix(3.271 0 0-3.271-744.01 1147.07)" d="m42.816 67.68c.137-.233.173.246 0 0"/>
      <path id="path130890" transform="matrix(3.271 0 0-3.271-744.01 1147.07)" d="m42.648 68.1c1.047-.405.917.879.228.223-.076-.074-.152-.149-.228-.223"/>
      <path id="path130892" transform="matrix(3.271 0 0-3.271-744.01 1147.07)" d="m43.4 71.09c.59.588.259 1.788 0-.004"/>
      <path id="path130894" transform="matrix(3.271 0 0-3.271-744.01 1147.07)" d="m43.43 70.95c.232-.055.163.27 0 0"/>
      <path id="path130896" transform="matrix(3.271 0 0-3.271-744.01 1147.07)" d="m43.35 68.789c.366-1.225.714 1.337 0 0"/>
      <path id="path130898" transform="matrix(3.271 0 0-3.271-744.01 1147.07)" d="m42.961 69.33c.185-.887 1.479.435 0 0"/>
      <path id="path130900" transform="matrix(3.271 0 0-3.271-744.01 1147.07)" d="m42.746 68.93c-.799-1.144.689-.323.151.125-.068.067-.169.338-.151-.125"/>
      <path id="path130902" transform="matrix(3.271 0 0-3.271-744.01 1147.07)" d="m42.691 71.59c.724-1.237 1.073 1.289.0001.0001"/>
      <path id="path130904" transform="matrix(3.271 0 0-3.271-744.01 1147.07)" d="m42.46 67.95c-.069-.089.062-.005 0 0"/>
      <path id="path130906" transform="matrix(3.271 0 0-3.271-744.01 1147.07)" d="m46.707 56.04c.321-.382.4.443 0 0"/>
      <path id="path130908" transform="matrix(3.271 0 0-3.271-744.01 1147.07)" d="m44.43 60.33c-.758-1.261 1.297-1.082.379.022-.126-.007-.253-.014-.379-.022"/>
      <path id="path130910" transform="matrix(3.271 0 0-3.271-744.01 1147.07)" d="m42.824 57.54c.365-.874.6.262 0 0"/>
      <path id="path130912" transform="matrix(3.271 0 0-3.271-744.01 1147.07)" d="m44.14 57.62c.334-.772.582.254 0 0"/>
      <path id="path130914" transform="matrix(3.271 0 0-3.271-744.01 1147.07)" d="m43.965 67.868c.141-.231.165.243 0 0"/>
      <path id="path130916" transform="matrix(3.271 0 0-3.271-744.01 1147.07)" d="m43.14 60.25c-.432-.951.153-.992.961-.832.35 1.168.011.87-.961.832"/>
      <path id="path130918" transform="matrix(3.271 0 0-3.271-744.01 1147.07)" d="m44.45 67.903c.137-.228.165.241 0 0"/>
      <path id="path130920" transform="matrix(3.271 0 0-3.271-744.01 1147.07)" d="m44.46 67.68c.093-.017.008.042 0 0"/>
      <path id="path130922" transform="matrix(3.271 0 0-3.271-744.01 1147.07)" d="m44.703 67.69c.073-.001 0 .022 0 0"/>
      <path id="path130924" transform="matrix(3.271 0 0-3.271-744.01 1147.07)" d="m44.703 67.918c.148-.247.202.29 0 0"/>
      <path id="path130926" transform="matrix(3.271 0 0-3.271-744.01 1147.07)" d="m43.36 57.58c-.309-.749.66.299 0 0"/>
      <path id="path130928" transform="matrix(3.271 0 0-3.271-744.01 1147.07)" d="m46.43 87.45c-.207-1.775.811.986 0 0"/>
      <path id="path130930" transform="matrix(3.271 0 0-3.271-744.01 1147.07)" d="m38.08 56.12c.35-.129.028.369 0 0"/>
      <path id="path130932" transform="matrix(3.271 0 0-3.271-744.01 1147.07)" d="m37.465 56.09c.636-.129.507.859 0 0"/>
      <path id="path130934" transform="matrix(3.271 0 0-3.271-744.01 1147.07)" d="m45.23 56.53c.371-.095.264.4 0 0"/>
      <path id="path130936" transform="matrix(3.271 0 0-3.271-744.01 1147.07)" d="m47.48 55.871c.438-.272.36.376 0 0"/>
      <path id="path130938" transform="matrix(3.271 0 0-3.271-744.01 1147.07)" d="m37.39 54.715c-.701-.88.716-.065 0 0"/>
      <path id="path130940" transform="matrix(3.271 0 0-3.271-744.01 1147.07)" d="m45.785 88.14c.914-.29.727 1.251.136.147l-.077-.083-.06-.064"/>
      <path id="path130942" transform="matrix(3.271 0 0-3.271-744.01 1147.07)" d="m47.24 56.08c.344-.385.442.422 0 0"/>
    </g>
    <path id="path130944" transform="matrix(3.2709999084472656, 0, 0, -3.2709999084472656, -451.3708192929249, 904.0953703874475)" fill="url(#6)" d="m43.973 67.65c.023-.014.004.026 0 0"/>
    <g id="g130946" fill="url(#4)" transform="matrix(0.9999999999999999, 0, 0, 0.9999999999999999, 292.6391904727001, -242.97457590161522)">
      <path id="path130948" transform="matrix(3.271 0 0-3.271-744.01 1147.07)" d="m42.48 67.57c.074-.017 0 .035 0 0"/>
      <path id="path130950" transform="matrix(3.271 0 0-3.271-744.01 1147.07)" d="m42.715 67.805c.138-.226.168.232 0 0"/>
      <path id="path130952" transform="matrix(3.271 0 0-3.271-744.01 1147.07)" d="m42.715 67.58c.089-.054.016.081 0 0"/>
      <path id="path130954" transform="matrix(3.271 0 0-3.271-744.01 1147.07)" d="m42.46 67.801c.151-.264.187.251 0 0"/>
      <path id="path130956" transform="matrix(3.271 0 0-3.271-744.01 1147.07)" d="m42.35 67.58c.201.012-.023.308 0 0"/>
      <path id="path130958" transform="matrix(3.271 0 0-3.271-744.01 1147.07)" d="m40.848 65.53c.87-.303-.126.963 0 0"/>
      <path id="path130960" transform="matrix(3.271 0 0-3.271-744.01 1147.07)" d="m40.973 67.7c.148-.217.155.241 0 0"/>
      <path id="path130962" transform="matrix(3.271 0 0-3.271-744.01 1147.07)" d="m41.13 66.39c.375-1.829 1.37 1.545.322.258-.107-.086-.215-.172-.322-.258"/>
      <path id="path130964" transform="matrix(3.271 0 0-3.271-744.01 1147.07)" d="m42.22 68.64c.109-1.121.632 1.23 0 0"/>
      <path id="path130966" transform="matrix(3.271 0 0-3.271-744.01 1147.07)" d="m43.46 67.828c.139-.233.158.249 0 0"/>
    </g>
    <path id="path130968" transform="matrix(3.2709999084472656, 0, 0, -3.2709999084472656, -451.3708192929249, 904.0953703874475)" fill="url(#7)" d="m43.727 67.64c.023-.014.004.026 0 0"/>
    <path id="path130970" transform="matrix(3.2709999084472656, 0, 0, -3.2709999084472656, -451.3708192929249, 904.0953703874475)" fill="url(#8)" d="m43.48 67.62c.018-.011-.0001.024 0 0"/>
    <g id="g130972" fill="url(#4)" transform="matrix(0.9999999999999999, 0, 0, 0.9999999999999999, 292.6391904727001, -242.97457590161522)">
      <path id="path130974" transform="matrix(3.271 0 0-3.271-744.01 1147.07)" d="m43.707 67.844c.132-.228.161.242 0 0"/>
      <path id="path130976" transform="matrix(3.271 0 0-3.271-744.01 1147.07)" d="m42.961 67.817c.138-.214.145.227 0 0"/>
      <path id="path130978" transform="matrix(3.271 0 0-3.271-744.01 1147.07)" d="m42.965 67.59c.094-.003.006.025 0 0"/>
    </g>
    <path id="path130980" transform="matrix(3.2709999084472656, 0, 0, -3.2709999084472656, -451.3708192929249, 904.0953703874475)" fill="url(#9)" d="m43.23 67.61c.024-.016.005.027 0 0"/>
    <g id="g130982" fill="url(#4)">
      <path id="path130984" transform="matrix(3.271 0 0-3.271-744.01 1147.07)" d="m43.2 67.825c.151-.221.156.241 0 0"/>
      <path id="path130986" transform="matrix(3.271 0 0-3.271-744.01 1147.07)" d="m40.977 67.48c.094-.009.004.036 0 0"/>
      <path id="path130988" transform="matrix(3.271 0 0-3.271-744.01 1147.07)" d="m38.28 55.754c-.659-1.446 1.122-.429 0 .004"/>
      <path id="path130990" transform="matrix(3.271 0 0-3.271-744.01 1147.07)" d="m37.77 55.41c-.631-1.293 1.028-.476 0 0"/>
      <path id="path130992" transform="matrix(3.271 0 0-3.271-744.01 1147.07)" d="m39.867 60.07c-.977-1.214.757-1.156.5.027-.167-.009-.333-.018-.5-.027"/>
      <path id="path130994" transform="matrix(3.271 0 0-3.271-744.01 1147.07)" d="m39.934 56.32c.929.465-.088 1.37.024.144l-.018-.112-.005-.033"/>
      <path id="path130996" transform="matrix(3.271 0 0-3.271-744.01 1147.07)" d="m36.859 55.48c.327-.368.44.416 0 0"/>
      <path id="path130998" transform="matrix(3.271 0 0-3.271-744.01 1147.07)" d="m36.563 55.25c.337-.336.383.398 0 0"/>
      <path id="path131000" transform="matrix(3.271 0 0-3.271-744.01 1147.07)" d="m37.29 55.813c-.518-.397.622-.05 0 0"/>
      <path id="path131002" transform="matrix(3.271 0 0-3.271-744.01 1147.07)" d="m37.4 55.52c.174-.257.266.361 0 0"/>
      <path id="path131004" transform="matrix(3.271 0 0-3.271-744.01 1147.07)" d="m48.22 56.44c-.404-.294.453-.197 0 0"/>
      <path id="path131006" transform="matrix(3.271 0 0-3.271-744.01 1147.07)" d="m46.08 80.56c.023-.146.089.059 0 0"/>
      <path id="path131008" transform="matrix(3.271 0 0-3.271-744.01 1147.07)" d="m40.16 55.938c-.529-.459.708-.086.004 0"/>
      <path id="path131010" transform="matrix(3.271 0 0-3.271-744.01 1147.07)" d="m46.2 54.5c-.11-1.526 1.636.648.097.006l-.097-.006"/>
      <path id="path131012" transform="matrix(3.271 0 0-3.271-744.01 1147.07)" d="m37.09 55.28c.351-.35.398.409 0 0"/>
      <path id="path131014" transform="matrix(3.271 0 0-3.271-744.01 1147.07)" d="m40.551 60.11c-.427-.952.157-.993.965-.832.426.952-.158.992-.965.832"/>
      <path id="path131016" transform="matrix(3.271 0 0-3.271-744.01 1147.07)" d="m40.09 56.23c.537-.125.464.826 0 0"/>
      <path id="path131018" transform="matrix(3.271 0 0-3.271-744.01 1147.07)" d="m40.777 57.43c-.457-.886.797.344 0 0"/>
      <path id="path131020" transform="matrix(3.271 0 0-3.271-744.01 1147.07)" d="m41.582 55.2c-1.659-.078-4.443-1.232-4.666-2.499 1.806-.652 3.649-3.28 5.516-1.744 1.291.962 5.262 1.778 2.443 3.347-.948.681-2.138.962-3.294.896"/>
    </g>
    <path id="path131022" transform="matrix(3.2709999084472656, 0, 0, -3.2709999084472656, -451.3708192929249, 904.0953703874475)" fill="url(#A)" d="m35.984 54.805c-.892-.972 1.46.406 0 0"/>
    <g id="g131024" fill="url(#4)">
      <path id="path131026" transform="matrix(3.271 0 0-3.271-744.01 1147.07)" d="m35.473 55.19c.397-.335.378.412 0 0"/>
      <path id="path131028" transform="matrix(3.271 0 0-3.271-744.01 1147.07)" d="m35.664 55.719c-.339-.348.512-.016 0 0"/>
      <path id="path131030" transform="matrix(3.271 0 0-3.271-744.01 1147.07)" d="m36.18 55.14c.287-.012.06.361 0-.004"/>
      <path id="path131032" transform="matrix(3.271 0 0-3.271-744.01 1147.07)" d="m36.21 55.75c-.481-.28.445-.147 0 0"/>
      <path id="path131034" transform="matrix(3.271 0 0-3.271-744.01 1147.07)" d="m35.742 53.879c.437-1.413 1.377.524 0 0"/>
      <path id="path131036" transform="matrix(3.271 0 0-3.271-744.01 1147.07)" d="m35.25 55.39c.336-.371.429.43 0 0"/>
      <path id="path131038" transform="matrix(3.271 0 0-3.271-744.01 1147.07)" d="m36.07 54.22c1.177-.071 1.186.98.09.051l-.09-.051"/>
      <path id="path131040" transform="matrix(3.271 0 0-3.271-744.01 1147.07)" d="m35.13 54.754c.358-1.031 1.057.391 0 0"/>
      <path id="path131042" transform="matrix(3.271 0 0-3.271-744.01 1147.07)" d="m36.75 55.782c-.403-.412.547-.012 0 0"/>
      <path id="path131044" transform="matrix(3.271 0 0-3.271-744.01 1147.07)" d="m37.23 59.03c.6-.091.61.479 0 0"/>
      <path id="path131046" transform="matrix(3.271 0 0-3.271-744.01 1147.07)" d="m37.14 56.918c-.446-1.219.418-.204.098.097l-.081-.079-.018-.017"/>
      <path id="path131048" transform="matrix(3.271 0 0-3.271-744.01 1147.07)" d="m36.898 57.2c-.365-.731.517.175 0 0"/>
      <path id="path131050" transform="matrix(3.271 0 0-3.271-744.01 1147.07)" d="m36.21 56.01c.607.073.392.648 0 0"/>
      <path id="path131052" transform="matrix(3.271 0 0-3.271-744.01 1147.07)" d="m37.656 57.25c.368-.861.585.263 0 0"/>
      <path id="path131054" transform="matrix(3.271 0 0-3.271-744.01 1147.07)" d="m36.37 55.49c.096-.474.485.351 0 0"/>
      <path id="path131056" transform="matrix(3.271 0 0-3.271-744.01 1147.07)" d="m36.727 56.15c.234-.472.309.397 0 0"/>
      <path id="path131058" transform="matrix(3.271 0 0-3.271-744.01 1147.07)" d="m37.35 56.22c.876.606-.133 1.212 0 0"/>
      <path id="path131060" transform="matrix(3.271 0 0-3.271-744.01 1147.07)" d="m47.828 53.914c1.01.104-.744.926 0 0"/>
      <path id="path131062" transform="matrix(3.271 0 0-3.271-744.01 1147.07)" d="m47.15 88.22c.395-.115.39.65 0 0"/>
      <path id="path131064" transform="matrix(3.271 0 0-3.271-744.01 1147.07)" d="m47.32 92.91c.663-.187-.192.828 0 0"/>
      <path id="path131066" transform="matrix(3.271 0 0-3.271-744.01 1147.07)" d="m47.29 92.73c-.291-.577.447.224 0 0"/>
      <path id="path131068" transform="matrix(3.271 0 0-3.271-744.01 1147.07)" d="m47.574 94.46c.402-.12-.088.507.003.02l-.003-.02"/>
      <path id="path131070" transform="matrix(3.271 0 0-3.271-744.01 1147.07)" d="m47.547 94.28c-.428-.916.66.303 0 0"/>
      <path id="path131072" transform="matrix(3.271 0 0-3.271-744.01 1147.07)" d="m47.09 88.39c.843.463.017 1.822.049.28l-.049-.28"/>
      <path id="path131074" transform="matrix(3.271 0 0-3.271-744.01 1147.07)" d="m47.4 89.68c.175-.559.388.174 0 0"/>
      <path id="path131076" transform="matrix(3.271 0 0-3.271-744.01 1147.07)" d="m47.22 92.25c-.066-1.473.71.996 0 0"/>
      <path id="path131078" transform="matrix(3.271 0 0-3.271-744.01 1147.07)" d="m47.36 89.86c.524-.026.329.686 0 0"/>
      <path id="path131080" transform="matrix(3.271 0 0-3.271-744.01 1147.07)" d="m47.45 93.66c.151-1.139.604.978.025.028l-.025-.028"/>
      <path id="path131082" transform="matrix(3.271 0 0-3.271-744.01 1147.07)" d="m47.855 92.95c.475-.187.475.89 0 0"/>
      <path id="path131084" transform="matrix(3.271 0 0-3.271-744.01 1147.07)" d="m48.09 94.31c.245-.776.493.247 0 0"/>
      <path id="path131086" transform="matrix(3.271 0 0-3.271-744.01 1147.07)" d="m47.898 93.23c.752.511-.146 1.32 0 0"/>
      <path id="path131088" transform="matrix(3.271 0 0-3.271-744.01 1147.07)" d="m47.938 92.77c.132-.521.324.151 0 0"/>
      <path id="path131090" transform="matrix(3.271 0 0-3.271-744.01 1147.07)" d="m47.68 95.1c.171-1.331.629 1.02 0 0"/>
      <path id="path131092" transform="matrix(3.271 0 0-3.271-744.01 1147.07)" d="m47.762 95.61c-.274-.565.532.197 0 0"/>
      <path id="path131094" transform="matrix(3.271 0 0-3.271-744.01 1147.07)" d="m48.2 94.49c.325-.079.358.586 0 0"/>
      <path id="path131096" transform="matrix(3.271 0 0-3.271-744.01 1147.07)" d="m47.793 95.78c.27.319.064.048 0 0"/>
      <path id="path131098" transform="matrix(3.271 0 0-3.271-744.01 1147.07)" d="m47.645 91.65c.768.402-.022 1.582.038.246l-.038-.246"/>
      <path id="path131100" transform="matrix(3.271 0 0-3.271-744.01 1147.07)" d="m46.33 83.09c.689.503-.002 1.807.038.279l-.038-.279"/>
      <path id="path131102" transform="matrix(3.271 0 0-3.271-744.01 1147.07)" d="m46.43 81.3c.618.415-.067 1.056 0 0"/>
      <path id="path131104" transform="matrix(3.271 0 0-3.271-744.01 1147.07)" d="m46.3 82.84c.015-.727.484.72 0 0"/>
      <path id="path131106" transform="matrix(3.271 0 0-3.271-744.01 1147.07)" d="m46.12 81.5c-.142-1.953.486 1.755.053.408l-.053-.408"/>
      <path id="path131108" transform="matrix(3.271 0 0-3.271-744.01 1147.07)" d="m46.35 82.47c.048-.275.168.13 0 0"/>
      <path id="path131110" transform="matrix(3.271 0 0-3.271-744.01 1147.07)" d="m46.06 79.08c.773.567-.049 1.359.025.157l-.018-.112-.007-.045"/>
      <path id="path131112" transform="matrix(3.271 0 0-3.271-744.01 1147.07)" d="m45.793 78.73c.222.531.324 2.545.091.793l-.046-.399-.045-.394"/>
      <path id="path131114" transform="matrix(3.271 0 0-3.271-744.01 1147.07)" d="m45.73 78.16c.029.083.045.434 0 0"/>
      <path id="path131116" transform="matrix(3.271 0 0-3.271-744.01 1147.07)" d="m45.727 77.02c.886.267.152 1.737.093.579-.031-.193-.062-.386-.093-.579"/>
      <path id="path131118" transform="matrix(3.271 0 0-3.271-744.01 1147.07)" d="m46.598 84.38c.154-.51.249.21 0 0"/>
      <path id="path131120" transform="matrix(3.271 0 0-3.271-744.01 1147.07)" d="m47.12 88.02c.216-.607.392.181 0 0"/>
      <path id="path131122" transform="matrix(3.271 0 0-3.271-744.01 1147.07)" d="m47.1 85.44c.149.038-.065.26 0 0"/>
      <path id="path131124" transform="matrix(3.271 0 0-3.271-744.01 1147.07)" d="m46.801 86.43c.464-.164.455.848 0 0"/>
      <path id="path131126" transform="matrix(3.271 0 0-3.271-744.01 1147.07)" d="m46.84 86.69c.832.486-.026 1.878.042.288l-.042-.288"/>
      <path id="path131128" transform="matrix(3.271 0 0-3.271-744.01 1147.07)" d="m46.895 86.22c.154-.524.259.201 0 0"/>
      <path id="path131130" transform="matrix(3.271 0 0-3.271-744.01 1147.07)" d="m46.793 83.56c.215.067-.055.371 0 0"/>
      <path id="path131132" transform="matrix(3.271 0 0-3.271-744.01 1147.07)" d="m46.543 84.63c.376-.229.365.691 0 0"/>
      <path id="path131134" transform="matrix(3.271 0 0-3.271-744.01 1147.07)" d="m46.578 84.89c.912.743-.13 2.046 0 0"/>
      <path id="path131136" transform="matrix(3.271 0 0-3.271-744.01 1147.07)" d="m42.05 69.28c-.073-1.113.988.504 0 0"/>
      <path id="path131138" transform="matrix(3.271 0 0-3.271-744.01 1147.07)" d="m42.05 67.63c.1-.218.157.233 0 0"/>
    </g>
    <path id="path131140" transform="matrix(3.2709999084472656, 0, 0, -3.2709999084472656, -451.3708192929249, 904.0953703874475)" fill="url(#B)" d="m41.805 67.62c.136-.229.167.242 0 0"/>
    <g id="g131142" fill="url(#4)">
      <path id="path131144" transform="matrix(3.271 0 0-3.271-744.01 1147.07)" d="m41.668 68.21c.628.566.069 1.285 0 0"/>
      <path id="path131146" transform="matrix(3.271 0 0-3.271-744.01 1147.07)" d="m41.891 67.914c.102-.147-.004-.035 0 0"/>
      <path id="path131148" transform="matrix(3.271 0 0-3.271-744.01 1147.07)" d="m41.648 67.903c-.169-.26.269.06 0 0"/>
      <path id="path131150" transform="matrix(3.271 0 0-3.271-744.01 1147.07)" d="m41.563 67.6c.142-.21.152.238 0 0"/>
      <path id="path131152" transform="matrix(3.271 0 0-3.271-744.01 1147.07)" d="m41.953 67.53c.092-.041.001.074 0 0"/>
      <path id="path131154" transform="matrix(3.271 0 0-3.271-744.01 1147.07)" d="m41.953 67.762c.132-.228.161.242 0 0"/>
      <path id="path131156" transform="matrix(3.271 0 0-3.271-744.01 1147.07)" d="m41.516 67.67c.185.005-.065.249 0 0"/>
      <path id="path131158" transform="matrix(3.271 0 0-3.271-744.01 1147.07)" d="m41.762 68.05c.694-.189.349.849 0 0"/>
      <path id="path131160" transform="matrix(3.271 0 0-3.271-744.01 1147.07)" d="m41.07 67.58c.154-.236.16.239 0 0"/>
      <path id="path131162" transform="matrix(3.271 0 0-3.271-744.01 1147.07)" d="m41.22 67.49c.052.02.009.016 0 0"/>
      <path id="path131164" transform="matrix(3.271 0 0-3.271-744.01 1147.07)" d="m41.707 67.52c.094-.009.004.036 0 0"/>
      <path id="path131166" transform="matrix(3.271 0 0-3.271-744.01 1147.07)" d="m40.828 67.56c.139-.231.166.243 0 0"/>
      <path id="path131168" transform="matrix(3.271 0 0-3.271-744.01 1147.07)" d="m41.15 67.871c.145-.151-.011-.029 0 0"/>
      <path id="path131170" transform="matrix(3.271 0 0-3.271-744.01 1147.07)" d="m41.711 67.743c.117-.216.165.229 0 0"/>
      <path id="path131172" transform="matrix(3.271 0 0-3.271-744.01 1147.07)" d="m41.469 67.51c.075-.039.011.053 0 0"/>
      <path id="path131174" transform="matrix(3.271 0 0-3.271-744.01 1147.07)" d="m41.41 67.29c-.636-.946 1.054.379 0 0"/>
      <path id="path131176" transform="matrix(3.271 0 0-3.271-744.01 1147.07)" d="m48.598 96.85c.127-.435.314.119 0 0"/>
      <path id="path131178" transform="matrix(3.271 0 0-3.271-744.01 1147.07)" d="m47.641 91.43c.449-.11.406.679 0 0"/>
      <path id="path131180" transform="matrix(3.271 0 0-3.271-744.01 1147.07)" d="m48.39 95.82c.397-.068.331.57 0 0"/>
      <path id="path131182" transform="matrix(3.271 0 0-3.271-744.01 1147.07)" d="m42.12 67.93c-.106-.241.253.064 0 0"/>
      <path id="path131184" transform="matrix(3.271 0 0-3.271-744.01 1147.07)" d="m48.539 97.02c.472-.103.416.672 0 0"/>
      <path id="path131186" transform="matrix(3.271 0 0-3.271-744.01 1147.07)" d="m47.39 90.1c.777.396-.012 1.578.041.243l-.041-.243"/>
      <path id="path131188" transform="matrix(3.271 0 0-3.271-744.01 1147.07)" d="m47.961 96.81c-.303-.568.485.246 0 0"/>
      <path id="path131190" transform="matrix(3.271 0 0-3.271-744.01 1147.07)" d="m48.35 95.64c.171-.574.437.193 0 0"/>
      <path id="path131192" transform="matrix(3.271 0 0-3.271-744.01 1147.07)" d="m47.656 91.25c.136-.515.385.159 0 0"/>
      <path id="path131194" transform="matrix(3.271 0 0-3.271-744.01 1147.07)" d="m48.12 94.62c.793.482-.157 1.351 0 0"/>
      <path id="path131196" transform="matrix(3.271 0 0-3.271-744.01 1147.07)" d="m48.33 95.97c.773.439-.144 1.216 0 .004"/>
      <path id="path131198" transform="matrix(3.271 0 0-3.271-744.01 1147.07)" d="m43.762 72.3c.008-.081.045.008 0 0"/>
      <path id="path131200" transform="matrix(3.271 0 0-3.271-744.01 1147.07)" d="m43.789 71.24c-.013-.928.78.831 0 0"/>
      <path id="path131202" transform="matrix(3.271 0 0-3.271-744.01 1147.07)" d="m40.902 67.86c-.127-.234.29.057 0 0"/>
      <path id="path131204" transform="matrix(3.271 0 0-3.271-744.01 1147.07)" d="m47.883 96.35c.222-1.019.578.911.014.014l-.014-.014"/>
      <path id="path131206" transform="matrix(3.271 0 0-3.271-744.01 1147.07)" d="m43.82 71.43c.652.263-.089.915 0 0"/>
      <path id="path131208" transform="matrix(3.271 0 0-3.271-744.01 1147.07)" d="m43.836 72.68c.038.025.005.149 0 0"/>
      <path id="path131210" transform="matrix(3.271 0 0-3.271-744.01 1147.07)" d="m44.18 77.56c.386-1.289.589.355.471.467-.157-.156-.314-.312-.471-.467"/>
      <path id="path131212" transform="matrix(3.271 0 0-3.271-744.01 1147.07)" d="m44.39 74.891c.821.829.134 2.032 0 .004"/>
      <path id="path131214" transform="matrix(3.271 0 0-3.271-744.01 1147.07)" d="m45.11 56.649c.568.447.05 1.624 0 0"/>
      <path id="path131216" transform="matrix(3.271 0 0-3.271-744.01 1147.07)" d="m50.06 102.45c.203-.282.164.329 0 0"/>
      <path id="path131218" transform="matrix(3.271 0 0-3.271-744.01 1147.07)" d="m50.41 102.03c.085-.326.157.335 0 0"/>
      <path id="path131220" transform="matrix(3.271 0 0-3.271-744.01 1147.07)" d="m50.01 102.16c.16-.312.214.337 0 0"/>
      <path id="path131222" transform="matrix(3.271 0 0-3.271-744.01 1147.07)" d="m50.48 102.31c.038-.164.114.091 0 0"/>
      <path id="path131224" transform="matrix(3.271 0 0-3.271-744.01 1147.07)" d="m49.848 102c.167-.321.237.33 0 0"/>
      <path id="path131226" transform="matrix(3.271 0 0-3.271-744.01 1147.07)" d="m49.602 102.83c-.298-.346.32-.045 0 0"/>
      <path id="path131228" transform="matrix(3.271 0 0-3.271-744.01 1147.07)" d="m50.2 102.86c-.402-.397.381-.012 0 0"/>
      <path id="path131230" transform="matrix(3.271 0 0-3.271-744.01 1147.07)" d="m50.34 102.22c-.053-.337.241.124 0 0"/>
      <path id="path131232" transform="matrix(3.271 0 0-3.271-744.01 1147.07)" d="m49.711 104c.872-.212-.198.874 0 0"/>
      <path id="path131234" transform="matrix(3.271 0 0-3.271-744.01 1147.07)" d="m50.29 101.91c.218-.232.038-.075 0 0"/>
      <path id="path131236" transform="matrix(3.271 0 0-3.271-744.01 1147.07)" d="m49.965 101.85c.171-.252.184.292 0 0"/>
      <path id="path131238" transform="matrix(3.271 0 0-3.271-744.01 1147.07)" d="m49.945 102.61c.17-.324.243.334 0 0"/>
      <path id="path131240" transform="matrix(3.271 0 0-3.271-744.01 1147.07)" d="m49.813 102.09c.194.057-.066.281 0 0"/>
      <path id="path131242" transform="matrix(3.271 0 0-3.271-744.01 1147.07)" d="m49.45 99.85c.395-.939.524.921 0 0"/>
      <path id="path131244" transform="matrix(3.271 0 0-3.271-744.01 1147.07)" d="m49.28 98.77c.468-1.243.539 1.124 0 0"/>
      <path id="path131246" transform="matrix(3.271 0 0-3.271-744.01 1147.07)" d="m49.762 101.78c.202.027-.062.284 0 0"/>
      <path id="path131248" transform="matrix(3.271 0 0-3.271-744.01 1147.07)" d="m49.91 102.7c.193.055-.063.281 0 0"/>
      <path id="path131250" transform="matrix(3.271 0 0-3.271-744.01 1147.07)" d="m49.863 102.38c.2.036-.072.294 0 0"/>
      <path id="path131252" transform="matrix(3.271 0 0-3.271-744.01 1147.07)" d="m50.05 102.85c.0001-.037.043.023 0 0"/>
      <path id="path131254" transform="matrix(3.271 0 0-3.271-744.01 1147.07)" d="m49.926 102.28c.018-.148.186.107 0 0"/>
      <path id="path131256" transform="matrix(3.271 0 0-3.271-744.01 1147.07)" d="m48.14 100.15c.174-.479.324.154 0 0"/>
      <path id="path131258" transform="matrix(3.271 0 0-3.271-744.01 1147.07)" d="m48.5 102.52c.161-.308.244.344 0 0"/>
      <path id="path131260" transform="matrix(3.271 0 0-3.271-744.01 1147.07)" d="m48.32 102.1c.015-.366.25.23 0 0"/>
      <path id="path131262" transform="matrix(3.271 0 0-3.271-744.01 1147.07)" d="m48.27 101.77c.008-.273.229.192 0 0"/>
      <path id="path131264" transform="matrix(3.271 0 0-3.271-744.01 1147.07)" d="m48.43 102.75c-.124-.395.324.048 0 0"/>
      <path id="path131266" transform="matrix(3.271 0 0-3.271-744.01 1147.07)" d="m48.36 102.38c.189-.091.046-.05 0 0"/>
      <path id="path131268" transform="matrix(3.271 0 0-3.271-744.01 1147.07)" d="m47.898 101.8c.212.074-.032.369 0 0"/>
      <path id="path131270" transform="matrix(3.271 0 0-3.271-744.01 1147.07)" d="m47.887 101.67c.305-.069.166.331 0 0"/>
      <path id="path131272" transform="matrix(3.271 0 0-3.271-744.01 1147.07)" d="m48.984 99.23c.104-.488.349.14 0 0"/>
      <path id="path131274" transform="matrix(3.271 0 0-3.271-744.01 1147.07)" d="m47.957 102.15c.13-.518.314.157 0 0"/>
      <path id="path131276" transform="matrix(3.271 0 0-3.271-744.01 1147.07)" d="m48.762 98.46c.583.355-.118.991 0 0"/>
      <path id="path131278" transform="matrix(3.271 0 0-3.271-744.01 1147.07)" d="m48.953 103.95c.7-.115.625.929 0 0"/>
      <path id="path131280" transform="matrix(3.271 0 0-3.271-744.01 1147.07)" d="m48.883 102.49c.194.054-.066.281 0 0"/>
      <path id="path131282" transform="matrix(3.271 0 0-3.271-744.01 1147.07)" d="m48.945 102.22c-.28-.256.271-.193 0 0"/>
      <path id="path131284" transform="matrix(3.271 0 0-3.271-744.01 1147.07)" d="m48.617 102.76c.026.003-.007.021 0 0"/>
      <path id="path131286" transform="matrix(3.271 0 0-3.271-744.01 1147.07)" d="m49.54 102.25c-.329-.269.221-.199 0 0"/>
      <path id="path131288" transform="matrix(3.271 0 0-3.271-744.01 1147.07)" d="m49.47 102.54c.159.011-.082.234 0 0"/>
      <path id="path131290" transform="matrix(3.271 0 0-3.271-744.01 1147.07)" d="m48.672 102.69c.073-.258.123.284 0 0"/>
      <path id="path131292" transform="matrix(3.271 0 0-3.271-744.01 1147.07)" d="m48.84 102.21c-.007-.019.012.005 0 0"/>
      <path id="path131294" transform="matrix(3.271 0 0-3.271-744.01 1147.07)" d="m48.785 101.88c.182.063-.058.278 0 0"/>
      <path id="path131296" transform="matrix(3.271 0 0-3.271-744.01 1147.07)" d="m46.957 81.66c.642-1.653.901 1.71.081.093l-.074-.086-.007-.008"/>
      <path id="path131298" transform="matrix(3.271 0 0-3.271-744.01 1147.07)" d="m47.863 89c.519-1.404.774 1.439 0 0"/>
      <path id="path131300" transform="matrix(3.271 0 0-3.271-744.01 1147.07)" d="m47.883 99.41c.777.388-.133 1.118 0 0"/>
      <path id="path131302" transform="matrix(3.271 0 0-3.271-744.01 1147.07)" d="m48.961 99.4c.366-.126.43.588 0 0"/>
      <path id="path131304" transform="matrix(3.271 0 0-3.271-744.01 1147.07)" d="m47.684 60.51c.064-1.331.426-.775.441.027-.147-.009-.294-.018-.441-.027"/>
      <path id="path131306" transform="matrix(3.271 0 0-3.271-744.01 1147.07)" d="m47.605 87.3c.584-1.591.861 1.585 0 0"/>
      <path id="path131308" transform="matrix(3.271 0 0-3.271-744.01 1147.07)" d="m48.5 93.67c.463-1.331.71 1.352 0 0"/>
      <path id="path131310" transform="matrix(3.271 0 0-3.271-744.01 1147.07)" d="m48.758 95.11c.432-1.056.599 1.193 0 0"/>
      <path id="path131312" transform="matrix(3.271 0 0-3.271-744.01 1147.07)" d="m48.32 92.16c.487-1.563.719 1.533 0 0"/>
      <path id="path131314" transform="matrix(3.271 0 0-3.271-744.01 1147.07)" d="m48.08 90.62c.508-1.372.748 1.405 0 0"/>
      <path id="path131316" transform="matrix(3.271 0 0-3.271-744.01 1147.07)" d="m47.25 57.793c-.491-.912.832.354 0 0"/>
      <path id="path131318" transform="matrix(3.271 0 0-3.271-744.01 1147.07)" d="m47.18 57.19c.51-1.191.71 1.343 0 0"/>
      <path id="path131320" transform="matrix(3.271 0 0-3.271-744.01 1147.07)" d="m47.02 60.48c-.159-1.357 1.517-.05 0 0"/>
      <path id="path131322" transform="matrix(3.271 0 0-3.271-744.01 1147.07)" d="m46.727 79.66c.699-1.876.974 1.92.162.208-.054-.069-.108-.138-.162-.208"/>
      <path id="path131324" transform="matrix(3.271 0 0-3.271-744.01 1147.07)" d="m47.672 56.41c-.528-.399.703-.042 0 0"/>
      <path id="path131326" transform="matrix(3.271 0 0-3.271-744.01 1147.07)" d="m48.941 96.38c.457-1.075.537 1.069 0 0"/>
      <path id="path131328" transform="matrix(3.271 0 0-3.271-744.01 1147.07)" d="m46.531 77.69c.654-1.572.827.616.515.584-.172-.195-.343-.39-.515-.584"/>
      <path id="path131330" transform="matrix(3.271 0 0-3.271-744.01 1147.07)" d="m46.38 75.69c.694-1.622.82.666.526.652-.175-.217-.351-.435-.526-.652"/>
      <path id="path131332" transform="matrix(3.271 0 0-3.271-744.01 1147.07)" d="m47.07 60.739c.542-.118.333.541 0 0"/>
      <path id="path131334" transform="matrix(3.271 0 0-3.271-744.01 1147.07)" d="m46.34 62.4c.986-1.311 1.156.189.57.54-.19-.18-.38-.36-.57-.54"/>
      <path id="path131336" transform="matrix(3.271 0 0-3.271-744.01 1147.07)" d="m47.37 85.51c.597-1.74.919 1.608.045.047l-.045-.047"/>
      <path id="path131338" transform="matrix(3.271 0 0-3.271-744.01 1147.07)" d="m49.13 100.21c.189-.475.331.153 0 0"/>
      <path id="path131340" transform="matrix(3.271 0 0-3.271-744.01 1147.07)" d="m49.03 102.79c-.299-.355.334-.019 0 0"/>
      <path id="path131342" transform="matrix(3.271 0 0-3.271-744.01 1147.07)" d="m49.08 102.57c.059-.181.096.207 0 0"/>
      <path id="path131344" transform="matrix(3.271 0 0-3.271-744.01 1147.07)" d="m49.37 101.93c.159.011-.073.236 0 0"/>
      <path id="path131346" transform="matrix(3.271 0 0-3.271-744.01 1147.07)" d="m49.11 97.61c.51-1.28.577 1.324 0 0"/>
      <path id="path131348" transform="matrix(3.271 0 0-3.271-744.01 1147.07)" d="m48.906 102.39c.142-.242.282.343 0 0"/>
      <path id="path131350" transform="matrix(3.271 0 0-3.271-744.01 1147.07)" d="m49.17 98.12c-.447-.706.704.258 0 0"/>
      <path id="path131352" transform="matrix(3.271 0 0-3.271-744.01 1147.07)" d="m49.2 98.31c.31-.095-.076.402 0 0"/>
      <path id="path131354" transform="matrix(3.271 0 0-3.271-744.01 1147.07)" d="m48.984 101.96c.054-.189.091.209 0 0"/>
      <path id="path131356" transform="matrix(3.271 0 0-3.271-744.01 1147.07)" d="m49.35 99.25c-.273-.541.504.19 0 0"/>
      <path id="path131358" transform="matrix(3.271 0 0-3.271-744.01 1147.07)" d="m49.652 102.6c.075-.246.123.283 0 0"/>
      <path id="path131360" transform="matrix(3.271 0 0-3.271-744.01 1147.07)" d="m48.805 101.78c.175-.244.255.321 0 0"/>
      <path id="path131362" transform="matrix(3.271 0 0-3.271-744.01 1147.07)" d="m49.648 102.26c.006-.036.018.011 0 0"/>
      <path id="path131364" transform="matrix(3.271 0 0-3.271-744.01 1147.07)" d="m48.953 99.54c.644.308-.119.869 0 .004"/>
      <path id="path131366" transform="matrix(3.271 0 0-3.271-744.01 1147.07)" d="m49.39 101.83c.215-.258.182.298 0 0"/>
      <path id="path131368" transform="matrix(3.271 0 0-3.271-744.01 1147.07)" d="m49.551 101.99c.079-.259.12.284 0 0"/>
      <path id="path131370" transform="matrix(3.271 0 0-3.271-744.01 1147.07)" d="m49.49 102.44c.21-.305.164.306 0 0"/>
      <path id="path131372" transform="matrix(3.271 0 0-3.271-744.01 1147.07)" d="m49.38 99.43c.443-.121-.093.491 0 0"/>
      <path id="path131374" transform="matrix(3.271 0 0-3.271-744.01 1147.07)" d="m49.51 100.23c-.196-.544.408.19 0 0"/>
      <path id="path131376" transform="matrix(3.271 0 0-3.271-744.01 1147.07)" d="m47.1 83.65c.637-1.841 1.041 1.632.098.099l-.08-.08-.018-.019"/>
      <path id="path131378" transform="matrix(3.271 0 0-3.271-744.01 1147.07)" d="m37.773 54.53c.117-1.535 1.035.941 0 0"/>
      <path id="path131380" transform="matrix(3.271 0 0-3.271-744.01 1147.07)" d="m38.953 55.19c-.554-1.391 1.352.313 0 0"/>
      <path id="path131382" transform="matrix(3.271 0 0-3.271-744.01 1147.07)" d="m38.3 54.856c.183-1.394 1.034.772 0 0"/>
      <path id="path131384" transform="matrix(3.271 0 0-3.271-744.01 1147.07)" d="m37.28 54.18c.128-1.662 1 1.073 0 0"/>
      <path id="path131386" transform="matrix(3.271 0 0-3.271-744.01 1147.07)" d="m35.781 55.43c.348-.386.437.424 0 0"/>
      <path id="path131388" transform="matrix(3.271 0 0-3.271-744.01 1147.07)" d="m40.01 55.58c-.061-1.35 1.107.527 0 0"/>
      <path id="path131390" transform="matrix(3.271 0 0-3.271-744.01 1147.07)" d="m40.24 57.4c.37-.862.593.26 0 0"/>
      <path id="path131392" transform="matrix(3.271 0 0-3.271-744.01 1147.07)" d="m39.434 55.39c-.115-1.496 1.339.615 0 0"/>
      <path id="path131394" transform="matrix(3.271 0 0-3.271-744.01 1147.07)" d="m39.578 55.825c-.663-.696.814-.064 0 0"/>
      <path id="path131396" transform="matrix(3.271 0 0-3.271-744.01 1147.07)" d="m35.648 56.54c.333-.958.567 1.095 0 0"/>
      <path id="path131398" transform="matrix(3.271 0 0-3.271-744.01 1147.07)" d="m35.598 56.52c.05.045-.0001.027 0 0"/>
      <path id="path131400" transform="matrix(3.271 0 0-3.271-744.01 1147.07)" d="m35.29 55.961c.97-.311.083.917 0 0"/>
      <path id="path131402" transform="matrix(3.271 0 0-3.271-744.01 1147.07)" d="m40.59 56.26c.588-.234-.132.73 0 0"/>
      <path id="path131404" transform="matrix(3.271 0 0-3.271-744.01 1147.07)" d="m36.41 53.15c.37-.793.467 1.234 0 0"/>
      <path id="path131406" transform="matrix(3.271 0 0-3.271-744.01 1147.07)" d="m35.938 57.15c-.153-.179.14.054 0 0"/>
      <path id="path131408" transform="matrix(3.271 0 0-3.271-744.01 1147.07)" d="m35.15 55.692c-.295-.447.476.02 0 0"/>
      <path id="path131410" transform="matrix(3.271 0 0-3.271-744.01 1147.07)" d="m34.891 55.11c.498-.195.38.437 0 0"/>
      <path id="path131412" transform="matrix(3.271 0 0-3.271-744.01 1147.07)" d="m34.602 54.727c-.86-.871 1.528-.765 0 0"/>
    </g>
    <path id="path131414" transform="matrix(3.2709999084472656, 0, 0, -3.2709999084472656, -451.3708192929249, 904.0953703874475)" fill="url(#C)" d="m34.922 55.29c.219.008-.006.271 0 0"/>
    <g id="g131416" fill="url(#4)">
      <path id="path131418" transform="matrix(3.271 0 0-3.271-744.01 1147.07)" d="m36.805 53.809c.194-1.558.891 1.066 0 0"/>
      <path id="path131420" transform="matrix(3.271 0 0-3.271-744.01 1147.07)" d="m46.582 53.22c.602.003-.5.527 0 0"/>
      <path id="path131422" transform="matrix(3.271 0 0-3.271-744.01 1147.07)" d="m46.1 53.3c.421-.918.306.744 0 0"/>
      <path id="path131424" transform="matrix(3.271 0 0-3.271-744.01 1147.07)" d="m45.793 53.692c.468-.905.513 1.288 0 0"/>
      <path id="path131426" transform="matrix(3.271 0 0-3.271-744.01 1147.07)" d="m45.44 54.05c.668-.726.39 1.238 0 0"/>
      <path id="path131428" transform="matrix(3.271 0 0-3.271-744.01 1147.07)" d="m48.33 56.14c.09-.178.059.119 0 0"/>
      <path id="path131430" transform="matrix(3.271 0 0-3.271-744.01 1147.07)" d="m45.2 54.641c-.312-1.303.926.619 0 0"/>
      <path id="path131432" transform="matrix(3.271 0 0-3.271-744.01 1147.07)" d="m48.05 54.602c.762-.663 1.155.291 0 0"/>
      <path id="path131434" transform="matrix(3.271 0 0-3.271-744.01 1147.07)" d="m48.39 55.53c-1.423-.813.947-.838.031.002l-.031-.002"/>
      <path id="path131436" transform="matrix(3.271 0 0-3.271-744.01 1147.07)" d="m41.21 55.817c-.221-1.354 1.024.288 0 0"/>
      <path id="path131438" transform="matrix(3.271 0 0-3.271-744.01 1147.07)" d="m44.816 54.996c-.497-1.411 1.058.48 0 .004v-.004"/>
      <path id="path131440" transform="matrix(3.271 0 0-3.271-744.01 1147.07)" d="m40.574 55.719c.097-1.576 1.077.563 0-.004"/>
      <path id="path131442" transform="matrix(3.271 0 0-3.271-744.01 1147.07)" d="m42.12 55.868c-1.045-.066.049-1.144 0 .003"/>
      <path id="path131444" transform="matrix(3.271 0 0-3.271-744.01 1147.07)" d="m40.695 56.825c.427-1.221.774 1.266.095.089.115.318-.102-.15-.095-.089"/>
      <path id="path131446" transform="matrix(3.271 0 0-3.271-744.01 1147.07)" d="m42.16 55.35c1.254.009.128 1.2 0 0"/>
      <path id="path131448" transform="matrix(3.271 0 0-3.271-744.01 1147.07)" d="m42.906 55.805c-1.01-1.711 1.415.314.004.004"/>
      <path id="path131450" transform="matrix(3.271 0 0-3.271-744.01 1147.07)" d="m44.43 55.33c-.776-1.21 1.07.022 0 0"/>
      <path id="path131452" transform="matrix(3.271 0 0-3.271-744.01 1147.07)" d="m43.785 55.23c.332-1.13.819 1.253 0 0"/>
      <path id="path131454" transform="matrix(3.271 0 0-3.271-744.01 1147.07)" d="m43.4 55.625c-.727-1.077 1.196.041.051.114l-.051-.118"/>
      <path id="path131456" transform="matrix(3.271 0 0-3.271-744.01 1147.07)" d="m45.37 86.52c1.081.477.096 1.993.065.308l-.065-.308"/>
      <path id="path131458" transform="matrix(3.271 0 0-3.271-744.01 1147.07)" d="m45.738 87.94c.322-1.23 1.067.347.034.002l-.034-.002"/>
      <path id="path131460" transform="matrix(3.271 0 0-3.271-744.01 1147.07)" d="m44.98 84.68c1.121.473.093 2.137.068.32l-.068-.32"/>
      <path id="path131462" transform="matrix(3.271 0 0-3.271-744.01 1147.07)" d="m45.742 88.32c.967.4.04 1.783.056.27l-.056-.27"/>
      <path id="path131464" transform="matrix(3.271 0 0-3.271-744.01 1147.07)" d="m46.06 89.61c.463-1.297.97.435 0 0"/>
      <path id="path131466" transform="matrix(3.271 0 0-3.271-744.01 1147.07)" d="m43.641 78.79c.906.176.64 1.942.276 1.153-.089-.385-.18-.77-.276-1.153"/>
      <path id="path131468" transform="matrix(3.271 0 0-3.271-744.01 1147.07)" d="m44.12 80.65c.626-.064 1.491.052.773.777-.258-.259-.515-.518-.773-.777"/>
      <path id="path131470" transform="matrix(3.271 0 0-3.271-744.01 1147.07)" d="m44.38 81.957c-.716-1.281.322-1.048.317-.204-.132.101-.295.791-.317.204"/>
      <path id="path131472" transform="matrix(3.271 0 0-3.271-744.01 1147.07)" d="m44.559 82.75c1.069.298.394 2.174.153.694l-.077-.349-.076-.345"/>
      <path id="path131474" transform="matrix(3.271 0 0-3.271-744.01 1147.07)" d="m46.68 92.7c.398-1.075.733.304 0 0"/>
      <path id="path131476" transform="matrix(3.271 0 0-3.271-744.01 1147.07)" d="m47.47 97.14c.751.422-.111 1.172 0 0"/>
      <path id="path131478" transform="matrix(3.271 0 0-3.271-744.01 1147.07)" d="m47.23 95.89c.74.423-.105 1.163 0 0"/>
      <path id="path131480" transform="matrix(3.271 0 0-3.271-744.01 1147.07)" d="m36.05 56.11c.925.329-.036 1.517.047.288-.016-.096-.031-.192-.047-.288"/>
      <path id="path131482" transform="matrix(3.271 0 0-3.271-744.01 1147.07)" d="m46.07 89.96c.97.659-.1 1.586 0 0"/>
      <path id="path131484" transform="matrix(3.271 0 0-3.271-744.01 1147.07)" d="m47.668 98.23c.765.499-.095 1.244 0 0"/>
      <path id="path131486" transform="matrix(3.271 0 0-3.271-744.01 1147.07)" d="m46.4 91.18c.277-1.058.845.296 0 0"/>
      <path id="path131488" transform="matrix(3.271 0 0-3.271-744.01 1147.07)" d="m46.4 91.58c.907.529.005 1.66 0 0"/>
      <path id="path131490" transform="matrix(3.271 0 0-3.271-744.01 1147.07)" d="m43.14 76.77c.903.169.697 1.887.278 1.106-.091-.369-.182-.738-.278-1.106"/>
      <path id="path131492" transform="matrix(3.271 0 0-3.271-744.01 1147.07)" d="m46.684 93.05c.948.582.016 1.771 0 0"/>
      <path id="path131494" transform="matrix(3.271 0 0-3.271-744.01 1147.07)" d="m46.984 94.61c.821.419-.148 1.368 0 0"/>
      <path id="path131496" transform="matrix(3.271 0 0-3.271-744.01 1147.07)" d="m42.605 74.72c.574.469 1.091.946.422 1.598-.139-.533-.28-1.066-.422-1.598"/>
      <path id="path131498" transform="matrix(3.271 0 0-3.271-744.01 1147.07)" d="m38.758 62.879c.612-1.39 1.38.482.007.0001h-.011.004"/>
      <path id="path131500" transform="matrix(3.271 0 0-3.271-744.01 1147.07)" d="m37.965 59.957c-.183-.398.341-.044 0 0"/>
      <path id="path131502" transform="matrix(3.271 0 0-3.271-744.01 1147.07)" d="m37.961 61.22c.561.406 1.546.756.605 1.356-.197-.454-.399-.906-.605-1.356"/>
      <path id="path131504" transform="matrix(3.271 0 0-3.271-744.01 1147.07)" d="m37.871 59.38c-.347-1.192.981.913 0 0"/>
      <path id="path131506" transform="matrix(3.271 0 0-3.271-744.01 1147.07)" d="m36.398 57.18c.314-.744.548.259 0 0"/>
      <path id="path131508" transform="matrix(3.271 0 0-3.271-744.01 1147.07)" d="m36.672 59.887c-.547-1.439.607-.476.211.011l-.113-.006-.098-.005"/>
      <path id="path131510" transform="matrix(3.271 0 0-3.271-744.01 1147.07)" d="m37.563 60.37c-.16-.464.441.05 0 0"/>
      <path id="path131512" transform="matrix(3.271 0 0-3.271-744.01 1147.07)" d="m37.35 59.922c-1.223-1.458 1.334.158 0 0"/>
      <path id="path131514" transform="matrix(3.271 0 0-3.271-744.01 1147.07)" d="m37.891 60.61c.562-.996 1.411.396 0 0"/>
      <path id="path131516" transform="matrix(3.271 0 0-3.271-744.01 1147.07)" d="m41.996 72.56c.619.457 1.173.924.453 1.59-.145-.53-.296-1.059-.453-1.586"/>
      <path id="path131518" transform="matrix(3.271 0 0-3.271-744.01 1147.07)" d="m41.523 71.04c1.213.075.512 1.681.17.528l-.085-.267-.085-.261"/>
      <path id="path131520" transform="matrix(3.271 0 0-3.271-744.01 1147.07)" d="m42.594 74.31c.273-1.021.763-.662 1.296-.032.424.25-1.201-.02-1.296.032"/>
      <path id="path131522" transform="matrix(3.271 0 0-3.271-744.01 1147.07)" d="m41.12 69.24c-.082-1.087 1.012.465 0 0"/>
      <path id="path131524" transform="matrix(3.271 0 0-3.271-744.01 1147.07)" d="m39.84 65.739c1.224.314.402 1.928.107.296l-.107-.296"/>
      <path id="path131526" transform="matrix(3.271 0 0-3.271-744.01 1147.07)" d="m38.977 63.54c.875.113 1.041 1.569.394.971-.128-.325-.261-.648-.394-.971"/>
      <path id="path131528" transform="matrix(3.271 0 0-3.271-744.01 1147.07)" d="m39.715 65.14c.451-1.402 1.275.452 0 0"/>
      <path id="path131530" transform="matrix(3.271 0 0-3.271-744.01 1147.07)" d="m40.477 67.57c.274.017-.005.414 0 0"/>
      <path id="path131532" transform="matrix(3.271 0 0-3.271-744.01 1147.07)" d="m40.613 67.989c.858.723.195 1.781 0 0"/>
      <path id="path131534" transform="matrix(3.271 0 0-3.271-744.01 1147.07)" d="m43.656 56.03c-.362-.64.68.11 0 .003"/>
      <path id="path131536" transform="matrix(3.271 0 0-3.271-744.01 1147.07)" d="m47.3 95.76c.554-.012.372.662 0 0"/>
      <path id="path131538" transform="matrix(3.271 0 0-3.271-744.01 1147.07)" d="m47.26 95.58c.318-.921.535.255 0 0"/>
      <path id="path131540" transform="matrix(3.271 0 0-3.271-744.01 1147.07)" d="m47.02 94.43c.644-.127.595.918 0 0"/>
      <path id="path131542" transform="matrix(3.271 0 0-3.271-744.01 1147.07)" d="m47.5 96.97c.517-.118.488.816 0 0"/>
      <path id="path131544" transform="matrix(3.271 0 0-3.271-744.01 1147.07)" d="m47.49 96.78c.306-.732.461.238 0 0"/>
      <path id="path131546" transform="matrix(3.271 0 0-3.271-744.01 1147.07)" d="m47.08 91.39c.567-.22-.142.754 0 0"/>
      <path id="path131548" transform="matrix(3.271 0 0-3.271-744.01 1147.07)" d="m47.719 98.04c.282-.71.422.229 0 0"/>
      <path id="path131550" transform="matrix(3.271 0 0-3.271-744.01 1147.07)" d="m46.988 94.25c.336-1.036.658.292 0 0"/>
      <path id="path131552" transform="matrix(3.271 0 0-3.271-744.01 1147.07)" d="m47.05 91.22c-.272-.572.499.182 0 0"/>
      <path id="path131554" transform="matrix(3.271 0 0-3.271-744.01 1147.07)" d="m46.73 92.87c.753-.117.587 1.104 0 0"/>
      <path id="path131556" transform="matrix(3.271 0 0-3.271-744.01 1147.07)" d="m48.38 99.37c.501-.147-.123.519 0 0"/>
      <path id="path131558" transform="matrix(3.271 0 0-3.271-744.01 1147.07)" d="m48.19 98.25c.463-.096-.124.464 0 0"/>
      <path id="path131560" transform="matrix(3.271 0 0-3.271-744.01 1147.07)" d="m48.29 98.7c.293-.688.403.793 0 0"/>
      <path id="path131562" transform="matrix(3.271 0 0-3.271-744.01 1147.07)" d="m48.16 98.07c-.365-.647.629.26 0 0"/>
      <path id="path131564" transform="matrix(3.271 0 0-3.271-744.01 1147.07)" d="m48.35 99.19c-.302-.612.454.199 0 0"/>
      <path id="path131566" transform="matrix(3.271 0 0-3.271-744.01 1147.07)" d="m47.867 98.23c.285-.016.149.344 0 0"/>
      <path id="path131568" transform="matrix(3.271 0 0-3.271-744.01 1147.07)" d="m47.988 96.99c.582-.228-.125.744 0 0"/>
      <path id="path131570" transform="matrix(3.271 0 0-3.271-744.01 1147.07)" d="m48.08 97.56c.345-.991.522.977 0 0"/>
      <path id="path131572" transform="matrix(3.271 0 0-3.271-744.01 1147.07)" d="m47.938 99.17c.215-.559.402.178 0 0"/>
      <path id="path131574" transform="matrix(3.271 0 0-3.271-744.01 1147.07)" d="m46.965 90.7c-.09-1.793.756 1.139 0 0"/>
      <path id="path131576" transform="matrix(3.271 0 0-3.271-744.01 1147.07)" d="m47.977 99.35c.347-.072.389.555 0 0"/>
      <path id="path131578" transform="matrix(3.271 0 0-3.271-744.01 1147.07)" d="m45 84.49c.86-.498 1.147 1.271.43.462-.143-.154-.287-.308-.43-.462"/>
      <path id="path131580" transform="matrix(3.271 0 0-3.271-744.01 1147.07)" d="m44.996 84.29c.31-1.22 1.303.309.182.001l-.113-.007-.069-.004"/>
      <path id="path131582" transform="matrix(3.271 0 0-3.271-744.01 1147.07)" d="m44.598 82.57c.758-.462 1.324.916.653.691-.218-.23-.435-.46-.653-.691"/>
      <path id="path131584" transform="matrix(3.271 0 0-3.271-744.01 1147.07)" d="m45.37 86.13c.301-1.217 1.18.328.104.006l-.104-.006"/>
      <path id="path131586" transform="matrix(3.271 0 0-3.271-744.01 1147.07)" d="m44.57 82.37c.048-1.195 1.389.009.521.028-.174-.009-.348-.019-.521-.028"/>
      <path id="path131588" transform="matrix(3.271 0 0-3.271-744.01 1147.07)" d="m45.3 80.52c-.031-.053.046.017 0 0"/>
      <path id="path131590" transform="matrix(3.271 0 0-3.271-744.01 1147.07)" d="m45.25 80.21c-.097-.567-.37-2.201-.036-.595-.086.007.362 1.06.036.595"/>
      <path id="path131592" transform="matrix(3.271 0 0-3.271-744.01 1147.07)" d="m45.4 86.34c.871-.437.975 1.365.308.332-.103-.111-.205-.221-.308-.332"/>
      <path id="path131594" transform="matrix(3.271 0 0-3.271-744.01 1147.07)" d="m45.05 81.58c.236-1.036.483.993 0 0"/>
      <path id="path131596" transform="matrix(3.271 0 0-3.271-744.01 1147.07)" d="m46.4 91.36c.913-.055.525 1.07 0 0"/>
      <path id="path131598" transform="matrix(3.271 0 0-3.271-744.01 1147.07)" d="m46.15 85.73c-.326-1.543.622.152.158.167-.053-.056-.105-.112-.158-.167"/>
      <path id="path131600" transform="matrix(3.271 0 0-3.271-744.01 1147.07)" d="m46.711 89.14c-.182-1.722.799.943 0 0"/>
      <path id="path131602" transform="matrix(3.271 0 0-3.271-744.01 1147.07)" d="m46.12 89.78c.959-.05.546 1.099 0 0"/>
      <path id="path131604" transform="matrix(3.271 0 0-3.271-744.01 1147.07)" d="m46.82 89.83c.549-.203-.123.748 0 0"/>
      <path id="path131606" transform="matrix(3.271 0 0-3.271-744.01 1147.07)" d="m46.789 89.64c-.29-.608.466.21 0 0"/>
      <path id="path131608" transform="matrix(3.271 0 0-3.271-744.01 1147.07)" d="m46.26 86.39c.592-.136-.151.732 0 0"/>
      <path id="path131610" transform="matrix(3.271 0 0-3.271-744.01 1147.07)" d="m46.555 88.19c.533-.195-.153.686 0 0"/>
      <path id="path131612" transform="matrix(3.271 0 0-3.271-744.01 1147.07)" d="m46.23 86.18c-.27-.529.416.202 0 0"/>
      <path id="path131614" transform="matrix(3.271 0 0-3.271-744.01 1147.07)" d="m46.52 87.989c-.386-.66.607.25 0 0"/>
      <path id="path131616" transform="matrix(3.271 0 0-3.271-744.01 1147.07)" d="m47.23 86.24c-.458-1.273 1.37.421.101.006l-.101-.006"/>
      <path id="path131618" transform="matrix(3.271 0 0-3.271-744.01 1147.07)" d="m47.05 85.18c-.543-.925 1.303-.639.297.032-.138.292-.138.095-.297-.032"/>
      <path id="path131620" transform="matrix(3.271 0 0-3.271-744.01 1147.07)" d="m44.18 80.45c.033-1.09 1.059-.418.824.047-.275-.016-.549-.032-.824-.047"/>
      <path id="path131622" transform="matrix(3.271 0 0-3.271-744.01 1147.07)" d="m46.93 84.4c-.52-1.256 1.27.198.407.023-.136-.008-.272-.016-.407-.023"/>
      <path id="path131624" transform="matrix(3.271 0 0-3.271-744.01 1147.07)" d="m47.918 90.45c-.457-1.015.991-.585 0 0"/>
      <path id="path131626" transform="matrix(3.271 0 0-3.271-744.01 1147.07)" d="m47.641 88.76c-.28-1.07.979-.173.017.014l-.017-.018v.004"/>
      <path id="path131628" transform="matrix(3.271 0 0-3.271-744.01 1147.07)" d="m46.617 82.48c-.325-1.237 1.165-.062.645.037-.215-.012-.43-.025-.645-.037"/>
      <path id="path131630" transform="matrix(3.271 0 0-3.271-744.01 1147.07)" d="m47.797 89.7c-.52-1.229 1.215.417 0 0"/>
      <path id="path131632" transform="matrix(3.271 0 0-3.271-744.01 1147.07)" d="m47.523 88.04c-.566-1.298 1.224.326.155.009l-.113-.006-.042-.002"/>
      <path id="path131634" transform="matrix(3.271 0 0-3.271-744.01 1147.07)" d="m47.36 87.03c-.448-.991 1.145-.572.132.109-.035.087-.09-.1-.132-.109"/>
      <path id="path131636" transform="matrix(3.271 0 0-3.271-744.01 1147.07)" d="m46.75 83.3c-.658-.893 1.38-.747.442-.095-.211.27-.166.45-.442.095"/>
      <path id="path131638" transform="matrix(3.271 0 0-3.271-744.01 1147.07)" d="m46.37 80.989c.221-.509 1.495-.113.457.531-.152-.177-.305-.354-.457-.531"/>
      <path id="path131640" transform="matrix(3.271 0 0-3.271-744.01 1147.07)" d="m45.57 74.68c.699.032 1.734-.09.789.698-.192.36-.583-.601-.789-.698"/>
      <path id="path131642" transform="matrix(3.271 0 0-3.271-744.01 1147.07)" d="m45.4 74.47c.464-.801.921-.877 1.368-.019.19.24-1.181-.039-1.368.019"/>
      <path id="path131644" transform="matrix(3.271 0 0-3.271-744.01 1147.07)" d="m46.22 73.55c.778-1.543.885.618.565.664-.188-.221-.376-.443-.565-.664"/>
      <path id="path131646" transform="matrix(3.271 0 0-3.271-744.01 1147.07)" d="m45.711 76.56c.397-.893.807-.684 1.223.07-.408-.023-.815-.047-1.223-.07"/>
      <path id="path131648" transform="matrix(3.271 0 0-3.271-744.01 1147.07)" d="m46.3 80.57c-.068-.989.675-.645.957.054-.319-.018-.638-.036-.957-.054"/>
      <path id="path131650" transform="matrix(3.271 0 0-3.271-744.01 1147.07)" d="m46.01 78.74c.786-.054 1.397.027.59.75-.196-.247-.399-.515-.59-.75"/>
      <path id="path131652" transform="matrix(3.271 0 0-3.271-744.01 1147.07)" d="m45.977 78.53c.071-1.075 1.082-.345 1.023.06-.341-.02-.682-.04-1.023-.06"/>
      <path id="path131654" transform="matrix(3.271 0 0-3.271-744.01 1147.07)" d="m45.727 76.77c.809-.016 1.562-.007.668.762-.223-.254-.445-.508-.668-.762"/>
      <path id="path131656" transform="matrix(3.271 0 0-3.271-744.01 1147.07)" d="m48.05 91.28c-1.012-1.406 1.28.493 0 0"/>
      <path id="path131658" transform="matrix(3.271 0 0-3.271-744.01 1147.07)" d="m48.51 100.18c-.219-.534.421.222 0 0"/>
      <path id="path131660" transform="matrix(3.271 0 0-3.271-744.01 1147.07)" d="m48.49 102.19c.021-.123.156.092 0 0"/>
      <path id="path131662" transform="matrix(3.271 0 0-3.271-744.01 1147.07)" d="m48.801 98.28c.374-.074.333.57 0 0"/>
      <path id="path131664" transform="matrix(3.271 0 0-3.271-744.01 1147.07)" d="m48.738 98.1c.257-.626.422.208 0 0"/>
    </g>
    <path id="path131666" transform="matrix(3.271 0 0-3.271-744.01 1147.07)" fill="url(#D)" d="m48.547 97.25c.685.358-.141 1.046 0 0"/>
    <g id="g131668" fill="url(#4)">
      <path id="path131670" transform="matrix(3.271 0 0-3.271-744.01 1147.07)" d="m48.4 101.91c.158-.311.249.351 0 0"/>
      <path id="path131672" transform="matrix(3.271 0 0-3.271-744.01 1147.07)" d="m48.52 101.76c.087-.223.132.288 0 0"/>
      <path id="path131674" transform="matrix(3.271 0 0-3.271-744.01 1147.07)" d="m48.613 102.37c.104-.213.122.294 0 0"/>
      <path id="path131676" transform="matrix(3.271 0 0-3.271-744.01 1147.07)" d="m48.574 102.08c.074-.255.122.287 0 0"/>
      <path id="path131678" transform="matrix(3.271 0 0-3.271-744.01 1147.07)" d="m48.45 99.8c.238-.763.525.812 0 0"/>
      <path id="path131680" transform="matrix(3.271 0 0-3.271-744.01 1147.07)" d="m48.32 92.97c.867-.204-.193 1.063 0 0"/>
      <path id="path131682" transform="matrix(3.271 0 0-3.271-744.01 1147.07)" d="m48.3 92.78c-.815-1.26 1.184.473 0 0"/>
      <path id="path131684" transform="matrix(3.271 0 0-3.271-744.01 1147.07)" d="m48.965 96.87c-.332-.667.639.226 0 0"/>
      <path id="path131686" transform="matrix(3.271 0 0-3.271-744.01 1147.07)" d="m48.17 92c-.429-.941.951-.551 0 0"/>
      <path id="path131688" transform="matrix(3.271 0 0-3.271-744.01 1147.07)" d="m48.551 94.34c-.518-1.094.892.339 0 0"/>
      <path id="path131690" transform="matrix(3.271 0 0-3.271-744.01 1147.07)" d="m48.992 97.05c.609-.168-.126.705 0 0"/>
      <path id="path131692" transform="matrix(3.271 0 0-3.271-744.01 1147.07)" d="m48.797 95.84c.619-.163-.133.717 0 0"/>
      <path id="path131694" transform="matrix(3.271 0 0-3.271-744.01 1147.07)" d="m48.578 94.52c.878-.227-.226.919 0 0"/>
      <path id="path131696" transform="matrix(3.271 0 0-3.271-744.01 1147.07)" d="m47.914 57.832c.092-.272.117.078 0 0"/>
      <path id="path131698" transform="matrix(3.271 0 0-3.271-744.01 1147.07)" d="m48.766 95.66c-.432-.97.721.311 0 0"/>
      <path id="path131700" transform="matrix(3.271 0 0-3.271-744.01 1147.07)" d="m42.652 56.38c.599-.089.504.83 0 0"/>
      <path id="path131702" transform="matrix(3.271 0 0-3.271-744.01 1147.07)" d="m43.11 56.08c-.23-.538.632.171 0 .003"/>
      <path id="path131704" transform="matrix(3.271 0 0-3.271-744.01 1147.07)" d="m42.527 56.5c.94.568-.094 1.431 0 0"/>
      <path id="path131706" transform="matrix(3.271 0 0-3.271-744.01 1147.07)" d="m42.07 57.5c-.459-.89.804.343 0 0"/>
      <path id="path131708" transform="matrix(3.271 0 0-3.271-744.01 1147.07)" d="m41.844 60.18c-.427-.952.157-.993.965-.832.426.952-.157.993-.965.832"/>
      <path id="path131710" transform="matrix(3.271 0 0-3.271-744.01 1147.07)" d="m43.18 56.41c.583-.248-.141.738 0 0"/>
      <path id="path131712" transform="matrix(3.271 0 0-3.271-744.01 1147.07)" d="m43.27 56.985c.417-1.306.777 1.165.195.189-.065-.063-.13-.126-.195-.189"/>
      <path id="path131714" transform="matrix(3.271 0 0-3.271-744.01 1147.07)" d="m43.977 56.46c.47-.144.578.852 0 0"/>
      <path id="path131716" transform="matrix(3.271 0 0-3.271-744.01 1147.07)" d="m43.816 56.54c.921.329-.045 1.501.045.276-.015-.092-.03-.184-.045-.276"/>
      <path id="path131718" transform="matrix(3.271 0 0-3.271-744.01 1147.07)" d="m46.23 64.61c.844-1.279.934.406.484.501-.161-.167-.323-.334-.484-.501"/>
      <path id="path131720" transform="matrix(3.271 0 0-3.271-744.01 1147.07)" d="m41.563 57.47c.323-.747.565.259 0 0"/>
      <path id="path131722" transform="matrix(3.271 0 0-3.271-744.01 1147.07)" d="m39.438 56.75c.458-1.086.677 1.243 0 0"/>
      <path id="path131724" transform="matrix(3.271 0 0-3.271-744.01 1147.07)" d="m42.28 67.34c-.698-2.361-1.428-4.707-2.312-7 1.644.094 3.289.188 4.933.282-.149 2.279-.112 4.585-.047 6.875-.857-.052-1.724-.094-2.574-.153"/>
      <path id="path131726" transform="matrix(3.271 0 0-3.271-744.01 1147.07)" d="m39.29 56.19c.644-.203-.124.755 0 0"/>
      <path id="path131728" transform="matrix(3.271 0 0-3.271-744.01 1147.07)" d="m38.984 57.32c.299-.741.559.261 0 0"/>
      <path id="path131730" transform="matrix(3.271 0 0-3.271-744.01 1147.07)" d="m41.39 56.31c.483-.139.552.84 0 0"/>
      <path id="path131732" transform="matrix(3.271 0 0-3.271-744.01 1147.07)" d="m41.23 56.39c.931.326-.035 1.522.047.291-.016-.097-.032-.194-.047-.291"/>
    </g>
    <path id="path131734" transform="matrix(3.2709999084472656, 0, 0, -3.2709999084472656, -451.3708192929249, 904.0953703874475)" fill="url(#E)" d="m41.883 56.34c.629-.215-.124.745 0 0"/>
    <g id="g131736" fill="url(#4)">
      <path id="path131738" transform="matrix(3.271 0 0-3.271-744.01 1147.07)" d="m44.3 56.04c-.713-.846.848-.081 0 0"/>
      <path id="path131740" transform="matrix(3.271 0 0-3.271-744.01 1147.07)" d="m42.01 56.91c.469-1.26.764 1.406 0 0"/>
      <path id="path131742" transform="matrix(3.271 0 0-3.271-744.01 1147.07)" d="m45.863 55.782c.232-.281.531.334 0 0"/>
      <path id="path131744" transform="matrix(3.271 0 0-3.271-744.01 1147.07)" d="m47.82 56.676c.7-.151.434.69 0 0"/>
      <path id="path131746" transform="matrix(3.271 0 0-3.271-744.01 1147.07)" d="m44.47 56.48c.608-.222-.12.734 0 0"/>
      <path id="path131748" transform="matrix(3.271 0 0-3.271-744.01 1147.07)" d="m45.973 55.35c.154-1 1.598-.463 0 0"/>
      <path id="path131750" transform="matrix(3.271 0 0-3.271-744.01 1147.07)" d="m47.789 56.11c.331-.399.402.433 0 0"/>
      <path id="path131752" transform="matrix(3.271 0 0-3.271-744.01 1147.07)" d="m48.02 55.903c.497-.312.328.389 0 0"/>
      <path id="path131754" transform="matrix(3.271 0 0-3.271-744.01 1147.07)" d="m47.699 56.801c.826.526-.142 1.088 0-.004v.004"/>
      <path id="path131756" transform="matrix(3.271 0 0-3.271-744.01 1147.07)" d="m47.39 55.47c-.233-1.129 1.361.572 0 0"/>
      <path id="path131758" transform="matrix(3.271 0 0-3.271-744.01 1147.07)" d="m43.695 78.61c.834-.191 1.47.298.699.72-.233-.24-.466-.48-.699-.72"/>
      <path id="path131760" transform="matrix(3.271 0 0-3.271-744.01 1147.07)" d="m46.805 53.848c1.275-.269.71 1.277 0 0"/>
      <path id="path131762" transform="matrix(3.271 0 0-3.271-744.01 1147.07)" d="m45.37 55.832c-1.258-1.71.952-.16 0 0"/>
    </g>
    <path id="path131764" transform="matrix(3.2709999084472656, 0, 0, -3.2709999084472656, -451.3708192929249, 904.0953703874475)" fill="url(#F)" d="m45.582 57.11c.012-.005-.008.021 0 0"/>
    <g id="g131766" fill="url(#4)">
      <path id="path131768" transform="matrix(3.271 0 0-3.271-744.01 1147.07)" d="m45.559 55.16c-.544-1.133.775.129 0 0"/>
      <path id="path131770" transform="matrix(3.271 0 0-3.271-744.01 1147.07)" d="m38.926 55.754c-.701-.869.906-.216 0 .004"/>
      <path id="path131772" transform="matrix(3.271 0 0-3.271-744.01 1147.07)" d="m44.957 56.12c-1.271-1.361.85-.648 0 0"/>
      <path id="path131774" transform="matrix(3.271 0 0-3.271-744.01 1147.07)" d="m45.789 56.11c-.043-.427.332.0001 0 0"/>
      <path id="path131776" transform="matrix(3.271 0 0-3.271-744.01 1147.07)" d="m45.762 56.56c.529-.156-.111.561 0 0"/>
      <path id="path131778" transform="matrix(3.271 0 0-3.271-744.01 1147.07)" d="m45.48 57.692c.189-.88.554.241 0 0"/>
      <path id="path131780" transform="matrix(3.271 0 0-3.271-744.01 1147.07)" d="m45.621 56.903c-.003-.112.042.067 0 0"/>
      <path id="path131782" transform="matrix(3.271 0 0-3.271-744.01 1147.07)" d="m39.484 57.35c-.45-.934.817.346 0 0"/>
      <path id="path131784" transform="matrix(3.271 0 0-3.271-744.01 1147.07)" d="m40.52 67.24c.454-1.446 1.147.474 0 0"/>
      <path id="path131786" transform="matrix(3.271 0 0-3.271-744.01 1147.07)" d="m40.836 67.996c.696-.18.346.854 0 0"/>
      <path id="path131788" transform="matrix(3.271 0 0-3.271-744.01 1147.07)" d="m41.22 67.72c.088-.209.144.211 0 0"/>
      <path id="path131790" transform="matrix(3.271 0 0-3.271-744.01 1147.07)" d="m42.08 72.2c.155-.954 1.55.076 1.141.066-.379-.023-.767-.038-1.141-.066"/>
      <path id="path131792" transform="matrix(3.271 0 0-3.271-744.01 1147.07)" d="m42.07 72.4c.57.095 1.856-.196 1.015.661-.186.385-.739-.552-1.015-.661"/>
      <path id="path131794" transform="matrix(3.271 0 0-3.271-744.01 1147.07)" d="m40.57 67.52c.171-.196.166.288 0 0"/>
      <path id="path131796" transform="matrix(3.271 0 0-3.271-744.01 1147.07)" d="m40.723 67.852c-.209-.143.12-.099 0 0"/>
      <path id="path131798" transform="matrix(3.271 0 0-3.271-744.01 1147.07)" d="m40.727 67.47c.089-.054.016.081 0 0"/>
      <path id="path131800" transform="matrix(3.271 0 0-3.271-744.01 1147.07)" d="m40.73 67.68c.133-.211.165.24 0 0"/>
      <path id="path131802" transform="matrix(3.271 0 0-3.271-744.01 1147.07)" d="m41.29 68.59c.098-1.27.674 1.307.038.049l-.038-.049"/>
      <path id="path131804" transform="matrix(3.271 0 0-3.271-744.01 1147.07)" d="m43.66 78.4c.12-1.088 1.101-.328 1.012.059-.337-.02-.675-.04-1.012-.059"/>
      <path id="path131806" transform="matrix(3.271 0 0-3.271-744.01 1147.07)" d="m43.2 76.42c.119-1.166 1.024-.264 1.063.064-.354-.021-.709-.043-1.063-.064"/>
      <path id="path131808" transform="matrix(3.271 0 0-3.271-744.01 1147.07)" d="m38.832 56.16c.461-.099.463.671 0 0"/>
      <path id="path131810" transform="matrix(3.271 0 0-3.271-744.01 1147.07)" d="m43.23 76.62c.763.003 1.615-.041.793.789-.263-.263-.534-.524-.793-.789"/>
      <path id="path131812" transform="matrix(3.271 0 0-3.271-744.01 1147.07)" d="m44.03 72.74c.149-.909.73 1.291.058.076l-.058-.076"/>
      <path id="path131814" transform="matrix(3.271 0 0-3.271-744.01 1147.07)" d="m43.14 73.37c.469-1.971 1.362 1.777.26.235-.087-.078-.173-.157-.26-.235"/>
      <path id="path131816" transform="matrix(3.271 0 0-3.271-744.01 1147.07)" d="m42.633 74.51c.698.042 1.753-.118.945.773-.145.258-.726-.676-.945-.773"/>
      <path id="path131818" transform="matrix(3.271 0 0-3.271-744.01 1147.07)" d="m43.965 72.31c-.019-1.129.739.261 0 0"/>
      <path id="path131820" transform="matrix(3.271 0 0-3.271-744.01 1147.07)" d="m43.668 75.54c.488-1.437.643-.137.756.705-.129-.02-.539-.515-.756-.705"/>
      <path id="path131822" transform="matrix(3.271 0 0-3.271-744.01 1147.07)" d="m41.531 70.84c.461.13 2.076-.18 1.122.491-.245.331-.811-.408-1.122-.491"/>
      <path id="path131824" transform="matrix(3.271 0 0-3.271-744.01 1147.07)" d="m39.988 65.48c1.078-.122 1.219 1.362 0 0"/>
      <path id="path131826" transform="matrix(3.271 0 0-3.271-744.01 1147.07)" d="m38.06 60.938c1.123-.244 1.339 1.292.263.181-.088-.06-.175-.121-.263-.181"/>
      <path id="path131828" transform="matrix(3.271 0 0-3.271-744.01 1147.07)" d="m39.26 60.03c-.514-1.393.62-.461.153.008l-.113-.006-.04-.002"/>
      <path id="path131830" transform="matrix(3.271 0 0-3.271-744.01 1147.07)" d="m38.26 56.48c.386-.702.46 1.864 0 0"/>
      <path id="path131832" transform="matrix(3.271 0 0-3.271-744.01 1147.07)" d="m38.637 56.21c.939.329-.014 1.573.053.33-.018-.11-.035-.22-.053-.33"/>
      <path id="path131834" transform="matrix(3.271 0 0-3.271-744.01 1147.07)" d="m38.1 56.7c.026-.175.18.294 0 0"/>
      <path id="path131836" transform="matrix(3.271 0 0-3.271-744.01 1147.07)" d="m38.19 57.28c-.301-.626.579.193 0 0"/>
      <path id="path131838" transform="matrix(3.271 0 0-3.271-744.01 1147.07)" d="m39.586 60.31c.226-.057.315.239 0 0"/>
      <path id="path131840" transform="matrix(3.271 0 0-3.271-744.01 1147.07)" d="m38.945 60.668c-.65-.977 1.689.463.097.005l-.097-.005"/>
      <path id="path131842" transform="matrix(3.271 0 0-3.271-744.01 1147.07)" d="m38.22 59.1c1.026-.365.116.928 0 0"/>
      <path id="path131844" transform="matrix(3.271 0 0-3.271-744.01 1147.07)" d="m40.4 64.26c.371-1.577 1.112.561.766.575-.254-.189-.517-.396-.766-.575"/>
      <path id="path131846" transform="matrix(3.271 0 0-3.271-744.01 1147.07)" d="m40.03 63.27c1.212-.361-.062 1.172 0 0"/>
      <path id="path131848" transform="matrix(3.271 0 0-3.271-744.01 1147.07)" d="m40.734 65.2c-.872-1.108 1.322.437 0 0"/>
      <path id="path131850" transform="matrix(3.271 0 0-3.271-744.01 1147.07)" d="m39.02 63.22c1.131-.201 1.323 1.418.254.191-.079-.06-.19-.143-.254-.191"/>
      <path id="path131852" transform="matrix(3.271 0 0-3.271-744.01 1147.07)" d="m39.05 60.02c-.946-.156.279-1.121 0 0"/>
      <path id="path131854" transform="matrix(3.271 0 0-3.271-744.01 1147.07)" d="m39.551 61.965c.606-1.708 1.605 1.618.399.274-.133-.091-.266-.183-.399-.274"/>
      <path id="path131856" transform="matrix(3.271 0 0-3.271-744.01 1147.07)" d="m39.09 60.996c1.712-.441-.093 1.475 0 0"/>
      <path id="path131858" transform="matrix(3.271 0 0-3.271-744.01 1147.07)" d="m39.898 62.946c-.904-1.201 1.532.472 0 0"/>
    </g>
    <path id="path131860" transform="matrix(3.271 0 0-3.271-744.01 1147.07)" fill="url(#G)" d="m41.22 134.65c1.129-.696 1.855-1.957 1.804-3.403-.074-2.195-1.918-3.972-4.113-3.972-.605 0-1.176.14-1.683.386-12.36-21.18-23.547-36.71-23.766-46.816-.129-5.965 5.215-16.305 20.723-26.43.652 1.133 1.269 2.25 1.843 3.348l.114.703-.102-.008h-.008v.012l.039.242.004.012h.008l.102.008.035.234.004.008h.007l.11.008.144.898-.105-.011h-.012l.004.011.039.246v.008h.012l.82.047c.039.086.082.172.121.258.735 1.539 1.383 3.039 1.95 4.508.585 1.504 1.078 2.972 1.488 4.402l-.246.43h-.032v.007l.008.036.094.574v.012h.012l.211.011.062.379.004.008h.008l.308.02c.344 1.046.7 2.246 1.067 3.585.59 2.141 1.211 4.661 1.863 7.547 1.125 4.996 2.348 11.1 3.66 18.317l.02.344-.133 1.023h-.004v.008l.102.609v.012h.008l.093.008.246.011.016.016.062.391-.027.039-.199-.012.019.125h-.007v.012l.07.425v.012h.012l.101.008.028.164-.106-.008h-.008l.004.008.067.426.004.012h.007l.102.007 1.051 1.028c.039.039.09.054.14.047.012 0 .024 0 .035-.008l.063.379-.106-.008h-.007v.008l.05.308.004.008h.008l.102.008.054.324-.105-.008h-.008v.008l.051.305.004.012h.008l.101.007.043.258-.101-.008h-.012l.004.012.051.305v.008h.007l.106.007.039.25-.102-.007h-.011l.004.007.046.305.004.012h.008l.102.008.05.304v.008h.012l.074.008.395 2.414v.008h.008l.168.012h.008v-.012l-.395-2.414h.082v-.008l-.051-.305.106.008h.008v-.008l-.051-.304v-.012h-.012l-.102-.008-.042-.25.105.008h.008v-.012l-.051-.305v-.007h-.012l-.101-.008-.043-.262.105.008h.008v-.012l-.051-.305v-.007h-.011l-.102-.008-.051-.324.102.007h.008v-.007l-.051-.305v-.012h-.012l-.101-.008-.063-.375c.012 0 .02.008.027.008.055.012.102 0 .129-.031l.735-.926.109.008h.008v-.008l-.07-.429-.004-.008h-.008l-.102-.008-.027-.164.105.008h.008v-.008l-.07-.426-.004-.012h-.008l-.019-.117-.196-.012-.043-.043-.066-.406.012-.019.168.011h.011l.153.008h.007v-.008l-.101-.609v-.012h-.008l-.457-1.01-.113-.425c-.297-2.055-.567-4.02-.821-5.887l.004-.008h-.004c-.625-4.668-1.117-8.769-1.468-12.305-.469-4.664-.696-8.332-.684-11.01l.313.019h.011l-.004-.012-.062-.382.215.015h.008v-.011l-.094-.571-.008-.039v-.008h-.035l-.391-.406c-.109-2.801.078-5.715.567-8.742.015-.082.027-.164.043-.246l.824.047h.008v-.012l-.043-.242v-.012h-.008l-.109-.008-.145-.894.109.008h.008l-.004-.008-.035-.235.102.008h.007v-.012l-.042-.242v-.011h-.008l-.102-.008-.117-.715c.078-.379.164-.758.254-1.141h.004v-.015c.207-.883.449-1.782.703-2.68 36 20.422 39.2 34.37 6.949 110.49-4.492-11.11-9.644-21.258-14.777-30.445"/>
  </g>
</svg>