<?xml version="1.0" encoding="utf-8"?>
<svg viewBox="0 0 83 33" xmlns="http://www.w3.org/2000/svg">
  <rect x="-0.354" y="-0.481" width="84.451" height="34.919" style="fill: rgb(0, 72, 128); stroke: rgba(0, 0, 0, 0);"/>
  <g id="Page-1" stroke="none" stroke-width="1" fill="none" fill-rule="evenodd">
    <g id="CAT-Logo_CAT-Logo-Stacked-White" transform="translate(-19.600000, -28.915727)" fill="#FFFFFF" fill-rule="nonzero">
      <g id="Logo-Stacked-White" transform="translate(19.700000, 28.915727)">
        <g id="Fill-Text_3_" transform="translate(36.500000, 1.300000)">
          <path d="M1.6,8.1 C0.9,7.5 0.6,6.7 0.6,5.7 C0.6,5.5 0.6,5.1 0.6,4.6 C0.6,4.1 0.6,3.7 0.6,3.5 C0.6,2.5 1,1.7 1.7,1.1 C2.4,0.5 3.3,0.3 4.4,0.3 C5.1,0.3 5.8,0.4 6.3,0.6 C6.8,0.8 7.3,1.2 7.6,1.6 C7.9,2 8.1,2.6 8.1,3.2 C8.1,3.3 8.1,3.3 8,3.4 C7.9,3.4 7.9,3.5 7.8,3.5 L6.1,3.5 C6,3.5 5.9,3.5 5.9,3.4 C5.8,3.4 5.8,3.3 5.8,3.2 C5.7,2.8 5.5,2.5 5.3,2.4 C5.1,2.2 4.8,2.2 4.4,2.2 C3.5,2.2 3,2.7 3,3.7 C3,3.9 3,4.2 3,4.7 C3,5.2 3,5.5 3,5.7 C3,6.7 3.5,7.2 4.4,7.2 C4.8,7.2 5.1,7.1 5.3,7 C5.5,6.9 5.7,6.6 5.8,6.2 C5.8,6.1 5.9,6 5.9,6 C6,6 6,5.9 6.2,5.9 L7.9,5.9 C8,5.9 8,5.9 8.1,6 C8.2,6 8.2,6.1 8.2,6.2 C8.2,6.8 8,7.3 7.7,7.8 C7.4,8.2 6.9,8.6 6.4,8.8 C5.9,9 5.2,9.1 4.5,9.1 C3.1,8.9 2.2,8.6 1.6,8.1 Z" id="Path"/>
          <path d="M9.2,8.7 C9.1,8.6 9.1,8.6 9.1,8.5 L9.1,0.6 C9.1,0.5 9.1,0.4 9.2,0.4 C9.3,0.3 9.3,0.3 9.4,0.3 L10.9,0.3 C11,0.3 11.1,0.3 11.1,0.4 C11.2,0.5 11.2,0.5 11.2,0.6 L11.2,8.5 C11.2,8.6 11.2,8.6 11.1,8.7 C11,8.8 11,8.8 10.9,8.8 L9.4,8.8 C9.3,8.8 9.3,8.7 9.2,8.7 Z" id="Path"/>
          <path d="M12.7,1.6 C12.6,1.5 12.6,1.5 12.6,1.4 L12.6,0.3 C12.6,0.2 12.6,0.1 12.7,0.1 C12.8,-1.77635684e-15 12.8,-1.77635684e-15 12.9,-1.77635684e-15 L14.4,-1.77635684e-15 C14.5,-1.77635684e-15 14.6,-1.77635684e-15 14.6,0.1 C14.6,0.2 14.7,0.2 14.7,0.3 L14.7,1.4 C14.7,1.5 14.7,1.6 14.6,1.6 C14.5,1.6 14.5,1.7 14.4,1.7 L12.9,1.7 C12.8,1.7 12.7,1.6 12.7,1.6 Z M12.7,8.7 C12.6,8.6 12.6,8.6 12.6,8.5 L12.6,2.9 C12.6,2.8 12.6,2.7 12.7,2.7 C12.8,2.6 12.8,2.6 12.9,2.6 L14.4,2.6 C14.5,2.6 14.6,2.6 14.6,2.7 C14.7,2.8 14.7,2.8 14.7,2.9 L14.7,8.5 C14.7,8.6 14.7,8.7 14.6,8.7 C14.5,8.8 14.5,8.8 14.4,8.8 L12.9,8.8 C12.8,8.8 12.7,8.7 12.7,8.7 Z" id="Shape"/>
          <path d="M16.2,8.7 C16.1,8.6 16.1,8.6 16.1,8.5 L16.1,2.9 C16.1,2.8 16.1,2.7 16.2,2.7 C16.3,2.6 16.3,2.6 16.4,2.6 L17.8,2.6 C17.9,2.6 18,2.6 18,2.7 C18.1,2.8 18.1,2.8 18.1,2.9 L18.1,3.3 C18.3,3.1 18.5,2.9 18.8,2.7 C19.1,2.5 19.4,2.5 19.8,2.5 C20.7,2.5 21.3,2.8 21.6,3.5 C21.8,3.2 22.1,2.9 22.4,2.8 C22.7,2.6 23.1,2.5 23.5,2.5 C24.2,2.5 24.7,2.7 25.1,3.2 C25.5,3.6 25.7,4.3 25.7,5.2 L25.7,8.6 C25.7,8.7 25.7,8.7 25.6,8.8 C25.5,8.9 25.5,8.9 25.4,8.9 L23.9,8.9 C23.8,8.9 23.7,8.9 23.7,8.8 C23.6,8.7 23.6,8.7 23.6,8.6 L23.6,5.3 C23.6,4.9 23.5,4.7 23.4,4.5 C23.2,4.3 23,4.2 22.8,4.2 C22.6,4.2 22.4,4.3 22.2,4.5 C22,4.7 22,4.9 22,5.3 L22,8.6 C22,8.7 22,8.7 21.9,8.8 C21.8,8.9 21.8,8.9 21.7,8.9 L20.2,8.9 C20.1,8.9 20,8.9 20,8.8 C19.9,8.7 19.9,8.7 19.9,8.6 L19.9,5.3 C19.9,4.9 19.8,4.7 19.7,4.5 C19.5,4.3 19.3,4.2 19.1,4.2 C18.9,4.2 18.6,4.3 18.5,4.5 C18.3,4.7 18.3,4.9 18.3,5.3 L18.3,8.6 C18.3,8.7 18.3,8.7 18.2,8.8 C18.1,8.9 18.1,8.9 18,8.9 L16.4,8.9 C16.3,8.8 16.2,8.7 16.2,8.7 Z" id="Path"/>
          <path d="M27.8,8.6 C27.5,8.4 27.2,8.2 27,7.9 C26.8,7.6 26.7,7.3 26.7,7 C26.7,6.5 26.9,6 27.4,5.7 C27.9,5.4 28.5,5.1 29.3,5 L30.8,4.8 L30.8,4.7 C30.8,4.4 30.7,4.2 30.6,4.1 C30.5,4 30.3,3.9 30,3.9 C29.8,3.9 29.7,3.9 29.6,4 C29.5,4.1 29.4,4.1 29.2,4.3 C29.1,4.4 29,4.5 28.9,4.5 C28.9,4.6 28.8,4.6 28.8,4.6 L27.4,4.6 C27.3,4.6 27.3,4.6 27.2,4.5 C27.1,4.4 27.1,4.4 27.1,4.3 C27.1,4.1 27.2,3.8 27.4,3.6 C27.6,3.4 27.9,3.1 28.3,2.9 C28.7,2.7 29.2,2.6 29.9,2.6 C30.9,2.6 31.6,2.8 32.1,3.3 C32.6,3.8 32.8,4.3 32.8,5.1 L32.8,8.7 C32.8,8.8 32.8,8.8 32.7,8.9 C32.6,9 32.6,9 32.5,9 L31,9 C30.9,9 30.8,9 30.8,8.9 C30.7,8.8 30.7,8.8 30.7,8.7 L30.7,8.3 C30.5,8.5 30.3,8.8 30,8.9 C29.7,9.1 29.3,9.1 28.9,9.1 C28.6,8.9 28.2,8.8 27.8,8.6 Z M30.4,7.1 C30.6,6.9 30.7,6.5 30.7,6.1 L30.7,6 L29.7,6.2 C29,6.3 28.7,6.6 28.7,6.9 C28.7,7.1 28.8,7.2 28.9,7.3 C29.1,7.4 29.2,7.5 29.5,7.5 C29.9,7.5 30.2,7.4 30.4,7.1 Z" id="Shape"/>
          <path d="M34.9,6.4 L34.9,4.2 L34,4.2 C33.9,4.2 33.9,4.2 33.8,4.1 C33.7,4 33.7,4 33.7,3.9 L33.7,2.9 C33.7,2.8 33.7,2.7 33.8,2.7 C33.9,2.6 33.9,2.6 34,2.6 L34.9,2.6 L34.9,0.6 C34.9,0.5 34.9,0.4 35,0.4 C35.1,0.3 35.1,0.3 35.2,0.3 L36.7,0.3 C36.8,0.3 36.9,0.3 36.9,0.4 C37,0.5 37,0.5 37,0.6 L37,2.6 L38.5,2.6 C38.6,2.6 38.7,2.6 38.7,2.7 C38.8,2.8 38.8,2.8 38.8,2.9 L38.8,3.9 C38.8,4 38.8,4.1 38.7,4.1 C38.6,4.2 38.6,4.2 38.5,4.2 L37,4.2 L37,6.2 C37,6.5 37.1,6.7 37.2,6.8 C37.3,6.9 37.5,7 37.7,7 L38.6,7 C38.7,7 38.8,7 38.8,7.1 C38.8,7.2 38.9,7.2 38.9,7.3 L38.9,8.4 C38.9,8.5 38.9,8.5 38.8,8.6 C38.7,8.7 38.7,8.7 38.6,8.7 L37.4,8.7 C35.7,8.8 34.9,8 34.9,6.4 Z" id="Path"/>
          <path d="M40.5,8.1 C39.9,7.6 39.7,6.8 39.6,5.8 L39.6,5.4 C39.6,4.4 39.9,3.7 40.5,3.2 C41.1,2.7 41.8,2.4 42.8,2.4 C43.5,2.4 44.1,2.5 44.5,2.8 C45,3.1 45.3,3.5 45.6,3.9 C45.8,4.4 46,4.9 46,5.6 L46,5.9 C46,6 46,6.1 45.9,6.1 C45.8,6.2 45.8,6.2 45.7,6.2 L41.9,6.2 L41.9,6.3 C41.9,6.7 42,7 42.2,7.2 C42.4,7.4 42.6,7.5 42.9,7.5 C43.1,7.5 43.2,7.5 43.4,7.4 C43.5,7.3 43.6,7.2 43.7,7.1 C43.8,7 43.8,7 43.9,7 C44,7 44,7 44.1,7 L45.7,7 C45.8,7 45.8,7 45.9,7.1 C46,7.2 46,7.2 46,7.3 C46,7.5 45.9,7.8 45.6,8 C45.4,8.3 45,8.5 44.6,8.7 C44.1,8.9 43.6,9 43,9 C41.8,8.9 41,8.6 40.5,8.1 Z M43.7,5 L43.7,5 C43.7,4.6 43.6,4.3 43.4,4.1 C43.2,3.9 43,3.8 42.7,3.8 C42.4,3.8 42.2,3.9 42,4.1 C41.8,4.3 41.8,4.6 41.8,5 L41.8,5 L43.7,5 Z" id="Shape"/>
          <path d="M0.1,19.7 C0,19.6 0,19.6 0,19.5 C0,19.5 0,19.4 0,19.4 L2.8,11.7 C2.9,11.5 3,11.4 3.3,11.4 L5.2,11.4 C5.4,11.4 5.6,11.5 5.7,11.7 L8.5,19.4 C8.5,19.4 8.5,19.5 8.5,19.5 C8.5,19.6 8.5,19.6 8.4,19.7 C8.3,19.8 8.3,19.8 8.2,19.8 L6.6,19.8 C6.4,19.8 6.3,19.7 6.2,19.5 L5.8,18.3 L2.7,18.3 L2.3,19.5 C2.2,19.7 2.1,19.8 1.9,19.8 L0.3,19.8 C0.2,19.8 0.2,19.7 0.1,19.7 Z M3.2,16.5 L5.3,16.5 L4.2,13.4 L3.2,16.5 Z" id="Shape"/>
          <path d="M9.9,19.2 C9.3,18.7 9,18 9,17.2 L9,16.7 L9,16.2 C9,15.3 9.3,14.7 9.9,14.2 C10.5,13.7 11.2,13.5 12.1,13.5 C12.8,13.5 13.4,13.6 13.9,13.9 C14.4,14.1 14.7,14.4 15,14.8 C15.2,15.1 15.4,15.4 15.4,15.7 C15.4,15.8 15.4,15.9 15.3,15.9 C15.2,16 15.2,16 15.1,16 L13.4,16 C13.3,16 13.2,16 13.2,15.9 C13.2,15.9 13.1,15.8 13.1,15.7 C13,15.5 12.9,15.3 12.8,15.2 C12.7,15.1 12.5,15 12.3,15 C11.7,15 11.4,15.4 11.3,16.2 L11.3,16.7 L11.3,17.1 C11.3,17.5 11.4,17.8 11.6,18 C11.8,18.2 12,18.3 12.3,18.3 C12.5,18.3 12.7,18.3 12.8,18.2 C12.9,18.1 13,17.9 13.1,17.7 C13.1,17.6 13.2,17.5 13.2,17.5 C13.2,17.5 13.3,17.4 13.4,17.4 L15,17.4 C15.1,17.4 15.2,17.4 15.2,17.5 C15.3,17.6 15.3,17.6 15.3,17.7 C15.3,17.9 15.2,18.2 15,18.6 C14.8,18.9 14.4,19.3 13.9,19.5 C13.4,19.8 12.8,19.9 12.1,19.9 C11.2,19.9 10.5,19.6 9.9,19.2 Z" id="Path"/>
          <path d="M17,17.4 L17,15.2 L16.1,15.2 C16,15.2 16,15.2 15.9,15.1 C15.8,15 15.8,15 15.8,14.9 L15.8,13.9 C15.8,13.8 15.8,13.7 15.9,13.7 C16,13.6 16,13.6 16.1,13.6 L17,13.6 L17,11.6 C17,11.5 17,11.4 17.1,11.4 C17.2,11.3 17.2,11.3 17.3,11.3 L18.8,11.3 C18.9,11.3 19,11.3 19,11.4 C19.1,11.5 19.1,11.5 19.1,11.6 L19.1,13.6 L20.6,13.6 C20.7,13.6 20.8,13.6 20.8,13.7 C20.9,13.8 20.9,13.8 20.9,13.9 L20.9,14.9 C20.9,15 20.9,15.1 20.8,15.1 C20.7,15.2 20.7,15.2 20.6,15.2 L19.1,15.2 L19.1,17.2 C19.1,17.5 19.2,17.7 19.3,17.8 C19.4,17.9 19.6,18 19.8,18 L20.7,18 C20.8,18 20.9,18 20.9,18.1 C20.9,18.2 21,18.2 21,18.3 L21,19.4 C21,19.5 21,19.5 20.9,19.6 C20.8,19.7 20.8,19.7 20.7,19.7 L19.6,19.7 C17.9,19.8 17,19 17,17.4 Z" id="Path"/>
          <path d="M22.1,12.6 C22,12.5 22,12.5 22,12.4 L22,11.3 C22,11.2 22,11.1 22.1,11.1 C22.2,11 22.2,11 22.3,11 L23.8,11 C23.9,11 24,11 24,11.1 C24,11.2 24.1,11.2 24.1,11.3 L24.1,12.4 C24.1,12.5 24.1,12.6 24,12.6 C23.9,12.6 23.9,12.7 23.8,12.7 L22.3,12.7 C22.2,12.7 22.1,12.6 22.1,12.6 Z M22.1,19.7 C22,19.6 22,19.6 22,19.5 L22,13.9 C22,13.8 22,13.7 22.1,13.7 C22.2,13.6 22.2,13.6 22.3,13.6 L23.8,13.6 C23.9,13.6 24,13.6 24,13.7 C24.1,13.8 24.1,13.8 24.1,13.9 L24.1,19.5 C24.1,19.6 24.1,19.7 24,19.7 C23.9,19.8 23.9,19.8 23.8,19.8 L22.3,19.8 C22.2,19.8 22.2,19.7 22.1,19.7 Z" id="Shape"/>
          <path d="M26.2,19.2 C25.7,18.7 25.4,18.1 25.3,17.2 C25.3,17.1 25.3,16.9 25.3,16.7 C25.3,16.4 25.3,16.3 25.3,16.2 C25.3,15.4 25.6,14.7 26.2,14.2 C26.8,13.7 27.5,13.5 28.5,13.5 C29.5,13.5 30.2,13.7 30.8,14.2 C31.4,14.7 31.7,15.3 31.7,16.2 C31.7,16.4 31.7,16.6 31.7,16.7 C31.7,16.9 31.7,17 31.7,17.2 C31.7,18.1 31.4,18.7 30.8,19.2 C30.3,19.7 29.5,19.9 28.5,19.9 C27.5,19.9 26.7,19.6 26.2,19.2 Z M29.2,18.1 C29.4,17.9 29.5,17.6 29.5,17.2 C29.5,17.1 29.5,17 29.5,16.7 C29.5,16.5 29.5,16.3 29.5,16.2 C29.5,15.8 29.4,15.5 29.2,15.3 C29,15.1 28.8,15 28.5,15 C28.2,15 27.9,15.1 27.8,15.3 C27.6,15.5 27.5,15.8 27.5,16.2 L27.5,16.7 L27.5,17.2 C27.5,17.6 27.6,17.9 27.8,18.1 C28,18.3 28.2,18.4 28.5,18.4 C28.8,18.4 29.1,18.3 29.2,18.1 Z" id="Shape"/>
          <path d="M32.9,19.7 C32.8,19.6 32.8,19.6 32.8,19.5 L32.8,13.9 C32.8,13.8 32.8,13.7 32.9,13.7 C33,13.6 33,13.6 33.1,13.6 L34.6,13.6 C34.7,13.6 34.8,13.6 34.8,13.7 C34.9,13.8 34.9,13.8 34.9,13.9 L34.9,14.4 C35.1,14.1 35.4,13.9 35.7,13.8 C36,13.6 36.4,13.6 36.9,13.6 C37.4,13.6 37.8,13.7 38.1,13.9 C38.4,14.1 38.7,14.4 38.9,14.8 C39.1,15.2 39.2,15.7 39.2,16.3 L39.2,19.6 C39.2,19.7 39.2,19.7 39.1,19.8 C39,19.9 39,19.9 38.9,19.9 L37.4,19.9 C37.3,19.9 37.2,19.9 37.2,19.8 C37.1,19.7 37.1,19.7 37.1,19.6 L37.1,16.3 C37.1,15.9 37,15.7 36.8,15.5 C36.6,15.3 36.4,15.2 36,15.2 C35.7,15.2 35.4,15.3 35.2,15.5 C35,15.7 34.9,16 34.9,16.3 L34.9,19.6 C34.9,19.7 34.9,19.7 34.8,19.8 C34.7,19.9 34.7,19.9 34.6,19.9 L33,19.9 C33.1,19.8 33,19.7 32.9,19.7 Z" id="Path"/>
          <path d="M0.7,30.7 C0.6,30.6 0.6,30.6 0.6,30.5 L0.6,28.9 C0.6,28.8 0.6,28.7 0.7,28.7 C0.8,28.6 0.8,28.6 0.9,28.6 L2.5,28.6 C2.6,28.6 2.7,28.6 2.7,28.7 C2.8,28.8 2.8,28.8 2.8,28.9 L2.8,30.5 C2.8,30.6 2.8,30.6 2.7,30.7 C2.6,30.8 2.6,30.8 2.5,30.8 L0.9,30.8 C0.8,30.8 0.7,30.7 0.7,30.7 Z" id="Path"/>
          <path d="M4.5,28.4 L4.5,26.2 L3.6,26.2 C3.5,26.2 3.5,26.2 3.4,26.1 C3.3,26 3.3,26 3.3,25.9 L3.3,24.9 C3.3,24.8 3.3,24.7 3.4,24.7 C3.5,24.6 3.5,24.6 3.6,24.6 L4.5,24.6 L4.5,22.6 C4.5,22.5 4.5,22.4 4.6,22.4 C4.7,22.3 4.7,22.3 4.8,22.3 L6.3,22.3 C6.4,22.3 6.5,22.3 6.5,22.4 C6.6,22.5 6.6,22.5 6.6,22.6 L6.6,24.6 L8.1,24.6 C8.2,24.6 8.3,24.6 8.3,24.7 C8.3,24.7 8.4,24.7 8.4,24.8 L8.4,25.8 C8.4,25.9 8.4,26 8.3,26 C8.2,26.1 8.2,26.1 8.1,26.1 L6.6,26.1 L6.6,28.1 C6.6,28.4 6.7,28.6 6.8,28.7 C6.9,28.8 7.1,28.9 7.3,28.9 L8.2,28.9 C8.3,28.9 8.4,28.9 8.4,29 C8.4,29.1 8.5,29.1 8.5,29.2 L8.5,30.3 C8.5,30.4 8.5,30.4 8.4,30.5 C8.3,30.6 8.3,30.6 8.2,30.6 L7.1,30.6 C5.3,30.8 4.5,30 4.5,28.4 Z" id="Path"/>
          <path d="M10.1,30.1 C9.5,29.6 9.3,28.8 9.2,27.8 L9.2,27.4 C9.2,26.4 9.5,25.7 10.1,25.2 C10.7,24.7 11.4,24.4 12.4,24.4 C13.1,24.4 13.7,24.5 14.1,24.8 C14.6,25.1 14.9,25.5 15.2,25.9 C15.4,26.4 15.6,26.9 15.6,27.6 L15.6,27.9 C15.6,28 15.6,28.1 15.5,28.1 C15.4,28.2 15.4,28.2 15.3,28.2 L11.4,28.2 L11.4,28.3 C11.4,28.7 11.5,29 11.7,29.2 C11.9,29.4 12.1,29.5 12.4,29.5 C12.6,29.5 12.7,29.5 12.9,29.4 C13,29.3 13.1,29.2 13.2,29.1 C13.3,29 13.3,29 13.4,29 C13.5,29 13.5,29 13.6,29 L15.2,29 C15.3,29 15.3,29 15.4,29.1 C15.5,29.2 15.5,29.2 15.5,29.3 C15.5,29.5 15.4,29.8 15.1,30 C14.9,30.3 14.5,30.5 14.1,30.7 C13.6,30.9 13.1,31 12.5,31 C11.4,30.9 10.6,30.6 10.1,30.1 Z M13.3,27 L13.3,27 C13.3,26.6 13.2,26.3 13,26.1 C12.8,25.9 12.6,25.8 12.3,25.8 C12,25.8 11.8,25.9 11.6,26.1 C11.4,26.3 11.4,26.6 11.4,27 L11.4,27 L13.3,27 Z" id="Shape"/>
          <path d="M17.3,30.2 C16.7,29.7 16.4,29 16.4,28.2 L16.4,27.7 L16.4,27.2 C16.4,26.3 16.7,25.7 17.3,25.2 C17.9,24.7 18.6,24.5 19.5,24.5 C20.2,24.5 20.8,24.6 21.3,24.9 C21.8,25.1 22.1,25.4 22.4,25.8 C22.6,26.1 22.8,26.4 22.8,26.7 C22.8,26.8 22.8,26.9 22.7,26.9 C22.6,27 22.6,27 22.5,27 L20.9,27 C20.8,27 20.7,27 20.7,26.9 C20.7,26.9 20.6,26.8 20.6,26.7 C20.5,26.5 20.4,26.3 20.3,26.2 C20.2,26.1 20,26 19.8,26 C19.2,26 18.9,26.4 18.8,27.2 L18.8,27.7 L18.8,28.1 C18.8,28.5 18.9,28.8 19.1,29 C19.3,29.2 19.5,29.3 19.8,29.3 C20,29.3 20.2,29.3 20.3,29.2 C20.4,29.1 20.5,28.9 20.6,28.7 C20.6,28.6 20.7,28.5 20.7,28.5 C20.7,28.5 20.8,28.4 20.9,28.4 L22.4,28.4 C22.5,28.4 22.6,28.4 22.6,28.5 C22.7,28.6 22.7,28.6 22.7,28.7 C22.7,28.9 22.6,29.2 22.4,29.6 C22.2,29.9 21.8,30.3 21.3,30.5 C20.8,30.8 20.2,30.9 19.5,30.9 C18.6,30.9 17.8,30.6 17.3,30.2 Z" id="Path"/>
          <path d="M23.8,30.7 C23.7,30.6 23.7,30.6 23.7,30.5 L23.7,22.6 C23.7,22.5 23.7,22.4 23.8,22.4 C23.9,22.3 23.9,22.3 24,22.3 L25.6,22.3 C25.7,22.3 25.8,22.3 25.8,22.4 C25.9,22.5 25.9,22.5 25.9,22.6 L25.9,25.3 C26.4,24.8 27,24.5 27.8,24.5 C28.3,24.5 28.7,24.6 29,24.8 C29.4,25 29.7,25.3 29.9,25.7 C30.1,26.1 30.2,26.6 30.2,27.2 L30.2,30.5 C30.2,30.6 30.2,30.7 30.1,30.7 C30,30.8 30,30.8 29.9,30.8 L28.3,30.8 C28.2,30.8 28.1,30.8 28.1,30.7 C28,30.6 28,30.6 28,30.5 L28,27.2 C28,26.8 27.9,26.6 27.7,26.4 C27.5,26.2 27.3,26.1 26.9,26.1 C26.6,26.1 26.3,26.2 26.1,26.4 C25.9,26.6 25.8,26.9 25.8,27.2 L25.8,30.5 C25.8,30.6 25.8,30.7 25.7,30.7 C25.6,30.8 25.6,30.8 25.5,30.8 L23.9,30.8 C23.9,30.8 23.9,30.7 23.8,30.7 Z" id="Path"/>
        </g>
        <g id="Fill-Black_4_">
          <path d="M14.9,9 C15.5,9 15.9,8.6 15.9,8 L15.9,1 C15.9,0.4 15.5,0 14.9,0 C14.3,0 13.9,0.4 13.9,1 L13.9,8 C13.9,8.6 14.3,9 14.9,9 Z" id="Path"/>
          <circle id="Oval" cx="20.4" cy="13.5" r="3.5"/>
          <path d="M20.3,3 C19.8,2.8 19.2,3.1 19,3.6 C18.8,4.1 19.1,4.7 19.6,4.9 C24.6,6.8 28,11.7 28,17 C28,18.6 27.7,20 27.2,21.4 C22.1,21.1 19.6,20 17.6,19.1 C16.2,18.5 14.9,17.9 13.2,17.9 C11.3,17.9 10.2,18.7 9.1,19.5 C7.9,20.4 6.4,21.5 2.9,21.8 C2.3,20.3 1.9,18.6 1.9,16.9 C1.9,11.6 5.3,6.7 10.3,4.8 C10.8,4.6 11.1,4 10.9,3.5 C10.7,3 10.1,2.7 9.6,2.9 C3.8,5.1 -1.77635684e-15,10.7 -1.77635684e-15,16.9 C-1.77635684e-15,25.2 6.7,31.9 15,31.9 C23.3,31.9 30,25.2 30,16.9 C29.9,10.8 26,5.2 20.3,3 Z M7.9,28 C9.3,27.5 10.3,26.8 11,26.2 C12,25.5 12.6,25 13.8,25 C15.1,25 15.9,25.4 17.1,25.9 C18.4,26.4 19.9,27.1 22.4,27.5 C20.4,29 17.8,30 14.9,30 C12.3,30 9.9,29.2 7.9,28 Z M24.5,25.7 C21.2,25.3 19.4,24.6 18,24 C16.7,23.5 15.6,23 13.9,23 C12,23 11,23.8 9.9,24.5 C9,25.2 7.9,25.9 6,26.4 C5.2,25.6 4.5,24.7 3.8,23.8 C7.4,23.4 9,22.1 10.2,21.2 C11.2,20.5 11.8,20 13,20 C14.3,20 15.2,20.4 16.6,21 C18.5,21.9 21.1,23 26.1,23.4 C25.7,24.2 25.2,25 24.5,25.7 Z" id="Shape"/>
        </g>
      </g>
    </g>
  </g>
</svg>