<?xml version="1.0" encoding="utf-8"?>
<svg viewBox="0 0 1400 600" xmlns="http://www.w3.org/2000/svg">
  <g transform="matrix(0.1, 0, 0, -0.1, 0, 704.872375)" fill="#000000" stroke="none">
    <path d="M0 4000 l0 -4000 7000 0 7000 0 0 4000 0 4000 -7000 0 -7000 0 0 -4000z m4295 2672 c565 -87 1056 -335 1460 -737 162 -160 242 -258 359 -435 213 -322 340 -649 407 -1040 27 -160 37 -513 20 -686 -33 -327 -122 -626 -276 -930 -388 -763 -1094 -1278 -1955 -1425 -159 -27 -497 -37 -661 -20 -1291 135 -2257 1099 -2415 2411 -21 176 -24 580 -5 745 17 153 47 323 77 435 25 98 73 240 81 240 2 0 27 -10 54 -21 27 -12 51 -20 52 -18 1 2 22 42 46 89 262 502 663 893 1176 1145 297 146 578 227 920 265 135 15 512 4 660 -18z m5705 -1232 l0 -220 51 35 c71 49 145 69 235 63 130 -9 226 -75 283 -197 l26 -56 3 -367 3 -368 -90 0 -91 0 0 318 c0 181 -4 332 -10 353 -16 57 -51 102 -100 127 -105 53 -232 4 -284 -108 -20 -42 -21 -65 -24 -367 l-3 -323 -90 0 -89 0 0 665 0 665 90 0 90 0 0 -220z m-2230 90 l0 -90 -220 0 -220 0 0 -185 0 -185 195 0 195 0 0 -85 0 -85 -195 0 -195 0 0 -200 0 -200 230 0 230 0 0 -85 0 -85 -325 0 -325 0 0 645 0 645 315 0 315 0 0 -90z m1770 -135 l0 -95 105 0 105 0 0 -80 0 -80 -106 0 -106 0 4 -272 c3 -249 5 -276 23 -313 25 -50 54 -65 128 -65 l57 0 0 -86 0 -86 -104 4 c-94 3 -108 6 -152 34 -27 16 -61 48 -76 71 -51 75 -58 130 -58 435 l0 278 -55 0 -55 0 0 80 0 80 55 0 55 0 0 95 0 95 90 0 90 0 0 -95z m-1118 -100 c65 -23 132 -85 165 -153 l28 -57 3 -377 3 -378 -79 0 c-75 0 -80 1 -86 23 l-6 24 -62 -31 c-58 -29 -69 -31 -173 -31 -90 1 -120 5 -166 23 -73 29 -143 91 -177 156 -23 44 -27 63 -27 141 0 78 4 97 27 141 58 111 168 173 320 182 82 4 148 -8 237 -45 11 -4 13 6 9 53 -5 75 -28 122 -73 153 -72 49 -244 37 -353 -24 -25 -14 -48 -25 -52 -25 -7 0 -80 123 -80 135 0 18 162 88 242 105 65 14 245 5 300 -15z m818 -63 l0 -88 -66 -11 c-83 -14 -129 -48 -166 -123 -39 -77 -48 -159 -48 -437 l0 -243 -90 0 -90 0 0 485 0 485 90 0 90 0 0 -47 0 -47 28 26 c59 55 133 86 210 87 l42 1 0 -88z m-840 -1192 l0 -220 51 35 c71 49 145 69 235 63 130 -9 226 -75 283 -197 l26 -56 3 -367 3 -368 -90 0 -91 0 0 318 c0 181 -4 332 -10 353 -16 57 -51 102 -100 127 -105 53 -232 4 -284 -108 -20 -42 -21 -65 -24 -367 l-3 -323 -90 0 -89 0 0 665 0 665 90 0 90 0 0 -220z m-516 180 c80 -20 203 -79 231 -110 15 -17 15 -23 -11 -94 -15 -42 -30 -78 -33 -80 -4 -3 -32 13 -64 34 -81 55 -159 82 -251 88 -195 12 -353 -79 -436 -252 -87 -183 -70 -391 45 -544 49 -65 91 -97 180 -139 55 -26 69 -28 180 -28 139 0 192 16 301 91 72 49 65 53 104 -54 18 -49 20 -65 10 -76 -23 -29 -109 -77 -191 -108 -109 -40 -256 -49 -373 -23 -249 55 -436 246 -492 499 -51 235 32 503 203 655 156 139 389 194 597 141z m2916 -225 l0 -95 105 0 105 0 0 -80 0 -80 -106 0 -106 0 4 -272 c3 -249 5 -276 23 -313 25 -50 54 -65 128 -65 l57 0 0 -86 0 -86 -104 4 c-94 3 -108 6 -152 34 -27 16 -61 48 -76 71 -51 75 -58 130 -58 435 l0 278 -55 0 -55 0 0 80 0 80 55 0 55 0 0 95 0 95 90 0 90 0 0 -95z m-1118 -100 c65 -23 132 -85 165 -153 l28 -57 3 -377 3 -378 -79 0 c-75 0 -80 1 -86 23 l-6 24 -62 -31 c-58 -29 -69 -31 -173 -31 -90 1 -120 5 -166 23 -73 29 -143 91 -177 156 -23 44 -27 63 -27 141 0 78 4 97 27 141 58 111 168 173 320 182 82 4 148 -8 237 -45 11 -4 13 6 9 53 -5 75 -28 122 -73 153 -72 49 -244 37 -353 -24 -25 -14 -48 -25 -52 -25 -7 0 -80 123 -80 135 0 18 162 88 242 105 65 14 245 5 300 -15z m818 -63 l0 -88 -66 -11 c-83 -14 -129 -48 -166 -123 -39 -77 -48 -159 -48 -437 l0 -243 -90 0 -90 0 0 485 0 485 90 0 90 0 0 -47 0 -47 28 26 c59 55 133 86 210 87 l42 1 0 -88z m1089 77 c161 -37 295 -177 330 -347 6 -29 11 -87 11 -127 l0 -75 -371 0 -371 0 7 -37 c10 -55 42 -124 73 -156 50 -53 118 -80 212 -85 111 -5 181 19 253 89 28 27 53 49 55 49 7 0 122 -83 122 -88 0 -11 -55 -78 -89 -110 -42 -38 -138 -87 -201 -101 -66 -15 -197 -13 -265 4 -217 57 -353 241 -354 480 -1 153 50 287 143 381 54 54 147 108 214 123 52 12 178 13 231 0z m901 -77 l0 -88 -66 -11 c-83 -14 -129 -48 -166 -123 -39 -77 -48 -159 -48 -437 l0 -243 -90 0 -90 0 0 485 0 485 90 0 90 0 0 -47 0 -47 28 26 c59 55 133 86 210 87 l42 1 0 -88z m253 -648 c58 -42 76 -149 36 -205 -60 -84 -208 -77 -254 11 -38 73 1 184 75 213 30 12 116 1 143 -19z" style="fill: rgb(0, 93, 200);"/>
    <path d="M3573 6505 c-236 -31 -488 -102 -696 -195 -134 -60 -330 -171 -320 -181 10 -10 722 -319 734 -319 6 0 40 24 77 53 280 224 676 425 1027 522 188 53 184 49 73 74 -203 47 -257 52 -528 56 -187 3 -295 0 -367 -10z" style="fill: rgb(0, 93, 200);"/>
    <path d="M4640 6269 c-314 -72 -621 -195 -883 -353 -108 -65 -281 -185 -275 -191 4 -4 857 -375 869 -378 7 -1 419 923 419 940 0 7 -52 0 -130 -18z" style="fill: rgb(0, 93, 200);"/>
    <path d="M4731 5748 c-120 -277 -200 -473 -195 -478 8 -8 817 -363 855 -375 14 -5 14 5 2 97 -47 378 -182 768 -385 1115 -33 57 -63 105 -66 107 -4 2 -99 -207 -211 -466z" style="fill: rgb(0, 93, 200);"/>
    <path d="M5190 6157 c0 -2 31 -65 70 -141 177 -352 282 -712 320 -1101 6 -60 12 -110 13 -111 52 -27 731 -314 735 -310 9 10 -36 197 -79 327 -168 509 -504 958 -944 1263 -98 68 -115 79 -115 73z" style="fill: rgb(0, 93, 200);"/>
    <path d="M2294 5944 c-187 -157 -393 -398 -510 -594 -71 -119 -124 -215 -124 -227 0 -9 818 -369 824 -362 1 2 28 52 59 111 131 250 301 489 484 679 65 67 112 123 107 128 -8 7 -749 331 -758 331 -1 0 -39 -30 -82 -66z" style="fill: rgb(0, 93, 200);"/>
    <path d="M3199 5472 c-182 -186 -294 -331 -415 -534 -67 -114 -137 -248 -132 -253 6 -7 557 -245 565 -245 4 1 32 39 62 85 193 301 516 494 888 530 l71 7 25 56 c14 32 22 60 18 63 -5 5 -792 349 -927 405 l-31 13 -124 -127z" style="fill: rgb(0, 93, 200);"/>
    <path d="M4441 5083 c-14 -30 -7 -43 22 -43 49 0 320 -90 345 -114 1 -2 -45 -113 -103 -246 -58 -134 -104 -244 -102 -246 2 -2 39 16 82 41 175 100 339 140 573 140 l162 0 0 36 c0 29 -5 38 -27 48 -31 14 -742 324 -864 376 l-77 33 -11 -25z" style="fill: rgb(0, 93, 200);"/>
    <path d="M1487 4983 c-11 -19 -49 -205 -68 -331 -29 -199 -36 -567 -15 -772 54 -509 232 -954 545 -1365 100 -131 321 -352 446 -446 550 -412 1242 -585 1900 -473 496 84 959 316 1314 659 466 450 720 1009 765 1684 l5 73 -142 -5 c-166 -5 -263 -30 -406 -101 -215 -108 -421 -320 -503 -516 -24 -57 -19 -57 -126 -9 -35 16 -61 32 -58 37 2 4 99 226 215 492 145 332 207 486 199 491 -6 4 -51 15 -99 24 -133 26 -362 17 -482 -19 -282 -84 -488 -262 -622 -537 -29 -59 -51 -93 -60 -91 -23 4 -145 62 -145 68 0 3 95 224 211 491 116 267 207 489 202 494 -4 4 -37 16 -73 26 -51 14 -101 18 -235 17 -155 -1 -178 -3 -260 -28 -178 -53 -308 -130 -435 -255 -94 -94 -163 -199 -224 -339 -79 -182 -180 -294 -331 -367 -96 -46 -184 -67 -285 -68 -119 0 -189 17 -308 74 -84 40 -115 62 -175 122 -90 90 -129 163 -166 309 -58 227 -122 350 -238 460 -104 98 -329 229 -346 201z m259 -325 c28 -26 35 -65 19 -105 -16 -37 -41 -53 -85 -53 -44 0 -69 16 -85 54 -41 97 74 175 151 104z" style="fill: rgb(0, 93, 200);"/>
    <path d="M2130 4688 c34 -59 79 -183 105 -289 26 -109 43 -159 54 -159 4 0 19 42 34 93 16 50 42 129 59 175 17 45 29 84 27 86 -6 6 -286 126 -293 126 -3 0 3 -15 14 -32z" style="fill: rgb(0, 93, 200);"/>
    <path d="M5590 4596 c0 -18 4 -20 128 -66 45 -17 82 -37 82 -44 0 -6 -49 -124 -109 -261 -60 -138 -108 -251 -106 -253 1 -2 37 18 79 44 185 112 403 173 619 174 l87 0 0 43 0 42 -372 162 c-450 195 -408 179 -408 159z" style="fill: rgb(0, 93, 200);"/>
    <path d="M2532 4398 c-37 -110 -92 -300 -92 -321 0 -16 127 -67 198 -79 142 -24 305 29 410 134 49 48 110 135 101 142 -6 4 -566 246 -571 246 -2 0 -23 -55 -46 -122z" style="fill: rgb(0, 93, 200);"/>
    <path d="M8119 4777 c-66 -35 -92 -79 -87 -147 8 -108 70 -155 208 -155 97 0 143 20 179 79 29 47 28 122 -2 167 -51 78 -202 106 -298 56z" style="fill: rgb(0, 93, 200);"/>
    <path d="M9379 3377 c-66 -35 -92 -79 -87 -147 8 -108 70 -155 208 -155 97 0 143 20 179 79 29 47 28 122 -2 167 -51 78 -202 106 -298 56z" style="fill: rgb(0, 93, 200);"/>
    <path d="M11398 3746 c-81 -22 -153 -91 -183 -175 -8 -24 -15 -47 -15 -52 0 -5 122 -9 270 -9 217 0 270 3 270 13 0 33 -34 108 -66 145 -62 73 -178 106 -276 78z" style="fill: rgb(0, 93, 200);"/>
    <path d="M12593 3160 c-57 -34 -67 -134 -18 -180 28 -27 95 -37 134 -20 40 16 65 70 58 124 -11 83 -100 122 -174 76z m113 -45 c15 -22 15 -28 2 -47 -13 -19 -13 -27 -1 -55 12 -29 11 -33 -3 -33 -9 0 -21 14 -27 30 -6 17 -17 30 -24 30 -8 0 -13 -12 -13 -30 0 -20 -5 -30 -15 -30 -12 0 -15 16 -15 80 l0 80 40 0 c31 0 43 -5 56 -25z" style="fill: rgb(0, 93, 200);"/>
    <path d="M12640 3090 c0 -15 5 -20 18 -18 9 2 17 10 17 18 0 8 -8 16 -17 18 -13 2 -18 -3 -18 -18z" style="fill: rgb(0, 93, 200);"/>
  </g>
</svg>