<?xml version="1.0" encoding="utf-8"?>
<svg viewBox="0 0 216 100" xmlns="http://www.w3.org/2000/svg">
  <defs>
    <linearGradient id="_Linear1" x1="0" y1="0" x2="1" y2="0" gradientUnits="userSpaceOnUse" gradientTransform="matrix(130.408737, 0, 0, -31.264687, 42.266406, 14.017958)">
      <stop offset="0" style="stop-color:#71cc44;stop-opacity:1"/>
      <stop offset="0.43" style="stop-color:#4fbf65;stop-opacity:1"/>
      <stop offset="1" style="stop-color:#00a2af;stop-opacity:1"/>
    </linearGradient>
  </defs>
  <path d="M 94.216 83.896 C 93.514 83.896 92.871 83.732 92.284 83.402 C 91.697 83.073 91.233 82.617 90.89 82.034 C 90.546 81.451 90.375 80.792 90.375 80.055 C 90.375 79.325 90.546 78.669 90.89 78.086 C 91.233 77.503 91.697 77.047 92.284 76.718 C 92.871 76.389 93.514 76.225 94.216 76.225 C 94.924 76.225 95.569 76.389 96.152 76.718 C 96.735 77.047 97.197 77.503 97.536 78.086 C 97.876 78.669 98.046 79.325 98.046 80.055 C 98.046 80.792 97.876 81.451 97.536 82.034 C 97.197 82.617 96.734 83.073 96.147 83.402 C 95.56 83.732 94.917 83.896 94.216 83.896 Z M 124.087 76.331 L 124.087 80.966 C 124.087 81.474 124.219 81.862 124.483 82.131 C 124.748 82.399 125.12 82.533 125.599 82.533 C 126.086 82.533 126.461 82.399 126.726 82.131 C 126.991 81.862 127.123 81.474 127.123 80.966 L 127.123 76.331 L 128.636 76.331 L 128.636 80.956 C 128.636 81.593 128.498 82.131 128.223 82.571 C 127.947 83.01 127.579 83.342 127.118 83.563 C 126.656 83.785 126.143 83.896 125.578 83.896 C 125.02 83.896 124.514 83.785 124.06 83.563 C 123.606 83.342 123.246 83.01 122.981 82.571 C 122.717 82.131 122.584 81.593 122.584 80.956 L 122.584 76.331 L 124.087 76.331 Z M 100.643 76.331 L 100.643 80.966 C 100.643 81.474 100.775 81.862 101.039 82.131 C 101.304 82.399 101.676 82.533 102.155 82.533 C 102.642 82.533 103.017 82.399 103.282 82.131 C 103.547 81.862 103.679 81.474 103.679 80.966 L 103.679 76.331 L 105.192 76.331 L 105.192 80.956 C 105.192 81.593 105.054 82.131 104.779 82.571 C 104.503 83.01 104.135 83.342 103.674 83.563 C 103.212 83.785 102.699 83.896 102.134 83.896 C 101.576 83.896 101.07 83.785 100.616 83.563 C 100.162 83.342 99.802 83.01 99.537 82.571 C 99.273 82.131 99.14 81.593 99.14 80.956 L 99.14 76.331 L 100.643 76.331 Z M 132.67 83.896 C 132.148 83.896 131.677 83.806 131.259 83.627 C 130.841 83.449 130.51 83.191 130.267 82.855 C 130.023 82.519 129.898 82.122 129.891 81.664 L 131.501 81.664 C 131.522 81.972 131.631 82.215 131.828 82.393 C 132.025 82.572 132.294 82.662 132.638 82.662 C 132.988 82.662 133.264 82.578 133.464 82.409 C 133.664 82.242 133.765 82.022 133.765 81.75 C 133.765 81.528 133.697 81.346 133.561 81.203 C 133.425 81.059 133.254 80.947 133.051 80.864 C 132.847 80.783 132.566 80.691 132.208 80.591 C 131.722 80.448 131.327 80.307 131.023 80.167 C 130.719 80.028 130.458 79.817 130.24 79.534 C 130.022 79.252 129.912 78.874 129.912 78.403 C 129.912 77.959 130.023 77.573 130.245 77.243 C 130.467 76.914 130.778 76.663 131.178 76.487 C 131.58 76.312 132.037 76.225 132.552 76.225 C 133.324 76.225 133.952 76.412 134.435 76.788 C 134.918 77.163 135.185 77.687 135.234 78.359 L 133.582 78.359 C 133.568 78.102 133.459 77.889 133.254 77.721 C 133.051 77.553 132.781 77.469 132.445 77.469 C 132.151 77.469 131.917 77.544 131.742 77.694 C 131.567 77.844 131.479 78.062 131.479 78.349 C 131.479 78.549 131.545 78.715 131.677 78.848 C 131.81 78.98 131.974 79.087 132.171 79.169 C 132.368 79.252 132.645 79.347 133.003 79.454 C 133.489 79.597 133.886 79.74 134.194 79.883 C 134.501 80.026 134.766 80.24 134.987 80.527 C 135.21 80.813 135.32 81.189 135.32 81.653 C 135.32 82.054 135.217 82.426 135.009 82.769 C 134.802 83.112 134.498 83.386 134.097 83.59 C 133.697 83.794 133.221 83.896 132.67 83.896 Z M 118.657 83.896 C 118.135 83.896 117.665 83.806 117.246 83.627 C 116.828 83.449 116.497 83.191 116.254 82.855 C 116.011 82.519 115.886 82.122 115.879 81.664 L 117.488 81.664 C 117.509 81.972 117.619 82.215 117.815 82.393 C 118.012 82.572 118.282 82.662 118.625 82.662 C 118.976 82.662 119.251 82.578 119.452 82.409 C 119.651 82.242 119.752 82.022 119.752 81.75 C 119.752 81.528 119.684 81.346 119.548 81.203 C 119.412 81.059 119.242 80.947 119.039 80.864 C 118.835 80.783 118.554 80.691 118.196 80.591 C 117.709 80.448 117.315 80.307 117.01 80.167 C 116.706 80.028 116.445 79.817 116.227 79.534 C 116.009 79.252 115.9 78.874 115.9 78.403 C 115.9 77.959 116.011 77.573 116.232 77.243 C 116.454 76.914 116.765 76.663 117.166 76.487 C 117.566 76.312 118.024 76.225 118.54 76.225 C 119.312 76.225 119.939 76.412 120.422 76.788 C 120.905 77.163 121.172 77.687 121.222 78.359 L 119.57 78.359 C 119.555 78.102 119.446 77.889 119.242 77.721 C 119.039 77.553 118.768 77.469 118.432 77.469 C 118.139 77.469 117.904 77.544 117.729 77.694 C 117.554 77.844 117.466 78.062 117.466 78.349 C 117.466 78.549 117.533 78.715 117.665 78.848 C 117.797 78.98 117.962 79.087 118.158 79.169 C 118.355 79.252 118.633 79.347 118.99 79.454 C 119.476 79.597 119.874 79.74 120.181 79.883 C 120.489 80.026 120.753 80.24 120.975 80.527 C 121.196 80.813 121.307 81.189 121.307 81.653 C 121.307 82.054 121.204 82.426 120.997 82.769 C 120.789 83.112 120.485 83.386 120.085 83.59 C 119.684 83.794 119.208 83.896 118.657 83.896 Z M 78.336 78.585 C 78.164 78.27 77.928 78.03 77.628 77.866 C 77.327 77.701 76.977 77.619 76.576 77.619 C 76.133 77.619 75.74 77.719 75.396 77.92 C 75.053 78.12 74.784 78.406 74.591 78.778 C 74.398 79.15 74.301 79.579 74.301 80.065 C 74.301 80.566 74.4 81.002 74.597 81.375 C 74.793 81.746 75.067 82.032 75.417 82.233 C 75.768 82.433 76.176 82.533 76.641 82.533 C 77.213 82.533 77.681 82.382 78.046 82.077 C 78.411 81.773 78.651 81.349 78.765 80.806 L 76.19 80.806 L 76.19 79.658 L 80.246 79.658 L 80.246 80.966 C 80.145 81.489 79.931 81.972 79.602 82.415 C 79.273 82.859 78.849 83.214 78.331 83.483 C 77.812 83.751 77.231 83.885 76.587 83.885 C 75.865 83.885 75.212 83.722 74.629 83.397 C 74.046 83.071 73.588 82.619 73.255 82.04 C 72.923 81.461 72.756 80.802 72.756 80.065 C 72.756 79.329 72.923 78.669 73.255 78.086 C 73.588 77.503 74.046 77.048 74.629 76.723 C 75.212 76.398 75.861 76.235 76.576 76.235 C 77.42 76.235 78.154 76.44 78.776 76.852 C 79.398 77.263 79.827 77.841 80.064 78.585 L 78.336 78.585 Z M 53.647 80.065 C 53.647 79.329 53.813 78.669 54.146 78.086 C 54.478 77.503 54.933 77.048 55.508 76.723 C 56.084 76.398 56.73 76.235 57.446 76.235 C 58.283 76.235 59.016 76.45 59.645 76.879 C 60.274 77.308 60.714 77.902 60.965 78.66 L 59.237 78.66 C 59.066 78.302 58.824 78.034 58.513 77.855 C 58.202 77.677 57.842 77.587 57.435 77.587 C 56.998 77.587 56.61 77.689 56.271 77.893 C 55.931 78.097 55.666 78.384 55.476 78.756 C 55.287 79.129 55.192 79.565 55.192 80.065 C 55.192 80.559 55.287 80.994 55.476 81.369 C 55.666 81.744 55.931 82.034 56.271 82.238 C 56.61 82.442 56.998 82.544 57.435 82.544 C 57.842 82.544 58.202 82.453 58.513 82.27 C 58.824 82.088 59.066 81.818 59.237 81.461 L 60.965 81.461 C 60.714 82.226 60.276 82.821 59.65 83.247 C 59.025 83.672 58.29 83.885 57.446 83.885 C 56.73 83.885 56.084 83.722 55.508 83.397 C 54.933 83.071 54.478 82.619 54.146 82.04 C 53.813 81.461 53.647 80.802 53.647 80.065 Z M 180.427 82.63 L 182.895 82.63 L 182.895 83.821 L 178.925 83.821 L 178.925 76.331 L 180.427 76.331 L 180.427 82.63 Z M 141.715 76.331 L 141.715 77.544 L 139.72 77.544 L 139.72 83.821 L 138.217 83.821 L 138.217 77.544 L 136.221 77.544 L 136.221 76.331 L 141.715 76.331 Z M 191.929 76.331 L 191.929 77.544 L 189.934 77.544 L 189.934 83.821 L 188.431 83.821 L 188.431 77.544 L 186.436 77.544 L 186.436 76.331 L 191.929 76.331 Z M 185.352 76.331 L 185.352 83.821 L 183.849 83.821 L 183.849 76.331 L 185.352 76.331 Z M 20.032 82.393 L 17.049 82.393 L 16.555 83.821 L 14.978 83.821 L 17.671 76.321 L 19.42 76.321 L 22.113 83.821 L 20.526 83.821 L 20.032 82.393 Z M 177.444 76.331 L 177.444 83.821 L 175.942 83.821 L 175.942 76.331 L 177.444 76.331 Z M 110.503 83.821 L 108.85 80.902 L 108.143 80.902 L 108.143 83.821 L 106.64 83.821 L 106.64 76.331 L 109.451 76.331 C 110.031 76.331 110.524 76.434 110.932 76.638 C 111.339 76.841 111.645 77.117 111.85 77.464 C 112.054 77.81 112.155 78.199 112.155 78.628 C 112.155 79.121 112.012 79.566 111.726 79.964 C 111.44 80.361 111.014 80.634 110.449 80.784 L 112.241 83.821 L 110.503 83.821 Z M 37.542 76.331 L 34.795 83.821 L 32.972 83.821 L 30.225 76.331 L 31.834 76.331 L 33.894 82.286 L 35.943 76.331 L 37.542 76.331 Z M 173.292 79.98 C 173.714 80.058 174.061 80.269 174.333 80.613 C 174.605 80.956 174.74 81.349 174.74 81.793 C 174.74 82.194 174.642 82.546 174.445 82.85 C 174.248 83.154 173.964 83.391 173.592 83.563 C 173.22 83.735 172.78 83.821 172.273 83.821 L 169.043 83.821 L 169.043 76.331 L 172.133 76.331 C 172.641 76.331 173.079 76.414 173.447 76.578 C 173.816 76.743 174.095 76.972 174.285 77.265 C 174.474 77.559 174.568 77.891 174.568 78.263 C 174.568 78.699 174.452 79.064 174.22 79.357 C 173.988 79.651 173.678 79.858 173.292 79.98 Z M 165.953 82.393 L 162.97 82.393 L 162.477 83.821 L 160.9 83.821 L 163.593 76.321 L 165.341 76.321 L 168.034 83.821 L 166.446 83.821 L 165.953 82.393 Z M 151.994 76.331 L 151.994 83.821 L 150.492 83.821 L 150.492 76.331 L 151.994 76.331 Z M 147.401 82.393 L 144.419 82.393 L 143.926 83.821 L 142.348 83.821 L 145.041 76.321 L 146.79 76.321 L 149.483 83.821 L 147.895 83.821 L 147.401 82.393 Z M 63.754 76.331 L 63.754 83.821 L 62.252 83.821 L 62.252 76.331 L 63.754 76.331 Z M 52.531 83.821 L 51.029 83.821 L 47.628 78.681 L 47.628 83.821 L 46.126 83.821 L 46.126 76.321 L 47.628 76.321 L 51.029 81.471 L 51.029 76.321 L 52.531 76.321 L 52.531 83.821 Z M 71.64 83.821 L 70.139 83.821 L 66.737 78.681 L 66.737 83.821 L 65.235 83.821 L 65.235 76.321 L 66.737 76.321 L 70.139 81.471 L 70.139 76.321 L 71.64 76.321 L 71.64 83.821 Z M 43.035 82.393 L 40.053 82.393 L 39.56 83.821 L 37.982 83.821 L 40.675 76.321 L 42.424 76.321 L 45.117 83.821 L 43.529 83.821 L 43.035 82.393 Z M 159.88 83.821 L 158.378 83.821 L 154.977 78.681 L 154.977 83.821 L 153.474 83.821 L 153.474 76.321 L 154.977 76.321 L 158.378 81.471 L 158.378 76.321 L 159.88 76.321 L 159.88 83.821 Z M 25.74 76.331 C 26.527 76.331 27.218 76.485 27.816 76.793 C 28.413 77.1 28.875 77.538 29.2 78.107 C 29.525 78.676 29.688 79.336 29.688 80.087 C 29.688 80.838 29.525 81.494 29.2 82.056 C 28.875 82.617 28.413 83.052 27.816 83.359 C 27.218 83.667 26.527 83.821 25.74 83.821 L 23.122 83.821 L 23.122 76.331 L 25.74 76.331 Z M 198.978 76.331 L 196.446 81.213 L 196.446 83.821 L 194.943 83.821 L 194.943 81.213 L 192.4 76.331 L 194.096 76.331 L 195.706 79.754 L 197.304 76.331 L 198.978 76.331 Z M 89.869 76.331 L 87.337 81.213 L 87.337 83.821 L 85.835 83.821 L 85.835 81.213 L 83.293 76.331 L 84.988 76.331 L 86.597 79.754 L 88.196 76.331 L 89.869 76.331 Z M 172.058 82.597 C 172.422 82.597 172.707 82.511 172.911 82.34 C 173.114 82.168 173.216 81.925 173.216 81.611 C 173.216 81.289 173.109 81.036 172.894 80.854 C 172.68 80.672 172.39 80.581 172.025 80.581 L 170.545 80.581 L 170.545 82.597 L 172.058 82.597 Z M 94.215 82.555 C 94.666 82.555 95.063 82.453 95.406 82.249 C 95.749 82.045 96.017 81.753 96.211 81.375 C 96.404 80.995 96.5 80.556 96.5 80.055 C 96.5 79.554 96.404 79.116 96.211 78.74 C 96.017 78.365 95.749 78.077 95.406 77.876 C 95.063 77.677 94.666 77.576 94.215 77.576 C 93.764 77.576 93.365 77.677 93.019 77.876 C 92.672 78.077 92.402 78.365 92.208 78.74 C 92.015 79.116 91.919 79.554 91.919 80.055 C 91.919 80.556 92.015 80.995 92.208 81.375 C 92.402 81.753 92.672 82.045 93.019 82.249 C 93.365 82.453 93.764 82.555 94.215 82.555 Z M 25.685 82.544 C 26.472 82.544 27.08 82.329 27.51 81.9 C 27.939 81.471 28.153 80.867 28.153 80.087 C 28.153 79.307 27.939 78.698 27.51 78.257 C 27.08 77.818 26.472 77.598 25.685 77.598 L 24.623 77.598 L 24.623 82.544 L 25.685 82.544 Z M 42.627 81.192 L 41.543 78.059 L 40.46 81.192 L 42.627 81.192 Z M 146.993 81.192 L 145.91 78.059 L 144.826 81.192 L 146.993 81.192 Z M 165.545 81.192 L 164.461 78.059 L 163.377 81.192 L 165.545 81.192 Z M 19.623 81.192 L 18.54 78.059 L 17.456 81.192 L 19.623 81.192 Z M 108.142 79.776 L 109.398 79.776 C 109.805 79.776 110.109 79.677 110.309 79.481 C 110.51 79.284 110.61 79.011 110.61 78.66 C 110.61 78.317 110.51 78.05 110.309 77.86 C 110.109 77.671 109.805 77.576 109.398 77.576 L 108.142 77.576 L 108.142 79.776 Z M 170.545 79.421 L 171.918 79.421 C 172.276 79.421 172.551 79.341 172.745 79.18 C 172.937 79.019 173.034 78.788 173.034 78.488 C 173.034 78.187 172.937 77.955 172.745 77.791 C 172.551 77.626 172.276 77.544 171.918 77.544 L 170.545 77.544 L 170.545 79.421 Z" style="fill:#68cb48;fill-rule:nonzero;"/>
  <path id="_-Curves-" d="M 97.875 49.512 C 92.523 49.512 88.179 53.857 88.179 59.209 C 88.179 64.56 92.523 68.905 97.875 68.905 C 103.227 68.905 107.571 64.56 107.571 59.209 C 107.571 53.857 103.227 49.512 97.875 49.512 Z M 131.655 59.534 C 131.655 57.712 132.023 56.112 132.761 54.735 C 133.498 53.358 134.512 52.289 135.803 51.53 C 137.094 50.772 138.53 50.391 140.114 50.391 C 141.675 50.391 143.031 50.728 144.181 51.401 C 145.33 52.073 146.187 52.919 146.751 53.938 L 146.751 50.684 L 149.744 50.684 L 149.744 68.514 L 146.751 68.514 L 146.751 65.195 C 146.165 66.236 145.292 67.099 144.132 67.781 C 142.972 68.465 141.621 68.806 140.082 68.806 C 138.498 68.806 137.066 68.416 135.787 67.635 C 134.507 66.854 133.498 65.759 132.761 64.349 C 132.023 62.939 131.655 61.334 131.655 59.534 Z M 113.729 54.003 C 114.336 52.941 115.225 52.073 116.396 51.401 C 117.568 50.728 118.902 50.391 120.398 50.391 C 122.003 50.391 123.445 50.772 124.725 51.53 C 126.005 52.289 127.013 53.358 127.751 54.735 C 128.488 56.112 128.857 57.712 128.857 59.534 C 128.857 61.334 128.488 62.939 127.751 64.349 C 127.013 65.759 125.999 66.855 124.708 67.635 C 123.418 68.416 121.981 68.806 120.398 68.806 C 118.858 68.806 117.508 68.47 116.348 67.798 C 115.187 67.126 114.314 66.268 113.729 65.228 L 113.729 68.514 L 110.768 68.514 L 110.768 44.438 L 113.729 44.438 L 113.729 54.003 Z M 73.808 52.409 C 73.179 51.086 72.268 50.061 71.075 49.334 C 69.882 48.607 68.494 48.244 66.91 48.244 C 65.327 48.244 63.902 48.607 62.633 49.334 C 61.364 50.061 60.366 51.102 59.639 52.458 C 58.912 53.813 58.55 55.381 58.55 57.159 C 58.55 58.938 58.912 60.499 59.639 61.844 C 60.366 63.189 61.364 64.224 62.633 64.951 C 63.902 65.678 65.327 66.041 66.91 66.041 C 69.123 66.041 70.945 65.38 72.376 64.056 C 73.808 62.733 74.643 60.944 74.881 58.688 L 65.837 58.688 L 65.837 56.281 L 78.038 56.281 L 78.038 58.558 C 77.864 60.423 77.278 62.132 76.28 63.682 C 75.283 65.233 73.971 66.458 72.344 67.358 C 70.717 68.259 68.906 68.709 66.91 68.709 C 64.806 68.709 62.888 68.215 61.152 67.229 C 59.417 66.242 58.045 64.869 57.037 63.113 C 56.028 61.356 55.524 59.371 55.524 57.159 C 55.524 54.947 56.028 52.957 57.037 51.189 C 58.045 49.421 59.417 48.044 61.152 47.057 C 62.888 46.07 64.806 45.577 66.91 45.577 C 69.318 45.577 71.449 46.173 73.304 47.366 C 75.158 48.559 76.508 50.24 77.354 52.409 L 73.808 52.409 Z M 157.715 44.438 L 157.715 68.514 L 154.754 68.514 L 154.754 44.438 L 157.715 44.438 Z M 84.903 44.438 L 84.903 68.514 L 81.942 68.514 L 81.942 44.438 L 84.903 44.438 Z M 100.794 50.767 C 100.566 50.925 100.13 51.162 99.96 51.336 C 99.798 51.502 99.861 51.847 99.664 51.952 C 99.469 52.057 99.066 51.891 98.783 51.965 C 98.485 52.043 98.095 52.36 97.874 52.421 C 97.737 52.458 97.559 52.363 97.455 52.328 C 97.381 52.304 97.291 52.277 97.253 52.212 C 97.198 52.113 97.111 51.864 97.121 51.737 C 97.131 51.623 97.339 51.563 97.318 51.45 C 97.297 51.333 97.024 51.144 96.992 51.033 C 96.966 50.942 97.171 50.868 97.129 50.783 C 97.079 50.684 96.885 50.427 96.697 50.438 C 96.307 50.462 94.994 50.916 94.79 50.925 C 94.715 50.927 94.752 50.876 94.841 50.809 C 94.182 51.047 93.56 51.361 92.983 51.739 C 93.114 51.841 93.27 52.08 93.395 52.131 C 93.524 52.186 93.697 52.027 93.815 52.079 C 93.932 52.13 94.247 52.38 94.101 52.44 C 93.942 52.504 93.075 52.489 92.863 52.465 C 92.802 52.458 92.864 52.344 92.831 52.295 C 92.787 52.229 92.614 52.127 92.556 52.037 C 92.387 52.163 92.222 52.295 92.062 52.433 C 92.294 52.465 92.537 52.754 92.766 52.83 C 93.037 52.92 93.375 52.968 93.602 53.02 C 93.778 53.059 93.953 53.175 94.13 53.141 C 94.311 53.106 94.567 52.846 94.69 52.813 C 94.762 52.793 94.813 52.895 94.872 52.939 C 94.931 52.984 94.973 53.059 95.046 53.079 C 95.163 53.112 95.568 53.086 95.578 53.136 C 95.59 53.187 95.256 53.316 95.11 53.381 C 94.981 53.438 94.818 53.497 94.709 53.524 C 94.628 53.545 94.531 53.506 94.458 53.544 C 94.292 53.634 93.806 53.952 93.71 54.059 C 93.663 54.111 93.834 54.136 93.883 54.189 C 93.977 54.289 94.108 54.62 94.272 54.662 C 94.437 54.704 94.761 54.547 94.872 54.437 C 94.978 54.333 94.801 54.068 94.939 54.004 C 95.091 53.932 95.527 53.976 95.785 54.007 C 96.022 54.035 96.364 54.126 96.481 54.186 C 96.536 54.214 96.463 54.307 96.482 54.363 C 96.517 54.465 96.708 54.705 96.687 54.798 C 96.666 54.891 96.472 54.894 96.357 54.922 C 96.183 54.964 95.824 55.023 95.641 55.05 C 95.514 55.069 95.293 55.022 95.258 55.086 C 95.224 55.15 95.474 55.355 95.434 55.435 C 95.394 55.514 95.146 55.495 95.021 55.563 C 94.85 55.656 94.595 55.896 94.411 55.991 C 94.258 56.069 94.029 56.06 93.911 56.133 C 93.805 56.2 93.785 56.346 93.699 56.433 C 93.573 56.56 93.257 56.722 93.158 56.897 C 93.062 57.068 93.185 57.434 93.106 57.48 C 93.027 57.525 92.848 57.221 92.681 57.17 C 92.513 57.12 92.236 57.186 92.099 57.174 C 92.014 57.166 91.94 57.083 91.856 57.095 C 91.714 57.115 91.377 57.222 91.248 57.296 C 91.162 57.346 91.127 57.462 91.084 57.537 C 91.046 57.604 90.968 57.676 90.993 57.75 C 91.023 57.836 91.127 58.021 91.262 58.055 C 91.431 58.096 91.867 57.953 92.002 58 C 92.117 58.04 92.025 58.234 92.075 58.339 C 92.154 58.502 92.406 58.81 92.474 58.977 C 92.521 59.093 92.473 59.266 92.482 59.347 C 92.486 59.374 92.519 59.406 92.533 59.431 C 92.698 59.39 92.885 59.368 93.037 59.404 C 93.371 59.484 93.902 59.82 94.206 60.032 C 94.459 60.208 94.703 60.474 94.86 60.673 C 94.991 60.84 94.966 61.117 95.15 61.23 C 95.389 61.376 96.073 61.449 96.293 61.554 C 96.403 61.606 96.502 61.745 96.474 61.857 C 96.431 62.033 96.128 62.346 96.033 62.61 C 95.938 62.874 96.051 63.255 95.904 63.44 C 95.757 63.626 95.321 63.603 95.15 63.725 C 95.004 63.829 94.974 64.039 94.876 64.175 C 94.781 64.306 94.68 64.444 94.558 64.543 C 94.439 64.64 94.226 64.671 94.148 64.768 C 94.071 64.864 94.159 65.027 94.088 65.127 C 93.978 65.285 93.587 65.492 93.488 65.713 C 93.39 65.934 93.529 66.308 93.497 66.454 C 93.48 66.531 93.378 66.591 93.295 66.59 C 93.199 66.588 92.996 66.553 92.924 66.446 C 92.838 66.318 92.781 65.962 92.777 65.82 C 92.775 65.735 92.904 65.681 92.901 65.595 C 92.887 65.288 92.733 64.446 92.697 63.972 C 92.666 63.563 92.728 62.983 92.685 62.747 C 92.667 62.648 92.502 62.635 92.437 62.556 C 92.218 62.287 91.43 61.574 91.366 61.136 C 91.303 60.697 91.92 60.19 92.059 59.926 C 92.121 59.807 92.081 59.617 92.203 59.552 C 92.24 59.532 92.288 59.511 92.345 59.49 C 92.315 59.487 92.288 59.48 92.269 59.466 C 92.202 59.418 92.215 59.243 92.129 59.174 C 91.928 59.015 91.291 58.629 91.069 58.514 C 90.988 58.472 90.88 58.519 90.795 58.487 C 90.635 58.427 90.223 58.275 90.113 58.156 C 90.024 58.059 90.154 57.87 90.139 57.774 C 90.128 57.701 90.059 57.648 90.026 57.582 C 89.953 57.434 89.781 56.96 89.699 56.887 C 89.619 56.817 89.575 57.095 89.533 57.148 C 89.514 57.174 89.463 57.238 89.454 57.207 C 89.431 57.135 89.466 56.867 89.399 56.713 C 89.385 56.68 89.361 56.646 89.33 56.611 C 89.08 57.433 88.946 58.305 88.946 59.209 C 88.946 64.137 92.947 68.138 97.875 68.138 C 102.803 68.138 106.804 64.137 106.804 59.209 C 106.804 58.547 106.732 57.903 106.596 57.281 C 106.372 57.294 106.019 57.159 105.88 57.145 C 105.788 57.136 105.679 57.129 105.615 57.066 C 105.5 56.953 105.293 56.606 105.194 56.469 C 105.138 56.393 105.065 56.327 105.018 56.246 C 104.957 56.138 104.939 55.929 104.823 55.82 C 104.7 55.706 104.359 55.632 104.283 55.56 C 104.237 55.516 104.34 55.449 104.366 55.392 C 104.421 55.274 104.697 54.948 104.611 54.85 C 104.525 54.752 104.023 54.841 103.851 54.801 C 103.743 54.777 103.689 54.619 103.584 54.613 C 103.48 54.606 103.329 54.769 103.22 54.763 C 103.111 54.757 103.004 54.627 102.93 54.575 C 102.877 54.537 102.842 54.426 102.78 54.451 C 102.675 54.492 102.396 54.803 102.302 54.822 C 102.209 54.841 102.277 54.634 102.216 54.566 C 102.13 54.47 101.905 54.271 101.788 54.242 C 101.687 54.217 101.588 54.341 101.517 54.393 C 101.455 54.437 101.413 54.509 101.36 54.555 C 101.311 54.597 101.264 54.651 101.2 54.669 C 101.026 54.717 100.44 54.91 100.318 54.842 C 100.197 54.774 100.41 54.369 100.471 54.262 C 100.508 54.2 100.655 54.266 100.687 54.203 C 100.727 54.123 100.656 53.884 100.712 53.788 C 100.768 53.691 100.946 53.683 101.026 53.625 C 101.096 53.575 101.118 53.47 101.197 53.437 C 101.414 53.346 102.035 53.182 102.325 53.08 C 102.534 53.008 102.9 52.932 102.938 52.831 C 102.976 52.73 102.652 52.472 102.552 52.473 C 102.452 52.475 102.473 52.804 102.339 52.836 C 102.206 52.869 101.882 52.719 101.75 52.668 C 101.674 52.638 101.589 52.583 101.549 52.53 C 101.511 52.482 101.477 52.408 101.506 52.354 C 101.538 52.293 101.669 52.229 101.744 52.16 C 101.877 52.037 102.055 51.638 102.298 51.451 C 101.823 51.179 101.32 50.95 100.794 50.767 Z M 146.751 59.566 C 146.751 58.222 146.48 57.051 145.937 56.053 C 145.395 55.055 144.663 54.291 143.742 53.759 C 142.819 53.228 141.805 52.962 140.699 52.962 C 139.593 52.962 138.585 53.222 137.674 53.743 C 136.763 54.263 136.036 55.022 135.494 56.02 C 134.952 57.018 134.681 58.189 134.681 59.534 C 134.681 60.9 134.952 62.088 135.494 63.097 C 136.036 64.105 136.763 64.875 137.674 65.407 C 138.585 65.938 139.593 66.203 140.699 66.203 C 141.805 66.203 142.819 65.938 143.742 65.407 C 144.663 64.875 145.395 64.105 145.937 63.097 C 146.48 62.088 146.751 60.912 146.751 59.566 Z M 125.831 59.534 C 125.831 58.189 125.56 57.018 125.018 56.02 C 124.476 55.022 123.743 54.263 122.822 53.743 C 121.9 53.222 120.886 52.962 119.78 52.962 C 118.695 52.962 117.692 53.228 116.77 53.759 C 115.849 54.291 115.111 55.061 114.558 56.069 C 114.005 57.077 113.728 58.244 113.728 59.566 C 113.728 60.912 114.005 62.088 114.558 63.097 C 115.111 64.105 115.849 64.875 116.77 65.407 C 117.692 65.938 118.695 66.203 119.78 66.203 C 120.886 66.203 121.9 65.938 122.822 65.407 C 123.743 64.875 124.476 64.105 125.018 63.097 C 125.56 62.088 125.831 60.9 125.831 59.534 Z M 103.264 55.504 C 103.163 55.487 103.058 55.516 102.955 55.513 C 102.812 55.507 102.564 55.551 102.399 55.469 C 102.225 55.383 102.088 55.068 101.912 54.995 C 101.739 54.923 101.509 54.94 101.346 55.031 C 101.014 55.216 100.234 55.801 99.919 56.107 C 99.702 56.319 99.541 56.671 99.455 56.875 C 99.395 57.016 99.311 57.204 99.404 57.328 C 99.589 57.578 100.201 58.18 100.566 58.369 C 100.866 58.525 101.311 58.339 101.591 58.463 C 101.872 58.587 102.101 58.972 102.249 59.112 C 102.321 59.18 102.451 59.209 102.48 59.302 C 102.55 59.531 102.543 60.152 102.672 60.494 C 102.793 60.814 103.13 61.144 103.255 61.352 C 103.329 61.475 103.298 61.666 103.422 61.745 C 103.59 61.851 103.999 62.107 104.262 61.986 C 104.538 61.859 104.932 61.21 105.079 60.981 C 105.147 60.877 105.102 60.735 105.145 60.619 C 105.199 60.469 105.367 60.268 105.408 60.079 C 105.449 59.889 105.41 59.665 105.39 59.483 C 105.371 59.317 105.229 59.149 105.285 58.991 C 105.348 58.81 105.665 58.547 105.768 58.399 C 105.832 58.309 105.863 58.202 105.906 58.101 C 105.95 57.995 106.101 57.866 106.038 57.763 C 105.976 57.66 105.67 57.613 105.53 57.484 C 105.366 57.333 105.194 57.051 105.055 56.857 C 104.929 56.681 104.808 56.503 104.695 56.32 C 104.579 56.134 104.563 55.855 104.365 55.741 C 104.127 55.605 103.499 55.541 103.264 55.504 Z M 106.091 59.993 C 105.975 60.03 105.778 60.211 105.722 60.315 C 105.672 60.406 105.762 60.522 105.752 60.619 C 105.742 60.715 105.589 60.84 105.658 60.895 C 105.728 60.95 106.052 61.067 106.166 60.947 C 106.292 60.813 106.431 60.251 106.418 60.092 C 106.41 59.984 106.199 59.958 106.091 59.993 Z M 95.743 51.918 C 95.545 51.867 95.21 51.997 95.137 52.03 C 95.08 52.056 95.244 52.093 95.302 52.116 C 95.444 52.171 95.875 52.238 95.984 52.361 C 96.094 52.484 95.943 52.76 95.961 52.855 C 95.97 52.904 96.047 52.913 96.093 52.936 C 96.147 52.962 96.213 53.006 96.281 53.013 C 96.357 53.021 96.503 53.056 96.55 52.983 C 96.613 52.884 96.776 52.573 96.658 52.417 C 96.524 52.24 95.997 51.983 95.743 51.918 Z" style="fill:#00a5ab;"/>
  <path d="M 45.466 30.545 C 45.466 28.724 45.835 27.124 46.573 25.747 C 47.31 24.37 48.324 23.301 49.615 22.542 C 50.905 21.783 52.342 21.403 53.926 21.403 C 55.488 21.403 56.843 21.739 57.993 22.412 C 59.142 23.085 59.999 23.93 60.563 24.95 L 60.563 21.696 L 63.556 21.696 L 63.556 39.525 L 60.563 39.525 L 60.563 36.207 C 59.977 37.248 59.104 38.11 57.944 38.793 C 56.783 39.477 55.433 39.818 53.893 39.818 C 52.309 39.818 50.878 39.428 49.598 38.647 C 48.319 37.866 47.31 36.771 46.573 35.361 C 45.835 33.951 45.466 32.346 45.466 30.545 Z M 120.947 39.753 C 119.363 39.753 117.938 39.482 116.669 38.94 C 115.4 38.398 114.397 37.616 113.659 36.597 C 112.922 35.578 112.542 34.374 112.52 32.986 L 117.401 32.986 C 117.466 33.918 117.797 34.656 118.393 35.198 C 118.99 35.74 119.809 36.011 120.85 36.011 C 121.913 36.011 122.748 35.757 123.355 35.247 C 123.962 34.737 124.265 34.07 124.265 33.246 C 124.265 32.574 124.06 32.021 123.648 31.587 C 123.235 31.153 122.72 30.812 122.102 30.562 C 121.484 30.313 120.632 30.036 119.548 29.732 C 118.074 29.299 116.875 28.871 115.953 28.447 C 115.031 28.024 114.239 27.384 113.578 26.528 C 112.917 25.671 112.586 24.527 112.586 23.095 C 112.586 21.751 112.922 20.58 113.594 19.582 C 114.267 18.584 115.21 17.819 116.425 17.288 C 117.64 16.757 119.027 16.491 120.589 16.491 C 122.931 16.491 124.835 17.06 126.299 18.199 C 127.763 19.338 128.571 20.926 128.723 22.965 L 123.713 22.965 C 123.669 22.185 123.338 21.539 122.72 21.03 C 122.102 20.519 121.283 20.265 120.264 20.265 C 119.375 20.265 118.664 20.492 118.133 20.948 C 117.601 21.403 117.336 22.065 117.336 22.932 C 117.336 23.54 117.536 24.044 117.938 24.445 C 118.339 24.847 118.838 25.172 119.434 25.421 C 120.031 25.671 120.871 25.958 121.956 26.284 C 123.43 26.718 124.634 27.152 125.567 27.585 C 126.499 28.019 127.302 28.669 127.975 29.537 C 128.647 30.405 128.984 31.543 128.984 32.953 C 128.984 34.168 128.668 35.296 128.04 36.337 C 127.411 37.378 126.489 38.208 125.274 38.826 C 124.06 39.444 122.617 39.753 120.947 39.753 Z M 163.958 24.462 L 163.958 20.59 C 163.958 18.378 164.587 16.751 165.845 15.71 C 167.103 14.669 169.001 14.181 171.538 14.246 L 171.538 18.085 C 170.432 18.063 169.663 18.248 169.229 18.638 C 168.795 19.028 168.578 19.733 168.578 20.753 L 168.578 23.639 L 175.41 22.424 L 175.41 17.044 L 179.998 17.044 L 179.998 21.608 L 184.134 20.873 L 184.134 25.026 L 179.998 25.762 L 179.998 33.962 C 179.998 34.569 180.144 35.009 180.437 35.28 C 180.729 35.551 181.223 35.686 181.917 35.686 L 184.032 35.686 L 184.032 39.525 L 181.169 39.525 C 177.33 39.525 175.41 37.66 175.41 33.93 L 175.41 26.577 L 168.578 27.793 L 168.578 39.525 L 163.958 39.525 L 163.958 28.615 L 161.822 28.995 L 161.822 24.841 L 163.958 24.462 Z M 32.843 19.256 L 32.843 26.837 L 41.107 26.837 L 41.107 29.277 L 32.843 29.277 L 32.843 37.085 L 42.083 37.085 L 42.083 39.525 L 29.882 39.525 L 29.882 16.816 L 42.083 16.816 L 42.083 19.256 L 32.843 19.256 Z M 71.527 24.592 C 72.048 23.572 72.791 22.781 73.756 22.217 C 74.721 21.653 75.897 21.371 77.286 21.371 L 77.286 24.429 L 76.505 24.429 C 73.186 24.429 71.527 26.229 71.527 29.83 L 71.527 39.525 L 68.567 39.525 L 68.567 21.696 L 71.527 21.696 L 71.527 24.592 Z M 84.314 24.136 L 84.314 34.645 C 84.314 35.512 84.497 36.125 84.866 36.483 C 85.235 36.841 85.875 37.02 86.786 37.02 L 88.966 37.02 L 88.966 39.525 L 86.298 39.525 C 84.65 39.525 83.413 39.146 82.589 38.386 C 81.764 37.628 81.353 36.38 81.353 34.645 L 81.353 24.136 L 79.043 24.136 L 79.043 21.696 L 81.353 21.696 L 81.353 17.207 L 84.314 17.207 L 84.314 21.696 L 88.966 21.696 L 88.966 24.136 L 84.314 24.136 Z M 143.071 21.241 C 144.437 21.241 145.652 21.539 146.715 22.136 C 147.778 22.732 148.607 23.61 149.203 24.771 C 149.8 25.931 150.099 27.325 150.099 28.952 L 150.099 39.525 L 145.543 39.525 L 145.543 29.57 C 145.543 28.138 145.185 27.038 144.47 26.268 C 143.754 25.498 142.778 25.112 141.542 25.112 C 140.283 25.112 139.291 25.498 138.564 26.268 C 137.838 27.038 137.475 28.138 137.475 29.57 L 137.475 39.525 L 132.92 39.525 L 132.92 15.45 L 137.475 15.45 L 137.475 23.746 C 138.061 22.965 138.841 22.352 139.817 21.908 C 140.794 21.463 141.878 21.241 143.071 21.241 Z M 158.981 21.501 L 158.981 39.525 L 154.425 39.525 L 154.425 21.501 L 158.981 21.501 Z M 101.394 21.371 C 102.739 21.371 103.953 21.658 105.038 22.233 C 106.122 22.808 106.973 23.67 107.592 24.82 C 108.21 25.969 108.519 27.368 108.519 29.017 L 108.519 39.525 L 105.591 39.525 L 105.591 29.439 C 105.591 27.661 105.146 26.3 104.257 25.356 C 103.368 24.413 102.153 23.941 100.613 23.941 C 99.051 23.941 97.81 24.429 96.888 25.405 C 95.966 26.381 95.505 27.802 95.505 29.667 L 95.505 39.525 L 92.544 39.525 L 92.544 15.45 L 95.505 15.45 L 95.505 24.234 C 96.091 23.323 96.898 22.618 97.929 22.119 C 98.959 21.62 100.114 21.371 101.394 21.371 Z M 60.563 30.578 C 60.563 29.233 60.292 28.062 59.749 27.064 C 59.207 26.067 58.476 25.302 57.553 24.771 C 56.631 24.24 55.618 23.973 54.511 23.973 C 53.405 23.973 52.397 24.234 51.486 24.755 C 50.574 25.275 49.848 26.034 49.305 27.032 C 48.763 28.03 48.493 29.201 48.493 30.545 C 48.493 31.912 48.763 33.1 49.305 34.109 C 49.848 35.117 50.574 35.887 51.486 36.418 C 52.397 36.95 53.405 37.215 54.511 37.215 C 55.618 37.215 56.631 36.95 57.553 36.418 C 58.476 35.887 59.207 35.117 59.749 34.109 C 60.292 33.1 60.563 31.923 60.563 30.578 Z M 156.736 19.354 C 155.933 19.354 155.266 19.099 154.735 18.589 C 154.203 18.079 153.938 17.445 153.938 16.686 C 153.938 15.927 154.203 15.293 154.735 14.782 C 155.266 14.273 155.933 14.018 156.736 14.018 C 157.538 14.018 158.205 14.273 158.736 14.782 C 159.268 15.293 159.533 15.927 159.533 16.686 C 159.533 17.445 159.268 18.079 158.736 18.589 C 158.205 19.099 157.538 19.354 156.736 19.354 Z" style="fill:url(#_Linear1);fill-rule:nonzero;"/>
</svg>