<?xml version="1.0" encoding="utf-8"?>
<svg viewBox="0 0 167 63" fill="none" xmlns="http://www.w3.org/2000/svg">
  <path d="M 18.735 49.872 L 10.705 49.872 C 9.683 49.872 8.704 49.466 7.981 48.744 C 7.259 48.022 6.853 47.042 6.853 46.021 L 6.853 31.129 L 5.095 28.177 C 5.007 28.028 4.96 27.858 4.96 27.686 C 4.96 27.513 5.007 27.343 5.095 27.195 L 6.853 24.242 L 6.853 9.331 C 6.849 8.823 6.946 8.319 7.137 7.848 C 7.329 7.377 7.612 6.948 7.97 6.587 C 8.328 6.226 8.754 5.94 9.223 5.744 C 9.693 5.549 10.196 5.448 10.705 5.448 L 18.747 5.448 L 18.747 7.374 L 10.705 7.374 C 10.449 7.374 10.196 7.424 9.96 7.523 C 9.725 7.622 9.511 7.767 9.332 7.949 C 9.152 8.131 9.011 8.347 8.916 8.585 C 8.821 8.822 8.775 9.076 8.779 9.331 L 8.779 24.486 C 8.778 24.658 8.729 24.827 8.638 24.974 L 7.04 27.663 L 8.638 30.346 C 8.729 30.493 8.778 30.661 8.779 30.834 L 8.779 45.995 C 8.779 46.506 8.982 46.995 9.343 47.357 C 9.704 47.718 10.194 47.921 10.705 47.921 L 18.747 47.921 L 18.735 49.872 Z" fill="#AECC53" transform="matrix(1, 0, 0, 1, -3.552713678800501e-15, 0)"/>
  <path d="M 50.783 49.872 L 42.74 49.872 L 42.74 47.946 L 50.783 47.946 C 51.294 47.946 51.783 47.743 52.144 47.382 C 52.506 47.021 52.708 46.531 52.708 46.021 L 52.708 30.853 C 52.711 30.682 52.757 30.514 52.843 30.365 L 54.448 27.682 L 52.843 24.993 C 52.757 24.845 52.711 24.677 52.708 24.505 L 52.708 9.331 C 52.713 9.076 52.666 8.822 52.571 8.585 C 52.476 8.347 52.335 8.131 52.156 7.949 C 51.977 7.767 51.763 7.622 51.527 7.523 C 51.292 7.424 51.038 7.374 50.783 7.374 L 42.74 7.374 L 42.74 5.448 L 50.783 5.448 C 51.291 5.448 51.795 5.549 52.264 5.744 C 52.733 5.94 53.159 6.226 53.518 6.587 C 53.876 6.948 54.159 7.377 54.35 7.848 C 54.542 8.319 54.638 8.823 54.634 9.331 L 54.634 24.216 L 56.393 27.169 C 56.481 27.318 56.527 27.487 56.527 27.66 C 56.527 27.833 56.481 28.002 56.393 28.151 L 54.634 31.104 L 54.634 45.995 C 54.634 47.016 54.228 47.996 53.506 48.718 C 52.784 49.44 51.804 49.846 50.783 49.846" fill="#AECC53" transform="matrix(1, 0, 0, 1, -3.552713678800501e-15, 0)"/>
  <path d="M 45.051 29.345 C 44.449 29.279 43.843 29.404 43.316 29.702 C 42.79 30 42.37 30.456 42.118 31.005 C 41.865 31.555 41.791 32.17 41.908 32.764 C 42.024 33.357 42.324 33.899 42.766 34.313 C 41.862 36.489 40.387 38.38 38.497 39.787 C 36.606 41.194 34.371 42.063 32.027 42.304 L 32.027 30.012 C 33.647 29.808 35.201 29.246 36.577 28.368 C 37.954 27.49 39.118 26.318 39.986 24.935 C 40.538 24.924 41.075 24.756 41.534 24.45 C 41.993 24.144 42.355 23.713 42.578 23.208 C 42.8 22.703 42.874 22.145 42.79 21.6 C 42.706 21.055 42.468 20.545 42.103 20.13 C 41.739 19.716 41.264 19.414 40.735 19.261 C 40.205 19.107 39.642 19.108 39.113 19.263 C 38.583 19.419 38.109 19.722 37.747 20.138 C 37.384 20.554 37.148 21.065 37.066 21.61 C 37.005 22 37.026 22.398 37.126 22.779 C 37.227 23.16 37.405 23.516 37.65 23.825 C 37.007 24.776 36.177 25.586 35.21 26.205 C 34.243 26.824 33.16 27.24 32.027 27.426 L 32.027 15.41 C 32.613 15.12 33.083 14.641 33.362 14.05 C 33.64 13.46 33.711 12.792 33.562 12.156 C 33.414 11.52 33.054 10.953 32.542 10.547 C 32.031 10.141 31.397 9.92 30.743 9.92 C 30.09 9.92 29.456 10.141 28.945 10.547 C 28.433 10.953 28.073 11.52 27.925 12.156 C 27.776 12.792 27.847 13.46 28.125 14.05 C 28.404 14.641 28.874 15.12 29.46 15.41 L 29.46 27.426 C 28.324 27.242 27.238 26.828 26.269 26.209 C 25.3 25.589 24.468 24.778 23.824 23.825 C 24.069 23.516 24.247 23.16 24.348 22.779 C 24.448 22.398 24.469 22 24.408 21.61 C 24.326 21.065 24.09 20.555 23.728 20.139 C 23.365 19.723 22.892 19.42 22.363 19.264 C 21.834 19.108 21.272 19.107 20.742 19.26 C 20.212 19.413 19.737 19.714 19.373 20.128 C 19.008 20.542 18.77 21.051 18.685 21.596 C 18.6 22.141 18.673 22.699 18.895 23.204 C 19.116 23.709 19.477 24.14 19.935 24.447 C 20.394 24.753 20.93 24.923 21.481 24.935 C 22.352 26.32 23.519 27.494 24.899 28.372 C 26.279 29.25 27.837 29.81 29.46 30.012 L 29.46 42.304 C 27.112 42.067 24.873 41.198 22.979 39.792 C 21.085 38.385 19.607 36.492 18.702 34.313 C 19.176 33.865 19.486 33.269 19.579 32.623 C 19.673 31.977 19.545 31.319 19.217 30.754 C 18.889 30.19 18.38 29.753 17.773 29.514 C 17.165 29.276 16.495 29.249 15.87 29.439 C 15.246 29.63 14.704 30.025 14.333 30.562 C 13.962 31.099 13.783 31.746 13.825 32.397 C 13.868 33.048 14.129 33.666 14.567 34.15 C 15.005 34.634 15.593 34.956 16.237 35.064 C 17.31 37.769 19.115 40.121 21.451 41.855 C 23.787 43.59 26.56 44.639 29.46 44.885 L 29.46 57.382 L 32.027 57.382 L 32.027 44.885 C 34.924 44.637 37.695 43.587 40.028 41.852 C 42.362 40.118 44.165 37.767 45.237 35.064 C 45.924 34.946 46.545 34.583 46.986 34.042 C 47.427 33.502 47.657 32.82 47.634 32.123 C 47.612 31.426 47.338 30.761 46.863 30.25 C 46.388 29.74 45.744 29.418 45.051 29.345 Z" fill="#006D69" transform="matrix(1, 0, 0, 1, -3.552713678800501e-15, 0)"/>
  <path d="M 80.611 8.49 L 78.043 8.49 C 77.786 8.027 77.403 7.645 76.939 7.389 C 76.474 7.134 75.947 7.015 75.418 7.046 C 73.409 7.046 72.016 8.478 72.016 10.705 C 72.016 12.932 73.428 14.396 75.514 14.396 C 76.267 14.439 77.01 14.201 77.596 13.726 C 78.183 13.251 78.571 12.574 78.685 11.828 L 74.834 11.828 L 74.834 10.108 L 80.893 10.108 L 80.893 12.034 C 80.635 13.286 79.947 14.408 78.948 15.205 C 77.949 16.002 76.702 16.425 75.424 16.398 C 73.907 16.398 72.453 15.796 71.38 14.723 C 70.308 13.651 69.705 12.196 69.705 10.679 C 69.705 9.162 70.308 7.708 71.38 6.635 C 72.453 5.563 73.907 4.96 75.424 4.96 C 77.921 4.96 79.917 6.244 80.636 8.471" fill="#006D69" transform="matrix(1, 0, 0, 1, -3.552713678800501e-15, 0)"/>
  <path d="M 84.802 16.321 L 82.555 16.321 L 82.555 7.431 L 84.802 7.431 L 84.802 8.811 C 85.081 8.341 85.48 7.953 85.958 7.688 C 86.436 7.423 86.977 7.29 87.523 7.303 L 87.523 9.671 L 86.933 9.671 C 85.604 9.671 84.802 10.185 84.802 11.899 L 84.802 16.321 Z" fill="#006D69" transform="matrix(1, 0, 0, 1, -3.552713678800501e-15, 0)"/>
  <path d="M 92.915 16.469 C 90.347 16.469 88.46 14.672 88.46 11.879 C 88.46 9.087 90.29 7.29 92.915 7.29 C 93.5 7.259 94.085 7.352 94.631 7.563 C 95.178 7.773 95.674 8.096 96.088 8.511 C 96.501 8.925 96.823 9.423 97.031 9.97 C 97.24 10.517 97.331 11.102 97.299 11.687 C 97.3 11.977 97.279 12.267 97.235 12.553 L 90.739 12.553 C 90.741 12.829 90.799 13.101 90.908 13.354 C 91.017 13.608 91.175 13.837 91.373 14.028 C 91.572 14.219 91.806 14.369 92.063 14.468 C 92.32 14.568 92.595 14.615 92.87 14.607 C 93.241 14.63 93.61 14.539 93.928 14.347 C 94.246 14.154 94.497 13.869 94.648 13.529 L 97.074 13.529 C 96.809 14.413 96.255 15.183 95.501 15.716 C 94.747 16.248 93.837 16.514 92.915 16.469 Z M 90.752 11.045 L 94.969 11.045 C 94.963 10.777 94.902 10.514 94.791 10.27 C 94.68 10.027 94.52 9.809 94.322 9.628 C 94.124 9.448 93.892 9.31 93.639 9.223 C 93.386 9.135 93.118 9.1 92.851 9.119 C 92.321 9.11 91.807 9.305 91.417 9.663 C 91.026 10.021 90.788 10.516 90.752 11.045 Z" fill="#006D69" transform="matrix(1, 0, 0, 1, -3.552713678800501e-15, 0)"/>
  <path d="M 102.819 16.469 C 100.252 16.469 98.326 14.672 98.326 11.88 C 98.326 9.087 100.155 7.29 102.819 7.29 C 103.403 7.26 103.988 7.354 104.533 7.565 C 105.079 7.775 105.574 8.099 105.987 8.513 C 106.4 8.928 106.721 9.425 106.929 9.972 C 107.138 10.518 107.229 11.103 107.196 11.687 C 107.201 11.977 107.179 12.267 107.132 12.553 L 100.637 12.553 C 100.641 12.829 100.699 13.1 100.809 13.352 C 100.918 13.605 101.077 13.833 101.275 14.024 C 101.473 14.215 101.707 14.365 101.963 14.465 C 102.219 14.565 102.493 14.613 102.768 14.607 C 103.139 14.63 103.509 14.539 103.828 14.346 C 104.147 14.154 104.399 13.869 104.552 13.529 L 106.985 13.529 C 106.719 14.412 106.167 15.181 105.414 15.714 C 104.662 16.246 103.753 16.512 102.832 16.469 L 102.819 16.469 Z M 100.669 11.045 L 104.886 11.045 C 104.88 10.778 104.819 10.514 104.708 10.27 C 104.597 10.027 104.437 9.809 104.239 9.629 C 104.041 9.448 103.809 9.311 103.556 9.223 C 103.303 9.136 103.035 9.1 102.768 9.119 C 102.238 9.11 101.724 9.305 101.334 9.663 C 100.943 10.021 100.705 10.516 100.669 11.045 Z" fill="#006D69" transform="matrix(1, 0, 0, 1, -3.552713678800501e-15, 0)"/>
  <path d="M 115.059 11.411 C 115.059 9.986 114.276 9.216 113.089 9.216 C 111.901 9.216 111.086 9.986 111.086 11.411 L 111.086 16.321 L 108.84 16.321 L 108.84 7.431 L 111.086 7.431 L 111.086 8.542 C 111.407 8.143 111.815 7.825 112.28 7.611 C 112.744 7.397 113.252 7.294 113.763 7.309 C 115.83 7.309 117.306 8.651 117.306 11.109 L 117.306 16.321 L 115.059 16.321 L 115.059 11.411 Z" fill="#006D69" transform="matrix(1, 0, 0, 1, -3.552713678800501e-15, 0)"/>
  <path d="M 74.095 36.977 C 71.772 36.977 69.974 35.757 69.942 33.639 L 72.324 33.639 C 72.329 33.851 72.378 34.061 72.468 34.253 C 72.558 34.446 72.687 34.617 72.847 34.757 C 73.007 34.897 73.194 35.003 73.397 35.066 C 73.6 35.13 73.813 35.151 74.025 35.128 C 75.084 35.128 75.706 34.57 75.706 33.767 C 75.706 31.341 69.93 32.805 69.93 28.741 C 69.93 26.72 71.566 25.532 73.877 25.532 C 76.188 25.532 77.728 26.707 77.882 28.741 L 75.417 28.741 C 75.38 28.352 75.19 27.994 74.89 27.744 C 74.589 27.494 74.202 27.372 73.813 27.406 C 72.927 27.374 72.272 27.811 72.272 28.722 C 72.272 30.969 78.011 29.717 78.011 33.665 C 78.011 35.43 76.598 37.022 74.05 37.022" fill="#006D69" transform="matrix(1, 0, 0, 1, -3.552713678800501e-15, 0)"/>
  <path d="M 83.949 37.009 C 83.043 37 82.16 36.723 81.411 36.214 C 80.662 35.704 80.081 34.984 79.741 34.145 C 79.4 33.305 79.316 32.384 79.498 31.497 C 79.68 30.61 80.121 29.796 80.764 29.159 C 81.408 28.521 82.226 28.089 83.115 27.915 C 84.004 27.742 84.924 27.835 85.76 28.184 C 86.596 28.532 87.31 29.121 87.812 29.874 C 88.315 30.628 88.583 31.514 88.583 32.419 C 88.604 33.032 88.498 33.641 88.272 34.211 C 88.046 34.78 87.704 35.296 87.269 35.727 C 86.834 36.158 86.314 36.495 85.743 36.715 C 85.171 36.936 84.56 37.036 83.949 37.009 Z M 83.949 35.083 C 85.136 35.083 86.272 34.217 86.272 32.451 C 86.272 30.686 85.168 29.82 83.981 29.82 C 82.793 29.82 81.721 30.667 81.721 32.451 C 81.721 34.236 82.748 35.083 83.949 35.083 Z" fill="#006D69" transform="matrix(1, 0, 0, 1, -3.552713678800501e-15, 0)"/>
  <path d="M 90.483 29.82 L 89.468 29.82 L 89.468 27.971 L 90.483 27.971 L 90.483 27.522 C 90.483 25.34 91.715 24.313 94.218 24.396 L 94.218 26.29 C 93.127 26.257 92.761 26.61 92.761 27.605 L 92.761 27.971 L 94.314 27.971 L 94.314 29.82 L 92.761 29.82 L 92.761 36.88 L 90.483 36.88 L 90.483 29.82 Z" fill="#006D69" transform="matrix(1, 0, 0, 1, -3.552713678800501e-15, 0)"/>
  <path d="M 96.131 29.82 L 95.072 29.82 L 95.072 27.971 L 96.131 27.971 L 96.131 25.776 L 98.39 25.776 L 98.39 27.971 L 100.38 27.971 L 100.38 29.82 L 98.39 29.82 L 98.39 34.12 C 98.39 34.711 98.628 34.968 99.334 34.968 L 100.38 34.968 L 100.38 36.861 L 98.968 36.861 C 97.267 36.861 96.131 36.142 96.131 34.101 L 96.131 29.82 Z" fill="#006D69" transform="matrix(1, 0, 0, 1, -3.552713678800501e-15, 0)"/>
  <path d="M 101.009 27.971 L 103.288 27.971 L 104.854 34.743 L 106.555 27.971 L 108.93 27.971 L 110.599 34.73 L 112.171 27.971 L 114.321 27.971 L 111.722 36.861 L 109.302 36.861 L 107.678 30.654 L 106.06 36.861 L 103.621 36.861 L 101.009 27.971 Z" fill="#006D69" transform="matrix(1, 0, 0, 1, -3.552713678800501e-15, 0)"/>
  <path d="M 119.026 27.83 C 119.593 27.811 120.155 27.93 120.666 28.176 C 121.177 28.421 121.621 28.787 121.959 29.242 L 121.959 27.958 L 124.225 27.958 L 124.225 36.848 L 121.959 36.848 L 121.959 35.565 C 121.623 36.028 121.178 36.403 120.663 36.654 C 120.148 36.906 119.58 37.028 119.007 37.009 C 116.76 37.009 114.969 35.16 114.969 32.387 C 114.969 29.614 116.76 27.83 119.026 27.83 Z M 119.604 29.801 C 119.277 29.803 118.955 29.873 118.657 30.006 C 118.359 30.138 118.091 30.331 117.871 30.573 C 117.651 30.814 117.484 31.098 117.379 31.407 C 117.274 31.715 117.233 32.043 117.261 32.368 C 117.261 34.05 118.397 35.013 119.604 35.013 C 119.934 35.009 120.26 34.936 120.561 34.8 C 120.862 34.664 121.132 34.467 121.353 34.222 C 121.575 33.976 121.743 33.688 121.847 33.374 C 121.951 33.061 121.99 32.729 121.959 32.4 C 121.959 30.712 120.836 29.781 119.604 29.781" fill="#006D69" transform="matrix(1, 0, 0, 1, -3.552713678800501e-15, 0)"/>
  <path d="M 128.667 36.861 L 126.427 36.861 L 126.427 27.971 L 128.667 27.971 L 128.667 29.351 C 128.948 28.881 129.349 28.494 129.828 28.229 C 130.307 27.964 130.848 27.831 131.395 27.843 L 131.395 30.211 L 130.805 30.211 C 129.47 30.211 128.667 30.725 128.667 32.439 L 128.667 36.861 Z" fill="#006D69" transform="matrix(1, 0, 0, 1, -3.552713678800501e-15, 0)"/>
  <path d="M 136.787 37.009 C 134.22 37.009 132.332 35.212 132.332 32.419 C 132.332 29.627 134.155 27.83 136.787 27.83 C 137.372 27.799 137.957 27.892 138.503 28.103 C 139.05 28.313 139.546 28.636 139.96 29.051 C 140.373 29.465 140.695 29.963 140.904 30.51 C 141.112 31.057 141.203 31.642 141.171 32.227 C 141.172 32.517 141.151 32.807 141.107 33.093 L 134.585 33.093 C 134.59 33.369 134.648 33.641 134.758 33.894 C 134.868 34.147 135.027 34.375 135.226 34.566 C 135.425 34.757 135.659 34.907 135.916 35.006 C 136.173 35.106 136.447 35.154 136.723 35.147 C 137.094 35.17 137.463 35.079 137.781 34.887 C 138.099 34.694 138.35 34.409 138.501 34.069 L 140.927 34.069 C 140.662 34.953 140.108 35.723 139.354 36.256 C 138.6 36.788 137.69 37.053 136.768 37.009 L 136.787 37.009 Z M 134.605 31.585 L 138.822 31.585 C 138.816 31.317 138.755 31.054 138.644 30.81 C 138.533 30.567 138.373 30.348 138.175 30.168 C 137.977 29.988 137.745 29.85 137.492 29.763 C 137.239 29.675 136.971 29.64 136.704 29.659 C 136.174 29.65 135.66 29.844 135.269 30.203 C 134.879 30.561 134.641 31.056 134.605 31.585 Z" fill="#006D69" transform="matrix(1, 0, 0, 1, -3.552713678800501e-15, 0)"/>
  <path d="M 70.232 46.207 L 77.144 46.207 L 77.144 48.017 L 72.478 48.017 L 72.478 50.886 L 76.053 50.886 L 76.053 52.67 L 72.478 52.67 L 72.478 57.401 L 70.232 57.401 L 70.232 46.207 Z" fill="#006D69" transform="matrix(1, 0, 0, 1, -3.552713678800501e-15, 0)"/>
  <path d="M 82.684 57.549 C 81.778 57.54 80.895 57.263 80.147 56.753 C 79.398 56.244 78.817 55.524 78.476 54.685 C 78.136 53.845 78.051 52.924 78.233 52.037 C 78.416 51.149 78.856 50.336 79.5 49.698 C 80.143 49.061 80.961 48.628 81.85 48.455 C 82.739 48.282 83.66 48.375 84.496 48.724 C 85.332 49.072 86.046 49.661 86.548 50.414 C 87.05 51.168 87.318 52.053 87.318 52.959 C 87.339 53.571 87.233 54.181 87.007 54.751 C 86.781 55.32 86.44 55.836 86.005 56.267 C 85.569 56.698 85.05 57.035 84.478 57.255 C 83.907 57.476 83.296 57.576 82.684 57.549 Z M 82.684 55.623 C 83.872 55.623 85.008 54.756 85.008 52.991 C 85.008 51.226 83.897 50.36 82.716 50.36 C 81.535 50.36 80.45 51.207 80.45 52.991 C 80.45 54.776 81.477 55.623 82.684 55.623 Z" fill="#006D69" transform="matrix(1, 0, 0, 1, -3.552713678800501e-15, 0)"/>
  <path d="M 97.357 57.401 L 95.091 57.401 L 95.091 56.278 C 94.777 56.676 94.375 56.995 93.915 57.21 C 93.456 57.426 92.953 57.53 92.446 57.517 C 90.38 57.517 88.884 56.169 88.884 53.73 L 88.884 48.511 L 91.131 48.511 L 91.131 53.409 C 91.131 54.834 91.92 55.604 93.101 55.604 C 94.282 55.604 95.091 54.834 95.091 53.409 L 95.091 48.511 L 97.357 48.511 L 97.357 57.401 Z" fill="#006D69" transform="matrix(1, 0, 0, 1, -3.552713678800501e-15, 0)"/>
  <path d="M 105.804 52.491 C 105.804 51.066 105.014 50.296 103.833 50.296 C 102.652 50.296 101.824 51.066 101.824 52.491 L 101.824 57.401 L 99.578 57.401 L 99.578 48.511 L 101.824 48.511 L 101.824 49.622 C 102.146 49.223 102.555 48.904 103.021 48.69 C 103.486 48.476 103.995 48.373 104.507 48.389 C 106.574 48.389 108.05 49.731 108.05 52.189 L 108.05 57.401 L 105.804 57.401 L 105.804 52.491 Z" fill="#006D69" transform="matrix(1, 0, 0, 1, -3.552713678800501e-15, 0)"/>
  <path d="M 113.686 48.37 C 114.243 48.363 114.794 48.484 115.297 48.723 C 115.8 48.962 116.241 49.314 116.587 49.75 L 116.587 45.533 L 118.866 45.533 L 118.866 57.401 L 116.613 57.401 L 116.613 56.085 C 116.292 56.558 115.855 56.942 115.344 57.198 C 114.832 57.454 114.264 57.575 113.692 57.549 C 111.433 57.549 109.636 55.7 109.636 52.927 C 109.636 50.154 111.433 48.37 113.712 48.37 L 113.686 48.37 Z M 114.27 50.34 C 113.944 50.344 113.622 50.414 113.325 50.547 C 113.027 50.68 112.76 50.874 112.54 51.114 C 112.32 51.355 112.152 51.639 112.047 51.947 C 111.942 52.256 111.901 52.583 111.927 52.908 C 111.898 53.237 111.937 53.569 112.04 53.883 C 112.144 54.197 112.31 54.487 112.53 54.734 C 112.749 54.982 113.016 55.182 113.316 55.323 C 113.615 55.463 113.94 55.541 114.27 55.552 C 115.509 55.552 116.626 54.622 116.626 52.94 C 116.626 51.258 115.509 50.321 114.27 50.321" fill="#006D69" transform="matrix(1, 0, 0, 1, -3.552713678800501e-15, 0)"/>
  <path d="M 124.546 48.37 C 125.113 48.351 125.676 48.469 126.187 48.715 C 126.698 48.961 127.141 49.327 127.48 49.782 L 127.48 48.498 L 129.746 48.498 L 129.746 57.388 L 127.48 57.388 L 127.48 56.104 C 127.143 56.568 126.698 56.942 126.183 57.194 C 125.669 57.446 125.1 57.568 124.527 57.549 C 122.287 57.549 120.49 55.7 120.49 52.927 C 120.49 50.154 122.287 48.37 124.546 48.37 Z M 125.124 50.34 C 124.798 50.343 124.475 50.413 124.177 50.545 C 123.879 50.678 123.612 50.871 123.392 51.112 C 123.172 51.353 123.004 51.637 122.899 51.946 C 122.794 52.255 122.754 52.583 122.781 52.908 C 122.781 54.59 123.917 55.552 125.124 55.552 C 125.455 55.548 125.781 55.476 126.082 55.34 C 126.383 55.204 126.652 55.007 126.874 54.762 C 127.095 54.516 127.263 54.228 127.367 53.914 C 127.472 53.601 127.51 53.269 127.48 52.94 C 127.48 51.252 126.357 50.321 125.124 50.321" fill="#006D69" transform="matrix(1, 0, 0, 1, -3.552713678800501e-15, 0)"/>
  <path d="M 132.3 50.36 L 131.241 50.36 L 131.241 48.511 L 132.3 48.511 L 132.3 46.316 L 134.585 46.316 L 134.585 48.511 L 136.575 48.511 L 136.575 50.36 L 134.585 50.36 L 134.585 54.66 C 134.585 55.251 134.823 55.507 135.529 55.507 L 136.575 55.507 L 136.575 57.401 L 135.163 57.401 C 133.462 57.401 132.326 56.682 132.326 54.641 L 132.3 50.36 Z" fill="#006D69" transform="matrix(1, 0, 0, 1, -3.552713678800501e-15, 0)"/>
  <path d="M 137.93 46.143 C 137.91 45.866 137.975 45.591 138.114 45.351 C 138.253 45.112 138.462 44.92 138.711 44.801 C 138.961 44.682 139.241 44.64 139.515 44.682 C 139.789 44.724 140.044 44.847 140.246 45.036 C 140.449 45.224 140.59 45.47 140.652 45.74 C 140.713 46.01 140.692 46.292 140.591 46.55 C 140.49 46.808 140.314 47.029 140.085 47.185 C 139.857 47.342 139.587 47.426 139.31 47.426 C 139.134 47.435 138.959 47.408 138.794 47.348 C 138.629 47.288 138.478 47.195 138.349 47.075 C 138.22 46.956 138.117 46.812 138.045 46.651 C 137.973 46.491 137.934 46.318 137.93 46.143 Z M 138.174 48.511 L 140.42 48.511 L 140.42 57.401 L 138.174 57.401 L 138.174 48.511 Z" fill="#006D69" transform="matrix(1, 0, 0, 1, -3.552713678800501e-15, 0)"/>
  <path d="M 146.576 57.549 C 145.67 57.539 144.788 57.261 144.04 56.75 C 143.292 56.24 142.712 55.52 142.372 54.68 C 142.033 53.841 141.949 52.92 142.132 52.033 C 142.315 51.146 142.756 50.333 143.4 49.696 C 144.044 49.06 144.862 48.628 145.75 48.455 C 146.639 48.282 147.559 48.376 148.395 48.724 C 149.231 49.073 149.944 49.661 150.446 50.415 C 150.948 51.169 151.216 52.054 151.216 52.959 C 151.236 53.572 151.13 54.182 150.903 54.751 C 150.676 55.32 150.334 55.837 149.898 56.268 C 149.463 56.698 148.943 57.035 148.371 57.255 C 147.799 57.476 147.188 57.576 146.576 57.549 Z M 146.576 55.623 C 147.763 55.623 148.906 54.757 148.906 52.991 C 148.906 51.226 147.795 50.36 146.608 50.36 C 145.42 50.36 144.348 51.207 144.348 52.991 C 144.348 54.776 145.375 55.623 146.576 55.623 Z" fill="#006D69" transform="matrix(1, 0, 0, 1, -3.552713678800501e-15, 0)"/>
  <path d="M 159.092 52.491 C 159.092 51.066 158.309 50.296 157.122 50.296 C 155.934 50.296 155.112 51.066 155.112 52.491 L 155.112 57.401 L 152.872 57.401 L 152.872 48.511 L 155.125 48.511 L 155.125 49.622 C 155.447 49.223 155.856 48.904 156.322 48.69 C 156.787 48.476 157.296 48.373 157.808 48.389 C 159.875 48.389 161.351 49.731 161.351 52.189 L 161.351 57.401 L 159.105 57.401 L 159.092 52.491 Z" fill="#006D69" transform="matrix(1, 0, 0, 1, -3.552713678800501e-15, 0)"/>
</svg>