<?xml version="1.0" encoding="utf-8"?>
<svg viewBox="0 0 216 100" xmlns="http://www.w3.org/2000/svg">
  <polygon fill="#F5333F" points="23.62 43.182 23.62 26.247 38.131 26.247 38.131 43.182 38.126 43.19 55.061 43.19 55.061 57.701 38.126 57.701 38.131 57.697 38.131 74.627 23.62 74.627 23.62 57.697 23.62 57.705 6.691 57.705 6.691 43.19 23.62 43.19"/>
  <path fill="#F5333F" d="M 77.511 50.183 C 77.511 38.905 86.654 29.766 97.927 29.766 C 100.439 29.766 102.841 30.22 105.064 31.051 C 100.888 27.744 95.613 25.771 89.871 25.771 C 76.339 25.771 65.371 36.743 65.371 50.27 C 65.371 63.803 76.339 74.771 89.871 74.771 C 95.801 74.771 101.241 72.665 105.481 69.158 C 103.142 70.089 100.596 70.602 97.932 70.602 C 86.654 70.599 77.511 61.456 77.511 50.183"/>
  <path fill="#333132" d="M 198.944 66.664 C 201.472 66.664 203.763 66.219 205.82 65.333 C 207.874 64.445 209.599 63.151 210.987 61.458 L 206.654 57.457 C 204.681 59.765 202.238 60.915 199.321 60.915 C 197.515 60.915 195.902 60.518 194.486 59.728 C 193.07 58.938 191.967 57.83 191.173 56.414 C 190.383 54.998 189.985 53.386 189.985 51.58 C 189.985 49.775 190.383 48.162 191.173 46.746 C 191.964 45.33 193.07 44.227 194.486 43.432 C 195.902 42.642 197.515 42.244 199.321 42.244 C 202.238 42.244 204.681 43.384 206.654 45.662 L 210.987 41.663 C 209.599 39.994 207.882 38.718 205.84 37.828 C 203.798 36.942 201.511 36.495 198.983 36.495 C 195.983 36.495 193.28 37.141 190.88 38.434 C 188.478 39.726 186.588 41.519 185.212 43.81 C 183.835 46.101 183.15 48.691 183.15 51.58 C 183.15 54.468 183.839 57.06 185.212 59.351 C 186.588 61.642 188.478 63.435 190.88 64.727 C 193.284 66.018 195.972 66.664 198.944 66.664 M 171.98 47.58 C 171.98 49.193 171.451 50.44 170.396 51.331 C 169.341 52.223 167.797 52.663 165.77 52.663 L 160.27 52.663 L 160.27 42.493 L 165.77 42.493 C 167.8 42.493 169.341 42.931 170.396 43.805 C 171.451 44.683 171.98 45.939 171.98 47.58 M 179.358 66.162 L 172.815 56.787 C 174.733 55.953 176.212 54.754 177.252 53.181 C 178.295 51.612 178.813 49.742 178.813 47.576 C 178.813 45.409 178.3 43.533 177.272 41.947 C 176.245 40.363 174.777 39.143 172.876 38.281 C 170.974 37.418 168.727 36.99 166.143 36.99 L 153.513 36.99 L 153.513 66.162 L 160.266 66.162 L 160.266 58.035 L 166.143 58.035 L 166.477 58.035 L 172.101 66.162 L 179.358 66.162 Z M 147.685 42.409 L 147.685 36.992 L 125.639 36.992 L 125.639 66.167 L 132.392 66.167 L 132.392 55.539 L 145.895 55.539 L 145.895 50.124 L 132.392 50.124 L 132.392 42.413 L 147.685 42.413 L 147.685 42.409 Z M 111.971 66.162 L 118.723 66.162 L 118.723 36.99 L 111.971 36.99 L 111.971 66.162 Z"/>
</svg>