<?xml version="1.0" encoding="utf-8"?>
<svg viewBox="0 0 216 100" xmlns="http://www.w3.org/2000/svg">
  <path d="M 66.18 32.088 L 66.18 69.416 C 66.18 70.427 66.068 70.933 66.405 71.439 C 66.573 71.776 66.911 71.944 67.192 71.944 C 67.585 71.944 67.922 71.776 68.147 71.383 C 68.484 70.877 68.428 70.371 68.428 69.303 L 68.428 32.088 L 70.171 32.088 L 70.171 70.146 C 70.171 72.731 69.216 74.025 67.192 74.025 C 66.348 74.025 65.618 73.744 65.056 73.126 C 64.493 72.506 64.212 71.551 64.212 70.203 L 64.212 32.088 L 66.18 32.088 Z" id="path10" style="fill:#000000;fill-rule:evenodd" transform="matrix(1, 0, 0, 1, -2.842170943040401e-14, 0)"/>
  <path d="M 84.787 73.8 L 81.976 48.166 L 81.976 73.8 L 80.459 73.8 L 80.459 32.088 L 82.482 32.088 L 85.348 56.149 L 85.348 32.088 L 86.642 32.088 L 86.642 73.8 L 84.787 73.8 Z" id="polygon12" style="fill:#000000;fill-rule:evenodd" transform="matrix(1, 0, 0, 1, -2.842170943040401e-14, 0)"/>
  <path d="M 101.82 50.864 L 101.82 52.326 L 99.066 52.326 L 99.066 72.058 L 102.214 72.058 L 102.214 73.8 L 96.592 73.8 L 96.592 32.088 L 101.82 32.088 L 101.82 33.887 L 99.066 33.887 L 99.066 50.864 L 101.82 50.864 Z" id="polygon14" style="fill:#000000;fill-rule:evenodd" transform="matrix(1, 0, 0, 1, -2.842170943040401e-14, 0)"/>
  <path d="M 156.406 26.186 L 156.406 29.672 L 58.197 29.672 L 58.197 26.186 L 156.406 26.186 Z" id="polygon16" style="fill:#000000;fill-rule:evenodd" transform="matrix(1, 0, 0, 1, -2.842170943040401e-14, 0)"/>
  <path d="M 156.406 76.893 L 156.406 80.377 L 58.197 80.377 L 58.197 76.893 L 156.406 76.893 Z" id="polygon18" style="fill:#000000;fill-rule:evenodd" transform="matrix(1, 0, 0, 1, -2.842170943040401e-14, 0)"/>
  <path d="M 161.802 83.918 L 161.802 87.405 L 51.902 87.405 L 51.902 83.918 L 161.802 83.918 Z" id="polygon20" style="fill:#000000;fill-rule:evenodd" transform="matrix(1, 0, 0, 1, -2.842170943040401e-14, 0)"/>
  <path d="M 167.311 90.72 L 167.311 94.262 L 46.336 94.262 L 46.336 90.72 L 167.311 90.72 Z" id="polygon22" style="fill:#000000;fill-rule:evenodd" transform="matrix(1, 0, 0, 1, -2.842170943040401e-14, 0)"/>
  <path d="M 106.823 4.262 L 156.179 18.316 L 156.179 22.026 L 106.373 8.478 L 57.972 22.25 L 57.972 18.54 L 106.823 4.262 Z" id="polygon24" style="fill:#000000;fill-rule:evenodd" transform="matrix(1, 0, 0, 1, -2.842170943040401e-14, 0)"/>
  <path d="M 144.994 22.25 L 134.818 22.25 L 107.216 14.774 L 79.672 22.026 L 69.159 22.25 L 107.329 11.289 L 144.994 22.25 Z" id="polygon26" style="fill:#000000;fill-rule:evenodd" transform="matrix(1, 0, 0, 1, -2.842170943040401e-14, 0)"/>
  <path d="M 115.818 44.118 L 117.954 44.118 L 117.954 36.023 C 117.954 36.023 117.898 33.662 117.335 32.988 C 116.774 32.369 116.099 31.806 114.637 31.806 C 113.232 31.864 112.894 32.257 112.389 32.875 C 111.826 33.494 111.601 34.561 111.601 35.686 C 111.601 36.81 111.658 41.814 111.826 43.499 C 111.995 45.131 113.569 51.763 114.469 54.968 C 115.312 58.229 115.705 59.859 115.762 60.759 C 115.818 61.713 115.929 64.918 115.818 66.492 C 115.762 68.066 115.818 70.258 115.818 70.258 C 115.818 70.258 115.929 72.001 114.919 72.001 C 113.85 72.001 113.962 70.258 113.962 70.258 L 113.962 60.365 L 111.826 60.365 L 111.826 70.203 C 111.826 70.203 111.265 73.8 114.637 73.8 C 118.067 73.8 118.067 70.596 118.067 70.596 L 118.067 61.601 C 118.067 61.601 117.898 58.622 117.335 56.542 C 116.774 54.518 114.974 48.053 114.58 46.254 C 114.131 44.343 113.962 41.532 113.962 39.003 C 113.962 36.474 114.019 34.9 114.019 34.9 C 114.019 34.9 113.962 33.719 114.919 33.719 C 115.818 33.719 115.762 34.956 115.762 34.956 L 115.818 44.118 Z" id="path28" style="fill:#000000;fill-rule:evenodd" transform="matrix(1, 0, 0, 1, -2.842170943040401e-14, 0)"/>
  <path d="M 132.176 44.231 L 134.031 44.231 L 134.031 34.506 C 134.031 32.988 133.189 31.47 131.107 31.47 C 129.197 31.47 128.073 32.875 128.073 34.561 L 128.073 71.102 C 128.073 72.731 129.197 74.138 131.107 74.138 C 133.189 74.138 134.031 72.676 134.031 71.157 L 134.031 60.196 L 132.176 60.196 L 132.176 71.102 C 132.176 71.665 132.233 72.338 131.107 72.338 C 129.927 72.338 130.04 71.326 130.04 70.933 L 130.04 34.674 C 130.04 34.281 129.927 33.269 131.107 33.269 C 132.233 33.269 132.176 34 132.176 34.561 L 132.176 44.231 Z" id="path30" style="fill:#000000;fill-rule:evenodd" transform="matrix(1, 0, 0, 1, -2.842170943040401e-14, 0)"/>
  <path d="M 147.691 31.47 C 145.781 31.47 144.431 32.875 144.431 34.561 L 144.431 71.102 C 144.431 72.731 145.781 74.138 147.691 74.138 C 149.771 74.138 150.839 72.676 150.839 71.157 L 150.839 34.506 C 150.839 32.988 149.771 31.47 147.691 31.47 Z M 148.985 71.102 C 148.985 71.665 148.816 72.338 147.691 72.338 C 146.511 72.338 146.399 71.326 146.399 70.933 L 146.399 34.674 C 146.399 34.281 146.511 33.269 147.691 33.269 C 148.816 33.269 148.985 34 148.985 34.561 L 148.985 71.102 Z" id="path32" style="fill:#000000;fill-rule:evenodd" transform="matrix(1, 0, 0, 1, -2.842170943040401e-14, 0)"/>
</svg>