<?xml version="1.0" encoding="utf-8"?>
<svg viewBox="0 0 216 100" xmlns="http://www.w3.org/2000/svg">
  <rect fill-rule="evenodd" width="152.999" fill="#ffffff" clip-rule="evenodd" height="102" id="rect1639" x="33.846" y="0.31" style="image-rendering:optimizeQuality;shape-rendering:geometricPrecision;text-rendering:geometricPrecision"/>
  <path fill="#005a9c" d="M 38.164 17.323 L 58.42 85.684 L 59.261 85.684 L 71.92 43.32 L 84.583 85.684 L 85.426 85.684 L 100.603 34.459 C 103.502 24.678 102.064 25.761 110.713 25.761 L 117.849 25.761 L 103.745 50.238 L 109.406 50.238 C 113.064 50.238 116.916 51.559 118.944 54.202 C 119.228 54.569 119.483 54.969 119.72 55.385 C 119.774 55.481 119.826 55.581 119.879 55.681 C 120.102 56.102 120.308 56.539 120.488 57.009 C 121.198 58.875 121.559 61.117 121.559 63.741 C 121.559 67.455 120.741 70.632 119.109 73.277 C 118.667 73.997 118.196 74.606 117.698 75.129 C 117.381 75.463 117.05 75.753 116.71 76.009 C 116.683 76.03 116.652 76.051 116.623 76.07 C 116.277 76.323 115.926 76.54 115.556 76.71 C 115.22 76.865 114.869 76.976 114.515 77.063 C 114.424 77.084 114.332 77.102 114.241 77.121 C 113.876 77.192 113.506 77.241 113.121 77.241 C 113.105 77.241 113.089 77.237 113.07 77.237 C 113.053 77.237 113.038 77.233 113.021 77.233 C 113.013 77.233 113.005 77.23 112.996 77.228 C 112.977 77.228 112.958 77.224 112.938 77.224 C 112.432 77.216 111.937 77.177 111.461 77.093 C 111.458 77.09 111.455 77.093 111.453 77.093 C 111.322 77.069 111.202 77.016 111.075 76.988 C 111.047 76.982 111.022 76.976 110.996 76.968 C 110.964 76.958 110.932 76.946 110.9 76.937 C 110.575 76.863 110.251 76.79 109.942 76.671 C 109.458 76.487 108.992 76.257 108.543 75.978 C 108.093 75.703 107.664 75.377 107.252 75.007 C 106.373 74.051 105.709 72.965 105.008 71.903 L 96.391 71.903 C 96.976 73.639 97.7 75.21 98.537 76.652 L 98.512 76.698 C 98.601 76.86 98.723 77.013 98.821 77.175 C 99.416 78.142 100.059 79.058 100.773 79.884 C 101.41 80.621 102.092 81.302 102.823 81.926 C 103.186 82.239 103.561 82.53 103.941 82.802 C 103.941 82.802 103.945 82.807 103.945 82.807 C 104.323 83.078 104.708 83.33 105.103 83.563 C 105.347 83.708 105.598 83.831 105.85 83.96 C 105.883 83.978 105.915 83.998 105.95 84.015 C 106.07 84.081 106.189 84.151 106.315 84.209 C 106.318 84.211 106.323 84.213 106.327 84.213 C 106.735 84.407 107.147 84.583 107.572 84.738 C 107.577 84.74 107.583 84.743 107.587 84.744 C 107.587 84.744 107.592 84.744 107.592 84.744 C 108.012 84.899 108.44 85.031 108.875 85.148 C 108.883 85.15 108.892 85.155 108.901 85.157 C 108.901 85.157 108.905 85.157 108.905 85.157 C 109.339 85.272 109.781 85.364 110.229 85.444 C 110.24 85.444 110.251 85.445 110.26 85.448 C 110.663 85.514 111.069 85.562 111.483 85.601 C 111.491 85.601 111.502 85.603 111.511 85.605 C 111.525 85.607 111.54 85.611 111.556 85.614 C 111.581 85.617 111.603 85.62 111.628 85.622 C 111.628 85.622 111.631 85.622 111.631 85.622 C 111.642 85.622 111.653 85.625 111.665 85.626 C 111.665 85.626 111.67 85.626 111.67 85.626 C 111.917 85.645 112.176 85.645 112.429 85.654 C 112.482 85.656 112.532 85.661 112.585 85.662 C 112.619 85.664 112.652 85.667 112.685 85.667 C 112.813 85.675 112.941 85.684 113.072 85.684 C 113.089 85.684 113.105 85.684 113.121 85.684 C 113.5 85.684 113.86 85.648 114.23 85.626 L 114.23 85.605 C 114.625 85.575 115.033 85.572 115.42 85.522 C 115.475 85.514 115.528 85.505 115.581 85.497 C 116.31 85.395 117.014 85.242 117.698 85.049 C 120.892 84.145 123.635 82.265 125.905 79.353 C 129.196 75.133 130.843 69.931 130.843 63.741 C 130.843 58.734 129.715 54.374 127.465 50.661 C 125.756 47.843 123.429 45.692 120.488 44.199 C 120.397 44.155 120.299 44.117 120.205 44.073 C 119.826 43.887 119.445 43.704 119.044 43.541 C 118.549 43.337 118.037 43.15 117.509 42.98 C 122.447 34.426 127.476 25.92 132.337 17.323 L 105.683 17.323 C 97.983 17.323 96.434 18.636 93.76 27.727 L 84.583 58.93 L 72.343 17.323 L 63.486 17.323 L 65.512 24.12 C 67.2 29.781 67.049 32.562 65.466 37.92 L 59.261 58.93 L 47.026 17.323 L 38.164 17.323 Z" id="path1599"/>
  <path id="path6" d="M 176.05 17.323 C 174.31 17.323 172.748 17.95 171.565 19.152 C 170.308 20.428 169.609 22.077 169.609 23.78 C 169.609 25.485 170.274 27.063 171.495 28.303 C 172.733 29.558 174.33 30.24 176.052 30.24 C 177.738 30.24 179.371 29.558 180.645 28.322 C 181.864 27.138 182.528 25.557 182.528 23.78 C 182.528 22.058 181.846 20.444 180.662 19.241 C 179.423 17.986 177.808 17.323 176.05 17.323 Z M 181.666 23.836 C 181.666 25.325 181.09 26.707 180.033 27.728 C 178.921 28.806 177.54 29.38 176.014 29.38 C 174.58 29.38 173.162 28.79 172.104 27.711 C 171.045 26.637 170.453 25.254 170.453 23.783 C 170.453 22.312 171.064 20.876 172.157 19.764 C 173.179 18.723 174.561 18.169 176.068 18.169 C 177.61 18.169 178.992 18.745 180.069 19.836 C 181.11 20.876 181.666 22.276 181.666 23.836 Z M 176.231 19.996 L 173.468 19.996 L 173.468 27.316 L 174.85 27.316 L 174.85 24.195 L 176.214 24.195 L 177.704 27.316 L 179.246 27.316 L 177.612 23.978 C 178.67 23.763 179.281 23.045 179.281 22.006 C 179.281 20.678 178.275 19.996 176.231 19.996 Z M 175.978 20.893 C 177.27 20.893 177.861 21.252 177.861 22.148 C 177.861 23.009 177.27 23.315 176.013 23.315 L 174.845 23.315 L 174.845 20.893 L 175.978 20.893 Z"/>
  <path id="path8" d="M 165.186 16.938 L 165.904 21.302 C 166.572 25.377 165.893 27.063 164.082 30.527 L 161.541 35.388 C 161.541 35.388 159.59 31.263 156.349 28.98 C 153.619 27.057 151.84 26.639 149.059 27.213 C 145.486 27.95 141.436 32.221 139.669 37.486 C 137.554 43.787 137.533 46.836 137.458 49.637 C 137.34 54.127 138.047 56.781 138.047 56.781 C 138.047 56.781 134.964 51.074 134.992 42.714 C 135.01 36.747 135.95 31.338 138.71 25.997 C 141.14 21.302 144.749 18.486 147.953 18.153 C 151.266 17.811 153.884 19.407 155.908 21.137 C 158.031 22.952 160.179 26.917 160.179 26.917 L 165.186 16.938 Z"/>
  <path id="path-1" d="M 165.812 66.319 C 165.812 66.319 163.567 70.333 162.168 71.88 C 160.768 73.427 158.265 76.151 155.172 77.513 C 152.078 78.875 150.459 79.132 147.403 78.84 C 144.35 78.546 141.511 76.778 140.517 76.04 C 139.522 75.303 136.981 73.132 135.546 71.107 C 134.11 69.079 131.863 65.031 131.863 65.031 C 131.863 65.031 133.115 69.092 133.899 70.813 C 134.35 71.803 135.735 74.838 137.702 77.477 C 139.535 79.94 143.098 84.179 148.51 85.136 C 153.923 86.093 157.642 83.663 158.562 83.072 C 159.481 82.484 161.605 81.096 162.833 79.783 C 164.115 78.412 164.794 77.428 165.648 75.7 C 166.269 74.445 166.807 71.499 166.46 69.689 L 165.812 66.319 Z"/>
</svg>